<mxfile host="app.diagrams.net" modified="2022-04-09T00:53:58.724Z" agent="5.0 (Windows NT 10.0; WOW64) AppleWebKit/537.36 (KHTML, like Gecko) Chrome/70.0.3538.25 Safari/537.36 Core/1.70.3883.400 QQBrowser/10.8.4559.400" etag="PdGPP2TKNbvYR1iczM8R" version="17.4.1" type="github" pages="2">
  <diagram id="SPryIYpsjw8ReC2oxJ1D" name="系统接入申请">
    <mxGraphModel dx="2329" dy="612" grid="1" gridSize="10" guides="1" tooltips="1" connect="1" arrows="1" fold="1" page="1" pageScale="1" pageWidth="827" pageHeight="1169" math="0" shadow="0">
      <root>
        <mxCell id="0" />
        <mxCell id="1" parent="0" />
        <mxCell id="x-UZEwV3KDi1-HlXAOjM-2" value="" style="swimlane;startSize=0;" parent="1" vertex="1">
          <mxGeometry x="170" y="85" width="560" height="695" as="geometry" />
        </mxCell>
        <mxCell id="x-UZEwV3KDi1-HlXAOjM-6" value="dpiv系统对接申请" style="text;html=1;strokeColor=none;fillColor=none;align=center;verticalAlign=middle;whiteSpace=wrap;rounded=0;" parent="x-UZEwV3KDi1-HlXAOjM-2" vertex="1">
          <mxGeometry y="20" width="130" height="30" as="geometry" />
        </mxCell>
        <mxCell id="x-UZEwV3KDi1-HlXAOjM-10" value="*&amp;nbsp; &amp;nbsp; &amp;nbsp;申请接入部门：" style="text;html=1;strokeColor=none;fillColor=none;align=right;verticalAlign=middle;whiteSpace=wrap;rounded=0;" parent="x-UZEwV3KDi1-HlXAOjM-2" vertex="1">
          <mxGeometry x="45" y="205" width="130" height="30" as="geometry" />
        </mxCell>
        <mxCell id="x-UZEwV3KDi1-HlXAOjM-16" value="*&amp;nbsp; &amp;nbsp; &amp;nbsp;费用承担部门：" style="text;html=1;strokeColor=none;fillColor=none;align=right;verticalAlign=middle;whiteSpace=wrap;rounded=0;" parent="x-UZEwV3KDi1-HlXAOjM-2" vertex="1">
          <mxGeometry x="65" y="250" width="110" height="30" as="geometry" />
        </mxCell>
        <mxCell id="x-UZEwV3KDi1-HlXAOjM-20" value="添加" style="rounded=1;whiteSpace=wrap;html=1;" parent="x-UZEwV3KDi1-HlXAOjM-2" vertex="1">
          <mxGeometry x="195" y="205" width="66" height="30" as="geometry" />
        </mxCell>
        <mxCell id="x-UZEwV3KDi1-HlXAOjM-21" value="添加" style="rounded=1;whiteSpace=wrap;html=1;" parent="x-UZEwV3KDi1-HlXAOjM-2" vertex="1">
          <mxGeometry x="195" y="250" width="66" height="30" as="geometry" />
        </mxCell>
        <mxCell id="x-UZEwV3KDi1-HlXAOjM-22" value="*&amp;nbsp; 接入的接口名称：" style="text;html=1;strokeColor=none;fillColor=none;align=right;verticalAlign=middle;whiteSpace=wrap;rounded=0;" parent="x-UZEwV3KDi1-HlXAOjM-2" vertex="1">
          <mxGeometry x="45" y="65" width="130" height="30" as="geometry" />
        </mxCell>
        <mxCell id="x-UZEwV3KDi1-HlXAOjM-23" value="" style="rounded=0;whiteSpace=wrap;html=1;" parent="x-UZEwV3KDi1-HlXAOjM-2" vertex="1">
          <mxGeometry x="195" y="65" width="220" height="30" as="geometry" />
        </mxCell>
        <mxCell id="x-UZEwV3KDi1-HlXAOjM-24" value="*&amp;nbsp; &amp;nbsp; &amp;nbsp;选择接入系统：" style="text;html=1;strokeColor=none;fillColor=none;align=right;verticalAlign=middle;whiteSpace=wrap;rounded=0;" parent="x-UZEwV3KDi1-HlXAOjM-2" vertex="1">
          <mxGeometry x="45" y="115" width="130" height="30" as="geometry" />
        </mxCell>
        <mxCell id="x-UZEwV3KDi1-HlXAOjM-25" value="△" style="rounded=1;whiteSpace=wrap;html=1;align=right;" parent="x-UZEwV3KDi1-HlXAOjM-2" vertex="1">
          <mxGeometry x="195" y="115" width="225" height="30" as="geometry" />
        </mxCell>
        <mxCell id="x-UZEwV3KDi1-HlXAOjM-26" value="* 接入系统负责人：" style="text;html=1;strokeColor=none;fillColor=none;align=right;verticalAlign=middle;whiteSpace=wrap;rounded=0;" parent="x-UZEwV3KDi1-HlXAOjM-2" vertex="1">
          <mxGeometry x="45" y="160" width="130" height="30" as="geometry" />
        </mxCell>
        <mxCell id="x-UZEwV3KDi1-HlXAOjM-27" value="添加" style="rounded=1;whiteSpace=wrap;html=1;" parent="x-UZEwV3KDi1-HlXAOjM-2" vertex="1">
          <mxGeometry x="195" y="160" width="66" height="30" as="geometry" />
        </mxCell>
        <mxCell id="x-UZEwV3KDi1-HlXAOjM-28" value="接入场景：" style="text;html=1;strokeColor=none;fillColor=none;align=right;verticalAlign=middle;whiteSpace=wrap;rounded=0;" parent="x-UZEwV3KDi1-HlXAOjM-2" vertex="1">
          <mxGeometry x="45" y="343" width="130" height="30" as="geometry" />
        </mxCell>
        <mxCell id="x-UZEwV3KDi1-HlXAOjM-32" value="" style="rounded=0;whiteSpace=wrap;html=1;" parent="x-UZEwV3KDi1-HlXAOjM-2" vertex="1">
          <mxGeometry x="195" y="343" width="220" height="30" as="geometry" />
        </mxCell>
        <mxCell id="x-UZEwV3KDi1-HlXAOjM-33" value="预估日均调用量：" style="text;html=1;strokeColor=none;fillColor=none;align=right;verticalAlign=middle;whiteSpace=wrap;rounded=0;" parent="x-UZEwV3KDi1-HlXAOjM-2" vertex="1">
          <mxGeometry x="43" y="388" width="130" height="30" as="geometry" />
        </mxCell>
        <mxCell id="x-UZEwV3KDi1-HlXAOjM-34" value="" style="rounded=0;whiteSpace=wrap;html=1;" parent="x-UZEwV3KDi1-HlXAOjM-2" vertex="1">
          <mxGeometry x="193" y="388" width="220" height="30" as="geometry" />
        </mxCell>
        <mxCell id="x-UZEwV3KDi1-HlXAOjM-37" value="审核流程" style="text;html=1;strokeColor=none;fillColor=none;align=center;verticalAlign=middle;whiteSpace=wrap;rounded=0;" parent="x-UZEwV3KDi1-HlXAOjM-2" vertex="1">
          <mxGeometry y="475" width="130" height="30" as="geometry" />
        </mxCell>
        <mxCell id="x-UZEwV3KDi1-HlXAOjM-39" value="" style="whiteSpace=wrap;html=1;aspect=fixed;" parent="x-UZEwV3KDi1-HlXAOjM-2" vertex="1">
          <mxGeometry x="110" y="515" width="45" height="45" as="geometry" />
        </mxCell>
        <mxCell id="x-UZEwV3KDi1-HlXAOjM-40" value="审批人：" style="text;html=1;strokeColor=none;fillColor=none;align=center;verticalAlign=middle;whiteSpace=wrap;rounded=0;" parent="x-UZEwV3KDi1-HlXAOjM-2" vertex="1">
          <mxGeometry y="522.5" width="130" height="30" as="geometry" />
        </mxCell>
        <mxCell id="x-UZEwV3KDi1-HlXAOjM-41" value="" style="whiteSpace=wrap;html=1;aspect=fixed;" parent="x-UZEwV3KDi1-HlXAOjM-2" vertex="1">
          <mxGeometry x="190" y="515" width="45" height="45" as="geometry" />
        </mxCell>
        <mxCell id="x-UZEwV3KDi1-HlXAOjM-42" value="" style="whiteSpace=wrap;html=1;aspect=fixed;" parent="x-UZEwV3KDi1-HlXAOjM-2" vertex="1">
          <mxGeometry x="270" y="515" width="45" height="45" as="geometry" />
        </mxCell>
        <mxCell id="x-UZEwV3KDi1-HlXAOjM-43" value="抄送人：" style="text;html=1;strokeColor=none;fillColor=none;align=center;verticalAlign=middle;whiteSpace=wrap;rounded=0;" parent="x-UZEwV3KDi1-HlXAOjM-2" vertex="1">
          <mxGeometry y="582.5" width="130" height="30" as="geometry" />
        </mxCell>
        <mxCell id="x-UZEwV3KDi1-HlXAOjM-44" value="" style="whiteSpace=wrap;html=1;aspect=fixed;" parent="x-UZEwV3KDi1-HlXAOjM-2" vertex="1">
          <mxGeometry x="110" y="575" width="45" height="45" as="geometry" />
        </mxCell>
        <mxCell id="x-UZEwV3KDi1-HlXAOjM-47" value="提交" style="rounded=1;whiteSpace=wrap;html=1;" parent="x-UZEwV3KDi1-HlXAOjM-2" vertex="1">
          <mxGeometry x="482" y="640" width="60" height="30" as="geometry" />
        </mxCell>
        <mxCell id="Hp60AGxop_6WqwKCzi6o-1" value="*&amp;nbsp; &amp;nbsp; &amp;nbsp;操作类型：" style="text;html=1;strokeColor=none;fillColor=none;align=right;verticalAlign=middle;whiteSpace=wrap;rounded=0;" vertex="1" parent="x-UZEwV3KDi1-HlXAOjM-2">
          <mxGeometry x="65" y="295" width="110" height="30" as="geometry" />
        </mxCell>
        <mxCell id="Hp60AGxop_6WqwKCzi6o-3" value="" style="html=1;verticalLabelPosition=bottom;labelBackgroundColor=#ffffff;verticalAlign=top;shadow=0;dashed=0;strokeWidth=2;shape=mxgraph.ios7.misc.select;fillColor=#0080f0;strokeColor=#ffffff;sketch=0;" vertex="1" parent="x-UZEwV3KDi1-HlXAOjM-2">
          <mxGeometry x="190" y="304" width="12" height="12" as="geometry" />
        </mxCell>
        <mxCell id="Hp60AGxop_6WqwKCzi6o-5" value="新增" style="rounded=1;whiteSpace=wrap;html=1;" vertex="1" parent="x-UZEwV3KDi1-HlXAOjM-2">
          <mxGeometry x="211" y="295" width="66" height="30" as="geometry" />
        </mxCell>
        <mxCell id="Hp60AGxop_6WqwKCzi6o-6" value="" style="html=1;verticalLabelPosition=bottom;labelBackgroundColor=#ffffff;verticalAlign=top;shadow=0;strokeWidth=2;shape=mxgraph.ios7.misc.select;sketch=0;fillColor=#999999;" vertex="1" parent="x-UZEwV3KDi1-HlXAOjM-2">
          <mxGeometry x="300" y="304" width="12" height="12" as="geometry" />
        </mxCell>
        <mxCell id="Hp60AGxop_6WqwKCzi6o-7" value="修改" style="rounded=1;whiteSpace=wrap;html=1;" vertex="1" parent="x-UZEwV3KDi1-HlXAOjM-2">
          <mxGeometry x="321" y="295" width="66" height="30" as="geometry" />
        </mxCell>
        <mxCell id="Hp60AGxop_6WqwKCzi6o-8" value="" style="html=1;verticalLabelPosition=bottom;labelBackgroundColor=#ffffff;verticalAlign=top;shadow=0;strokeWidth=2;shape=mxgraph.ios7.misc.select;sketch=0;fillColor=#999999;" vertex="1" parent="x-UZEwV3KDi1-HlXAOjM-2">
          <mxGeometry x="410" y="304" width="12" height="12" as="geometry" />
        </mxCell>
        <mxCell id="Hp60AGxop_6WqwKCzi6o-9" value="删除" style="rounded=1;whiteSpace=wrap;html=1;" vertex="1" parent="x-UZEwV3KDi1-HlXAOjM-2">
          <mxGeometry x="431" y="295" width="66" height="30" as="geometry" />
        </mxCell>
        <mxCell id="x-UZEwV3KDi1-HlXAOjM-5" value="" style="endArrow=none;html=1;rounded=0;exitX=-0.003;exitY=0.082;exitDx=0;exitDy=0;exitPerimeter=0;entryX=1.001;entryY=0.078;entryDx=0;entryDy=0;entryPerimeter=0;" parent="1" edge="1">
          <mxGeometry width="50" height="50" relative="1" as="geometry">
            <mxPoint x="170.0000000000001" y="139" as="sourcePoint" />
            <mxPoint x="712.16" y="135" as="targetPoint" />
          </mxGeometry>
        </mxCell>
        <mxCell id="x-UZEwV3KDi1-HlXAOjM-35" value="" style="endArrow=none;html=1;rounded=0;exitX=-0.001;exitY=0.714;exitDx=0;exitDy=0;exitPerimeter=0;entryX=1;entryY=0.719;entryDx=0;entryDy=0;entryPerimeter=0;" parent="1" edge="1">
          <mxGeometry width="50" height="50" relative="1" as="geometry">
            <mxPoint x="169.46000000000004" y="530.97" as="sourcePoint" />
            <mxPoint x="730" y="532.5749999999998" as="targetPoint" />
          </mxGeometry>
        </mxCell>
        <mxCell id="x-UZEwV3KDi1-HlXAOjM-45" value="" style="endArrow=none;html=1;rounded=0;exitX=0.003;exitY=0.936;exitDx=0;exitDy=0;exitPerimeter=0;entryX=0.999;entryY=0.927;entryDx=0;entryDy=0;entryPerimeter=0;" parent="1" edge="1">
          <mxGeometry width="50" height="50" relative="1" as="geometry">
            <mxPoint x="171.68000000000006" y="721.2800000000002" as="sourcePoint" />
            <mxPoint x="729.44" y="715.835" as="targetPoint" />
          </mxGeometry>
        </mxCell>
        <mxCell id="Hp60AGxop_6WqwKCzi6o-12" value="" style="shape=image;verticalLabelPosition=bottom;labelBackgroundColor=default;verticalAlign=top;aspect=fixed;imageAspect=0;image=data:image/png,iVBORw0KGgoAAAANSUhEUgAAAmwAAAIwCAYAAAA72TepAAAAAXNSR0IArs4c6QAAAARnQU1BAACxjwv8YQUAAAAJcEhZcwAADsMAAA7DAcdvqGQAAFrzSURBVHhe7d0LsKR3ed/52cTJOs564yTkYoNjx3a8vgDGiItHIDAgbmaTym425QrrIlXJrFK7q01tXBVnHcuFbIOBJGPECJC4CEnogrBkLAY0AouRwItkCxBCAsbCIMCxkHYYZoa5nLlh6b/v733fp/t5//1/3+5zTp9zup/z7apPTvd76XM0xD3fef5v99lx7ty5BAAAgMVFsAEAACw4gg0AAGDBEWwAAAALjmADAABYcAQbAADAgiPYAAAAFhzBBgAAMGfHjp8obpehfX0INgAAgDk6eXIl/fpvvzl94cCXJvY99OWH0yWv/5107NjxiX1DCDYAAIA5+/LDX0+/9rrdnWhTrP3HatuffOkrnWNnQbABAABsAB9t64k1IdgAAAA2iEXbemJNCDYAAIANosmagi1fHl0tgg0AAGADWKxpsla6pm01CDYAAIA5K12ztp5oI9gAzMlDac+FF6d9bttDey5MT7p4X31/38VPShfueWi0r0vnXpj2PKT7+9LFT3pSelKfC/ekh6pz9Hyl/RdffPHomPFzD33vgof2pAvtOdufv4//bwQA0cd6vPYNlxWvWVO06SM/+FgPAFtnn4+lJpQu3tfsmz3YKnUwdeNPus/hn7/7verz25+jFFR9sTfSCb5hw/9dALarEydPFrfL0L4+BBuAuVLA1OHkp1RFTZBNxlMbaoo/F231cYXJWTHYTE/4ddjPuaYpWfN9CTYAG41gA7Ah8snT8CRK4eMmbKaOtjbkJoKqiSUfexfvm9w2lj2/hVppmjZzxLXLtyyJAthgBBuAuRhPysoTrdUGm3++i9v73fObOOufsCmmeqZrPgSLCvFYMpoiTpniAcA6EWwA5qiNpFHITDGaTBUmY4WpVX092mjflGCrf4ZZQ6qdlK3i2jWpo7L6WfR1YjkWAOaIYAMwR5NTLR8zpSnbeJLWM9XSNKy45DgZeRfvmRKK2fOMv/fkz1z+np7+W9ufWXG4ytgDgNUg2ADMUR5s3cmXD7buuzd1nAXbZIh1dY/rnbC1y56lyddoUjeD0vmSR53/bwOAeSPYAMyRD7Y2vNzkyUdNN3B8sGWmTNgUVJ0Aa4/V89cTt1knX/o+E8cWQlDqGMyXW93ErbMdANaPYAMwP6OQUbx0J1Dj/W1YdeJmHGwzTb+qsNqjCVf7+MI9+7ph5eKrf/LV/Ix955QjsT3Onzexj2gDMH8EG4D5qGOlijX7Wjqm11ombJ6bhE1EU7PPP4dFYSe6dJ6bsNXRlh3TnDclyOrvz/IogPki2ADMxb6LXcis4l2i44laT+StJtj0a6mKzzOOtjrECmEmk5E1nsLl5w3rmTACwBoRbAAAAAuOYAMAAFhwBBsAAMCCI9gAAAAWHMEGAACw4Ag2AACABUewAQAALDiCDQAAYMERbAAAAAuOYAMAAFhwBBsAAMCCI9gAAAAWHMEGAACw4HY8/F8fTQAAAFhcTNgAhKIXttJ2AFhmBBuAUAg2ABERbABCIdgARESwAQiFYAMQEcEGIBSCDUBEBBuAUAg2ABERbABCIdgARESwAQiFYAMQEcEGIBSCDUBEBBuAUAg2ABERbABCIdgARESwAQiFYAMQ0bqDTbfPffFLALBuupVeZ1aDYAMQ0bqDzV5kuXHjxm29N72elF5nVoNgAxARwcaNG7eFuRFsAFBGsHHjxm1hbgQbAJQRbNy4cVuYG8EGAGUEGzdu3BbmRrABQNnyB9uj+9KvXLIvfaN9mNJj6dZLLkq/csVV2fah2/3p8tdclT7VPuLGjdvW3Ag2ACjb1GB74okn0t7bPpp+9bWvT//yon9bf9VjbV/zzQfbfVelX3xNFWt7H2u3X5Uur+JN235xFGSKM9s2DRHHjdtm3hYr2B5N+/dcki65ZBZ70v5H/Xk3pQfdcz26f0+65KYH6/sP3nRJ2rO/72fUufZcD6abit+rtWd/ejQ7X889sf3BmybOHX//5nvc9KA7Pzt2pPD9AGyeTQs2RdlvvmF3etPvXJ4e/trX05kzZ+qveqzta4m2T13h4+o30q17r2piTbfO5E1Tt6H4YsLGjdsi3JZzwqbo8cFWUSSNAqcJPx9FswVb5dH9ac8l3fgT/xx1DJYCq1adq5+ljcX8Z2l0o62o898DYCtsWrBpkqY4K920XfvXdCtM2OTyvc32T+39jXZbG2TumFlcfp9O4saN22bcwgRbRVFVR1AdXaWYMk2QTU632lCrJ2TjaKuPy+LJT/BqPvRcsHWPK8VbD4IN2HKbFmxa/tRErXTTdu1f0y0LtqkTNn9MddOUbhRldcz9Rrr10eZhZx83btw2/LZwwTZTqJSDzeQTtfxxVzZhM3W0tSHnw8wZP69+nnHgjYJtYlpHsAHLZNOCTdesaRm0dNN27V/TrQ2zW69olkRLU7JGtuRZmrSNAo8bN25bcYsQbONJmY+jsdUGm3++m9r74/Ob6BrF3ITqufY3wWZLp+NAI9iAZbLkE7bmHaGKrYlJWGfCNnRr3oRg52uq5idw3Lhx27zbQgbbRASV5FOxdso1dTm0lS1TlveNja5b65m2ddiETffrn8d+VoINWCZLfQ3brZf8Rrr1vnGYfWN0vdqkyQiz2Gsmb903MIy3c+PGbfNuESZs423dCZsmZRZHpSnbeJKWP1fLh9dqZOeNr2Mj2IBlsmnBNvQu0X/7738tHfzmofbIVd6ySZqirRtnmqCNr0trbqWP9igdQ7Rx47aZt+UMtpI82Lpx5INt8o0A3QlYZ9rWMf24+vvloacpW/3fRLABy2TTgk23vs9h++KffCnt+j9+OR146E/bI1dxKyx9jpY1tW8ixOzmQ07TtuZ+PaXjWjZu3LbktszB1g0vH2xtULnn8cHWnbb5YMvk4TVSCi+3LTuPCRuwnDY12IZuirb/7f9cQ7SVrlVzbygovcvTlk7H+8bBVt/sfMKNG7dNvS17sI3CS+fVwaZwq2ItD616v03CfKCNg60Oq9ExPeqfbZZg218/bs7rhiTBBiyHhQk23b556Ftp777Zr2UbXbN2xf3dd33qcXvrXJtWba8f2/56AtfuK8RZ51hu3Lht+G0hgy27Fq0sCySdM/O53jjYJvbV4dU/YZuIuco42GadzPXofQ4Am2Whgo0bN27b+7ZwwTYQQxPaoHnwJhdcq3iX6Hii1hN5qwovt22twabz3M84U9gB2DAEGzdu3BbmtnjBBgCLgWDjxo3bwtwINgAoI9i4ceO2MDeCDQDKCDZu3LgtzI1gA4CydQebvcgCwHrpVnqdWQ2CDUBE6w42AFgkBBuAiAg2AKEQbAAiItgAhEKwAYiIYAMQCsEGICKCDUAoBBuAiAg2AKEQbAAiItgAhEKwAYiIYAMQCsEGICKCDUAoBBuAiAg2AKEQbAAiItgAhEKwAYiIYAMQCsEGICKCDUAoBBuAiAg2AKEQbAAiItgAhEKwAYho3cH2b/Y+kX7y8jQXeq7S9wCAWRFsACJad7CVwms9St8DAGZFsAGIiGADEArBBiAigg1AKAQbgIiWONgOpN07d6bdB7rb9+7akXbt7W7LHdi9M+3cfcBt03PtSDt2dHWe58DutHPn7nSgfrw37dqxK+3tnD/5s3TNcswk/aw7Ot93+n8fsJ0RbAAimnuwHT2dirfXfKB7XJ/S9yhRmCm66qDJQivXjbP+YBuHkMLIx5XFVrW9jicLNvd4FFV91hBsisTOz5EHHIAcwQYgorkHW9/tU490j+tT+h45xdqOXXt79xUnUHt3FWNOdu7e2w02HTuKIh9zCrXsfB1Xh1W2zX/vms5dTbA13yuPTft5JrcDEIINQESbFmylm6Zx+fml79FRxZTFyoED1deBEGtMRtK0CVsn+qoY21UdOzTZGj+fj7JC3PWYDMzm5+mLUnvuyfMAEGwANsrRo0fT5z//+XTXXXel22+/vab72qZ9pXPmZUuDTbf8/NL3KLLlwt02DVPktNeVjaKuPNUaDLb6ef31aTIOpHq652LLpnPj75ef65+j/3nzbX1xONYe1xt1wPY072D7lT94ovaqG1J65XUpvaLysvem9NJrGy+p/Otbn0grp8vnA1h+Z8+eTQ888ED68Ic/nD70oQ8VaZ+O0bGl51iv5Qy2dgmyDp2ZJ2xt4BT3j4OttNxab+sLqHoCV9E5+rk6x+l7tt+/NwR3VufuHH3P0vcvnyvTJnHA9jPvYFOoyS9c38TayysvrYLtJdc0XnR1Sj9fefM9jxfPB7DcFGD33HNPMdJKdOxGRNvyBVsba6WlzllNWxKtlz8tgiwI2xDrTtjsZ2ime7v9eaXnmYi+Nuj29gWZND9b9+cF0GfewaZQk1dWXt5O1hRqL25ZsL3gPSk9/90pnd/aWXnuO1N6TuVZ70jpX936RK30PWbT94/OPn2vKZXi69EajF6PK9k/HIv/+PT/iO1sb18vOz+/zt/d/KM0394arU5k/6jtvMa3P2N3JQOYnaZmpTAbonNKz7UeSxdse3fp/9jt/+hnfAErvJAMBZt/vHdX9SLgXtzG5+qY8QuPhVz3BWS8fzISxf47BqIse2Gd/NkBePMONi2D+qXQC9tgU6jJC6tQq2PtqpSep1B7V8PH2nlXpvTMVul7rEfnH4YzaMKoG3N6XSkFjb2u9eqNvilhNhSLes3r/Pd0X2vr19bs/Pz1tfTfU/+3DH1foEDXpfll0Ntuuy194hOf6MSZ3HnnnfX1bPZY58z7mrYlvYat58Vg4F+NQy88E+8SrXReALJga46zF5HqXB1XCKvxi07fi5fbXvzZS+eNY3K8DYAJHWzZJEkmg63v9aZ57eiLu1LkdLSTqlni0P9M9f3sNTfnY0vHd3+OacGW7Z94DKyd3kzgw0yxdubMmc4Sqd50cPr06XTvvfd2jtW5pedcq6UPNr3INMHV/h+o/o/ZXlAK/xIrB8/ktuZ582Dzx+ln0IuNvm+zXS88ky947b7Si1zhxdfr/AzelPOA7WzewaZQ82800JsMbBlUFGwXtLGmpdCfq2JNFGvPbmPtZ69I6Rmt0vdYFb0euSDrBFv92lB4HcrOaYxft7yJc9vnLP5j2PZ1Xt+Gg3HyNdLTMflrm7a559P37Pws9lq8CqXXY6BAMeYjTBRrira77757FGv33XffxHHaV3rOtZp7sPV9cG7ptqaP9ag1Lwjji/Wz/4MWi6zO5Kp9gZr4P9b2hWR3++Ij/gXBnqMTSuMXpdELZr0/e2EZenGoX0TL4dV5Ea7UEzv72Uo/I4DavINNoVbHWsWuXVOwaaomF1R8rCnULNY0XXtmFWkKtp95e6P0PVbNva6NXyt6Qql+nSm8fhSjKpu09Z5rJp/D/0Ozft1qf87uP0ALr9nS+X722jgt2DLVcxT/oQusgV/m9Cza+mJNdG7pOddq7sG2XqXvMWnyhakUNN3/o23/FVaMpzbY+v7l17447p0Y1VfyFw97XL/w5C9I7c/glL5n/QI8w3HN9XyT24HtbKOCzZZCbapmwWZLoYo1Wwb1S6EWa097W6P0PdYj/8fdug0GUfsa1ru//UexvXa1P1fxZ6z/Qdv9B+s46vR92jdy2XOVTPwc2fefwGsmVqcv2GyypneDatJWOoZgA4AB8w42hZrYZM1iTcugthSaX7PmY+0Z7WRtvcFW+kfpVKNImhYypjzxH3/vycAqxmIVY7tnndJZdLXH+WBrvpfuzzhh0z69s7Qysb/9h3c5NIGy0pKoXwZVrNnyaOm40nOuFcEGIJR5B5umarYUml+z1lkKrSLNlkFtKVTXrFmsPbVV+h7rMduELVtWLClMvErT/j6jVYD6ecbbRysdLpjGk7Tmvs7VioEucykHm/u5BoJttOpQfa/R963pOQZWUYAe+ZsO9G7QfBnUX9Pmj134Nx2sV+l7AMCsCLaStQVbUXFS1UzwFERN5BWeR+e1P6cPNk/nTgRb/v36gs09v4z/XJqfrfT9gGnyj/X4yEc+MvFuUFGs3XHHHaPHC/mxHv9m7xPF8FoLPVfpewDArOYdbPbxHYo1WwrVdWsKNYs1LYf6NxnUseaWQp/61pR+qlX6Huux8cGWTadcQPUuidaaUGqOHQed9nWCzYXWZLB1z6sVgy2bwrWaeOyJtfq/t33uvvv5OdiWwnxwLgAsko0ONos1+7w1m64p1uy6NfsYj6dXwaZY++mK/cO09D3WY/ZgGy9T9utGjwVPJ16yiVcdbf6YNnjGF/i339v9jD7Y/M9v389+ll167jzOJoItX+50/60uFiemfgQbZhTmV1OZU6dO1eO/lZWV4n4A2AzzDraLb3ui9oIq1DRdq2Otoqla58NxKxZqpVj7Fzc/USt9j/WYPdhWN2GrQ6wQZjI5sbJo0vdxYaS4K8VPu93Yfv23jJ+7PDXLg20Uf6Pn7PvvbH7G+pipf15AlwJMUzO/PJrTPh2zEbEmcwm2I0eOpMcee4xgA7Dl5h1sAGDUOXozgd4Bqo/tEN3Xtnlfs5Zbd7CdPHmyjrWNKkoAWA2CDUBEMwebljyPHTs2sf3QoUPp+PHjE9sBYCsQbAAiminYND3TFE3yfQcPHqxjTsco3Ag4AFuJYAMQ0USw5Uub+jA4Rdnhw4fTI488MnGNmgJNkzcdo2vZtIar43S8Pw4ANgPBBiCiHX/2jUMJAKIg2ABERLABCIVgAxARwQYgFIINQEQEG4BQCDYAERFsAEIh2ABERLABCIVgAxDRwgXbgT/9Wtp/1yfT+2/+/XTNde+r/e4tt6Y7P353te/rxXMAwBBsACJamGD72p//f+n2Oz6e3nvD+9PnHvxCOnJk/Du5dP/+Bz5f7/voxz5RHXuw+BwAQLABiGghgk2x9oG9+9LtH/1YOrmykvpuJ06eTLfd/gfp1g/dnr7+yDeLz7VZ/u/bzqVX3ZDSK69L6RWVl703pZdem9JLKv/ylu+kh//8W8XzVuOaX9qRXn1dtv2616Qdv3RTd5vziUufnc679N7xtup4Pdb2Hee9Ln3CHbsWE89fmfw5b0qv3vGadM3o8b3ptec9O7327vEx9jyl56vd/bp03o4daccUE38+257+7Lt/1tsNwQYgooUINk3WFGuz3hRtd997X/G5Noti7Reub2Lt5ZWXVsH2kmtSetHVKf185XX7TxXPW61ODCnWitGlv6QLQaNj22AbPr+rjrtOcHX3rTrY8sisY2y8vximOmbKz6qfZX7BlkdmSz979udaDMxK8+c2jqXmcfdcM/65s//tJmJ82v5cz39Hn/q/bxXHLwGCDUBEWx5sX/zSV+ulzqHJWn7TpO36G29OD33lz4rPuRkUa6+svNwma1WsvdgF2wvek9Lz353S+ZWdlee+M6XnVJ71jpR+6eZzxeccWcd0aSKo8liaZkrUDUVIl0WApmvNfYWZfjZ9LZ9TsZ91Eyds4/+mnmCbIXLHYTVlutV5Pv3Z+ABc7eOCLIZnUf/3r+b/jyw4gg1ARFsebB+78/+tr09b7e2zn3uwfiNC6TnX4tJLL00fuu0jxX0lfin0wjbYFGsvrEKtjrWrUnqeYu1d3Vg778qUnlkpPefIDNOl8VSq+Us8D5lBvc+t6JhlOa07xakDrO85q0CpA6P9b7qmjaPOhKl07gx/BgqN9QZb/bMrVnpCZ9aYaf4Mqlge/PPL/nwVb/n39D/HtP0l9Tmz/G/ozfq/+3Ig2ABEtOXBpneD6k0Fq70dPnwkvf+WW4vPuRaXXHJJ7Y1vfFP67IMHisd4+XVrNllTsF3Qxpqmaz9XBZti7dltrP3sFSk9o1J6zpEZYmUcbPn27C9ePdes0xP9ZT/DsbNO2RRqdcjUj6uf67rmv+u1o22TRtOjOkzKx3jzmLDVekJopmCzc+uv/eEz8Vy9QdY+x7T9fnvL/rwHp3AFOm+15ywqgg1ARFsebFe/98b6B1nt7dy576Rrrrux+JxrYcEmv/7rv56uuvra4nGmjrX2ujVbCtVk7YJKKdY0XXtmFWoKtp95+wzBloVJSTlWbkqv9lGg57L4UwAMhOBMf2mXgsF/j5Jq/6vd83Zjs2fCNoN5TNhG6v+uyWAbB2drIt6aCWf9c5T+bExxnyZb3T/z5vvZcdP259pJWRvGq/kznXWSuAwINgARbXmw6XPW9IOs9qZgu/b69xWfcy3yYHv3VVcXjzN+KdQma34pVLGWL4VarD3tbfOdsA1NvM67tIqlOkRcWGTPZbohVdIEwXkzLcG66Mj+W7rfZ3K/0X9XHivDP9869ARbVxNQPmzqgLLHA8HWOa6jfc7Wq69r/ozHzzFtv+OCfNV/VjNOV5cBwQYgoi0PNn0o7lqXRH/39z5YfM61sFh7wxvflO773BeLx3iKNZusWazZUmjpurV6KbSKtZmCLTPz9KMYegq16i/4S4enazLtL/lmubV9Ph8MA4HZjcnmvDpeXIR4o0Cr46d8TFdPvKzWTMFW8cuU+cSyN9gGIis37efo3d+E3eh/vynT1AkEGwAstC0PNr1xYK1vOrjrE/N708FrX3tp+uDefcV9JbYU2nvdWhVqfilU161ZrD11SrBZOHUmTJ2/gBVN3b+0mzDStmaSZkFjzzNL2Oj7+olWWff5+/V/v24YVqExERZZfLSmBeW6rCbY6p93yp+Di5/6z3/GeKqPHQinvv11BGfbZ/vfszHt+y4Tgg1ARFsebPp1U/pYD31Ux6y34ydOpBved0v606/+efE5N4P/+A7FmpZCLdY0XevEmpusPfWtKf1UpfScNRcO+kt08i/cdlqj65RcoI2XPtvjFBZ1NDXxMwoGPX9fPMw0ZdH3y2Js6DlrLm6q558WbM1/902zheHQ963/LKeHaq0YbPema67zf/7Nn2VvBBW/n/3vM0M4jf43K+wb2F/HVjE2y+Fbspq4W3QEG4CItjzYRL9uSh+GO+tNx/7xp+8vPtdm8cFmsaalUJuudZZCK0+vgk2x9tOVn7y8P9j0l7v9BVsMNh9HncDSX86vSa/VX96jiBn/hW2RVI5A0zzH8JRpymTJ0fdpYqIbGfU0qHB8bSDAuqE3g5kCtFUMNouh8c83GDXFYBuKpvzPcjIYh/fbn+XQ/2bN9x+OMR0zEIpLhmADENFCBJt+N6h+3ZRCTNOzvpv26ZgP77uj+Dyb6aJbz6UXVKGm6Voda5XOdWuVvlj7ZzdO+eBcUweA/wu7UfzLvz12/BdzHl/NX9yDE5xKHSiDkaOIWN9f7tPCK4+kqXp+3lUH3pKpY21owjjShl/Pn9P0/82XC8EGIKKFCDbR7wb95B9/pv4NBvfd/0D61rcOVz/gd2p6g8Fnq23a90dbPFnbDuoQCPQXOAbUy6xDE7rlQ7ABiGhhgs38yZf/LO2/65P1h+Lqc9b00R16N6jeYPClh/9r8RwAMAQbgIgWLtgAYD0INgAREWwAQiHYAEREsAEIhWADEBHBBiAUgg1ARAQbgFAINgAREWwAQiHYAES0o7QRwNY5c+ZMOnr0aDp79mxnu7YdOXKk3v7II4+klZWVzn7v4MGD9fGlfaLnOXxYn3VY3r/MCDYAERFswAI4depU5/Hx48frKPPbfcApthRd9jin8x977LHiPlHs6flL+5YdwQYgIoIN2GKahJWmXSdPnqyjShO3vn35FM7MMoXrO3fZEWwAIiLYgC1k4dUXZoq5Q4cOTWwXnaPzS/tk2hQuKoINQEQEG7DBFGIKJ4WXliptu5Y7FV36quVLv89oCqZ9pTCz58y3G03XhoIuKoINQEQEG7CBLMo0KTt27Fh936ZeijG7Rk379UYBf67ReaUlU3vu0mRuOyPYAES0cMH2zW8eSnffc2+6+fduTddef1Ptlg98MN3zR59K3zz0reI5wKJQPCmw7PowxZlflvRTNds2tF30nNpXuuasbzK3nRFsACJamGA7ffp0+sNP3pOuu/H96XMPfqH6S278kQS6f/8Dn6/3ffLuP2aigIWikNLSoyZkCisfXlqyVMD54/uWMoc+ikNhVoo5beP/HroINgARLUSwKdY+tO+j6faPfiydXFlJfbcT1V+Kt93+B7XStGEzXXrXE+lVN6T0yutSekXlZe9N6aXXpvSSyr++9Ym0crp83mwOpN07d6QdOwbs3J0OrOb4kV1pb+kcPd/eXe44z84Z27trR9q5+0Bn23akpUoFmmJLky79/0s9tv0KMz9hk75p2tBHceh5SsGGSQQbgIgWItg0WVOszXpTsD3w+S8Un2uzKNZ+4fom1l5eeWkVbC+5JqUXXZ3Sz1fefM/jxfNmo5jamXYfKO2rHNiddnaCrWRv2lUIrTF9j3a/PZ+Cbdfe7LjJ5zmwe2ch6ryh77vc8mjSZM1PuCzG7LGma6UIKy1lWuyVPoqDYJsdwQYgoi0PtoMHv1kvdQ5N1vKbJm03vO/m9K3ChdibRbH2ysrLbbJWxdqLXbC94D0pPf/dKZ1f2Vl57jtTek7lWe9I6f+67Ynic44tULBl36uJtZ3Vth1p1153XE3fM+7kre/z0jxFlV/utIDLY0tTt9Jz9X0UhyZ4BNtsCDYAEW15sOmaNF2fttrbZz/3YP1GhNJzrsXll1+eHnrooeK+Er8UemEbbJq6/cePp/SW+1K6rPKrdzVLpD7WzrsypWdWSs85li1Xlswl2LLnGwVbd5+FWR1rLui0LGqP6/uBJ2uapCm8ZOiaMU3U8uvTSsuipeOk9FEcmrz1LZViEsEGIKItDza9G1RvKljt7fDhI+nmD3yw+Jxrcckll9RuvPHG4oQjl1+3pljbU0Xa/75vPHW76LYm3l5Uxdyz21j72StSekal9JzzNa8l0T6lqFz+YNMUK59k+SlZaSnTK4WYP9+26ZhZ392pYNvqazaXCcEGIKItD7Zrrntf/XW1t3PnvpOuvb45dx4s2OS3fuu30ic/+cnicaaOtYothf7ax5tYu+A9KT2vXQr9uXeltOvDKf2HO5vp2jOrUFOw/czbh4Nt+jVijeGlxzUGW+H7aAl094E80EpLts2S6OiYmeNvMdg1ZPk7NbXdYmvo89Kkb3Km8/Tc+seA9us5iLCNQbABiGjLg02fs6avq70p2N57Q3PuPPhg+83f/M30h3/4h8XjjF8K1TVrmqTpzQfPv6oJNsWalkK1T8ujNl1TrD3tbdODbdp1YNOPWeuEbXe13cfY0PNM+x6LSwHmL+5XPCmiNEFTWPljvdK0zOsLNtE52q8lT2Jt4xBsACLa8mDTh+KudUn0lt+f3wTHYu2GG26YemG5KNbsTQYvfE9K73ywoVjb2caarluz7fVSaBVrawu2Koyya9bmE2xuGuaWRP1zd79PaRm0IPtZF4miSVEmfulbEzA9tinb0C9NV9jlUzgzFGzYHAQbgIi2PNj0xoG1vungj/54fm86eMtb3pIOHBgKoC5bCtUEzQebLYU+5x3NdWu2XdetWaw9dbXBlr1Ts3jMhGnB5vZPXMPW7tP2geco/wyTcbmV/CTLYiy/qN/22f2+d2qaoc9LszcnlPZhcxBsACLa8mDTr5vSx3roozpmvR0/cSLdeNMt6UjPlGMz+I/vuOCqcZjZUqhiTdet2fZRrL01pZ+qlJ7T5CGkx830ahxPGxts1bb2erbJj+5o9cVcIS63iiLMX2+m0Bq6/sxYdPmI8yz8SlM4vYO0b7kUm4NgAxDRlgeb6KM99GG4s9507Be++CfF59osnc9bq4Kt/ry1KtZsumYf4WHvCn16FWyKtZ+u/OTlw8E2UkeRX2JUZM267Dgl2Hyc5cHWft9du8rRNvgRHv55N5lCyUeU7vvlbS1jaslS9xVWCri+pc++SZyZNoXD1iHYAES0EMGmvzztV05petZ30z4d89E77iw+z2b6f+54Ir2gCjVN10ofjntepS/WLtrb/8G542nalChro0pTtiagVqEKKp2jELNz62ldO1Xrxlh73ZoFXbW/HHBm4AN/N4D+/45CTEuUmp755UjFmQWaPVZo2QRN15rpa+maRXs3Z77dKPSGgg5bh2ADENFCBJtomelzD36+/g0G993/QPrWt/SX6HdqeoPBZ6tt2vf5Lw4tAyIy/f+RfJlSsaWwsqVIH1l5sNm1ZzrGnkfnlKZptl3P67dj8RFsACJamGAzh6pQu/uee+sPxdXnrOmjO/RuUL3B4DBLUNua4ktTNMWWLXcqtGxCVgo2Pz1TfCnCfMSJpmmlKZvibtYPt8XiINgARLRwwQb0samXTcns+jObhGm/Dy89zt/NqfPyOMvDzuh8JmzLh2ADEBHBhoWiSMqXPTVFU3gpqizSFFk2KdOETJMwO85P0BRzek57rPvaZkugCjKdky+JYnkRbAAiItiwpWx50x4ryhRU+aRMYaXpmMWXTdgUWgo0+7gOHadz7bFiLn83p87R9zB9H4KL5USwAYiIYMOWsomX36aI08RMoaV9tiyp0LJQ01RMFFs2JfOTNB2n47VPz+H3ib6HtuXTPCw/gg1ARAQbNp1Cyk+1FFQKJ8WVpmWKL03IFG0Wa4orBZz26asFmM4TPZ9/Tj2PTen0/XQecbY9EGwAIiLYsCk0FbP4UkzZMqUiSsGmoBJFVz4NE0WX2GM9n03gLOx0vu1T8Plr2fS82lZ6bsRCsAGIiGDDhlEcKZQUUv76M5t+WXBZdNl5ijg9VmBZ2Bl7Pm1XmOk57Xo1fdX30X4fa8Yij0lbbAQbgIgINsyVjy2Fk+4rznyQKZy0TRMzHW8xp8farvMUZoou7fPPX5qS6XhN2HR+HnjYfgg2ABERbJgLizBFlmLLrkuzfTYFK1GU6Xh91bG23aLNH6vw03bd1/Mr0izw9Nh/X2xPBBuAiAg2rJnCyJY1FU0+trTdX3NmUzB77CnUFGb59Ezn5NM0PYe+n55f+/VV39cmcX3fA9sHwQYgIoINM8nDSWzCpUjKly7zqZomYLZM6kNOdK6eX7TfJmv5cxqb5JX2AQQbgIgINkylMFNsaZqlqLKpmp+o6bE/x7b569n0uBR+2m6TMX0vBZu2iaLNKNR0jMWdfw7AEGwAIiLYMCGPIcWURZrCSROy/Dox7VNo2TKmP97CLl/yFD3WcfbY4lATNN3Xfp2vxz4QgT4EG4CICDZMsIBSmNl0zEJM2zU1y8NL5+h47VOs6b6db8fYPn+etvnJmY7PjwFWg2ADEBHBts3ZFMse676mYrqviZYe6xgFmU3VFGJ6bNeR6RgLNjvWns/ftzcM2GNRCOr72HMq4Px+YLUINgAREWzblMJKwaVg8pGk+LKJl03HFFO2TdFlS5+i+zpH9+0YTchs+TIPNB2j59N9/Qw2TdNzsOSJeSDYAEREsG0zdj2aAsuuE/P7tc2uF7NgU2SJJm8WajZ501d7Xm3XNp1r8ZYHm48/YCMQbAAiIti2CUWUgksBZRMu8dMwUUwp1HSc9tkyprYpyHSMgk6TNTvHaJvFnUVdHmwKOv/9gXkj2ABERLAFpjiyZU/Fl4LKpmaicPKPRZElOtbCStGmr3oe3bdpmp2j57bzFGj6qu16Du2z44DNQLABiIhgC0zBpWDzkWXxpX3+cU4hp/Cy5VFt0+TMIk77bbvCzK6D0319FQVj3/MDG4VgAxARwbakVhNDOtYCyyZuNgmz5U3/XLqv/aL9Ol/bdV90X+GmgNOx+sq7O7EoCDYAERFsS0rhpFCyxxZfecQptrQsqfhSqCm0FG82KdPxdm2bfcitnWPPpefV82u/nadj9FjPpVizqAO2GsEGICKCbUkpvuxaMVFcWZj52FJI+aVM7fNTMkWXhZjkH/Gh76MJnO7ruQkzLDqCDUBEBNuC81HmtymkStsVXworsTAzijXtV4Bpv0Wf8ccq3Gy/Ik3HW/QBi4xgAxARwbaANB1TbCmYJJ9q2URM97XP4sovdfoI0zE2fdNxOl7fQ4+1T8ugOlePbRqn7f772sQOWHQEG4CICLYFoThSKFk42TJkfpy22eTLL4H6Y3XfP9ZzW4hpu4WYXyoVRZlizr/TE1g2BBuAiAi2LabplsJJ4WWhZvsUV9pmjxVaijVts0mZxVc+lRM7z9jz2TmKNX3v/DhgmRFsACIi2LaIXUdmy5uKKAWYD6j8saJMEzj7/DOdY1M5BZqe05Yu9dx+yib6XrYcqq86j2kaoiHYAEREsG0RRZfCyaZdosd+Aqag8kuW/jibyuXLoUYh5mPMwk739fw6z8IPiIRgAxARwbaFFEyajPlwUojZFExBZtv12B9XmqB5CjR/vp5z6HggCoINQEQE2wby07M+iihFm0LNL3HaPj22aZqfmGlCli9nKursOjZbJmWKhu2GYAMQEcE2BwolXR+m+4osxZRiqbScWaJQU5TpXN23pU591fbS81jo+cjTYwWbfh47Jj8PiI5gAxARwTYHtnypYOoLrGkUV5qY6Tn0XArAaRM6O7bvOjZgOyLYAEREsK2STcF0X8uNmmyJvQPTtiuibOrWR89j79ZUfCnY7Fo1PS6d4+n4fFkU2O4INgAREWyrZEuVCiVN0mz5UUuRCi+beNm1Y4oyCzwdq0BTjOmrtvdNx3QMUzNg9Qg2ABERbAUWWGJLlVrq9PstyBRtiiubtNm5NmWz8BILvVlCTMfp/NI+AP0INgAREWwZRZJiyZYqp12TpvjS5ExfdbzOVaTpvPUElwVeaR+AfgQbgIgItpYmY/ZuS4WSgk0hpm2KLy156jgLKVvK9MucouNtymbHabuf2s1Kz1/aDqAfwQYgom0fbLZ0adMxBZhCS5GmbfYxGXacjzTd1zbdV6jpTQbaZlM20f7S9wWwMQg2ABFt62DzEWahpUiz0PLb7HHpeURhp9DTsTZl0/F6XDoewMYg2ABEFD7YNA3zjxVSfolS+xVVmqgp4PRYkWZTNsWXhVsebNqm/bpvoaZz/HH6XvnPAGDjEGwAIgofbAovH0yalCm0/DHab7Gl8LLlTn21mJN8eVNTNVsy1ffRNp2npVFtUwAq2PLQA7BxCDYAEYULNoWSQkuBpceKLD3WfYWTwsq/AUChpiizCVoebjpW2xRhpXN1rM7NI1Ahp306xm8HsLEINgARhQk2hZoCSRMtxZItRSrCFF+2FKqpV+l8m4YpvOw8xZ7FnLYp2nyA6Rh7o4H2++cDsDUINgARhZqwKZzsviJL4ab7CjFNy+yxjtN+TczsHAWXHmu7Is3eZKDttk1xJvY9tF/b7TGArUewAYgo5DVsCikFl0JNjxVctjSqbYos3c+nYjZN0zRO+/XYL2ta1NnxOs6CD8BiINgARBQu2Oz6M0WWaKnTrj+zSVnfdWXa7oPOrldTqCn47Dny8wAsDoINQEThgk1h5YNMEzBFmyJMXxVhfdGmfYoyCzW/Xcfn2wEsHoINQEThgk1hpSmbQk3TMLvmTBMzxZzuW7TZGwb8+byzE1huBBuAiMIFm03JFGMKLy1xaknTtuurIk3b9CYEbfNTNe3LIw7A8iDYAEQU8k0H/s0EmrJpuqb7mp7psQLNRxmBBsRBsAGIKGSwebpuTaGm+zZRY8kTiItgAxDRtgg2u45NkzT7LDYAMRFsACIKG2yKM03WmKgB2wvBBiCisMGmNxEo1OzNBAC2B4INQEThl0QBbC8EG4CICDYAoRBsACIi2ACEQrABiIhgAxAKwQYgIoINQCgEG4CICDYAYejjfAg2ABERbACWmn4VnX793MGDB+vPXiTYAEREsAFYOv73BSvSFGzaps9eJNgARESwAVho+vVy/gOwdf+xxx6rlz9tm37lnCZs+kqwAYiIYAOwkCzSjhw5Uk/QbLuiTFM1eyw6VgF39OhRgg1ASAQbgIWi8FKk6fcAa5lTEzZNz2yfbffn2PVrLIkCiIpgA7AwfHhpWmaTNVsC1X7ts+MVbj7eDh06RLABCIlgA7CQFGgKNd1XvGnqpljT8qe+Kuw0bdMEzs7RMQQbgIgINgALxweZws3izZZKtc+HmtE2gg1ARAQbgIWiaZqWNhVpWu60WFOo2TKplkb9O0c9gg1ARAQbgIWiKZkmaPbYwk2hpgmbtmkCp2jL33wgBBuAiAg2AAtFkzNN0/yyqL25QPftOO3XY0Wcos62E2wAIiLYACwchZqFmH+3qLYr1LRd2xRxdl2bRRvBBiAigg3AQlOI6Zo23belUB9o4q9nI9gARESwAVh4thSqSNN9hVt+jCHYAEREsAFYaBZpum+fwZYf4xFsACIi2AAsJMWZPs5DpkWaR7ABiIhgA7CwSh/bMQ3BBiAigg1AKAQbgIgINgChEGwAIiLYAIRCsAGIiGADEArBBiAigg1AKAQbgIgINgChEGwAIiLYAIRCsAGIiGADEArBBiAigg1AKAQbgIgINgChEGwAIiLYAIRCsAGIiGADEArBBiAigg1AKAQbgIgINgChEGwAIiLYAIRCsAGIiGADEArBBiAigg1AKAQbgIgINgChEGwAIiLYAIRCsAGIiGADEArBBiAigg1AKAQbgIgINgChEGwAIiLYAIRCsAGIiGADEArBBiAigg1AKAQbgIgINgChEGwAIiLYAIRCsAGIiGADEArBBiAigg1AKAQbgIgINgChEGwAIiLYAIRCsAGIiGADEArBBiAigg1AKAQbgIgINgChEGwAIiLYAIRCsAGIiGADEArBBiAigg1AKAQbgIgINgChEGwAIiLYAIRCsAGIiGADEArBBiAigg1AKAQbgIgINgChEGwAIiLYAIRCsAGIiGADEArBBiAigg1AKAQbgIgINgChEGwAIiLYAIRCsAGIiGADEArBBiAigg1AKAQbgIgINgChEGwAIiLYAIRCsAGIiGADEArBBiAigg1AKAQbgIgINgChEGwAIiLYAIRCsAGIiGADEArBBiAigg1AKAQbgIgINgChEGwAIiLYAIRCsAGIiGADEArBBiAigg1AKAQbgIgItk1y6tSptLKyUtwHYH4INgAREWwbTKH22GOP1Y4cOVI8BsD8EGwAIiLYNtDZs2fTI488kk6ePFncD2D+CDYAERFsc6JJWr7t+PHj6eDBgxPbAWwcgg1ARATbHOjaNE3S8u1Hjx5Nx44dq++fOXOmDjiuYwM2FsEGICKCbZ00WVOslZY+FWuHDx+ut2v/oUOH6q/a5o8DMD8EG4CICLYZKczyZU9/jZreUJCHmCZqerOBQk3HapsFHte1ARuDYAMQEcE2AwszLXHm+yzibFnUwky0DKpttixqSnEHYD4INgAREWyOjy2/TW8c0KRM8ZXv97RfUzW/TdO1PM5sqdRvAzAfBBuAiAi2loWZpmJ+u6ZqmojZlG3oTQM6Nn9XaL4EqudX/LEkCmwMgg1ARARbS1FWWr70UzdNxYY+/NbiLI8+e9OBKS2tApgPgg1ARARbRRGmyZhCStOv0jFi4VVaOjX2PPl2naOgGzoXwPoRbAAi2lbBpuVMXVOWT8B03ZlCyt4kYG8kKNH+oeVMe2doaR+AjUewAYgodLApvPIlTpuS9UWZJmRDy57ap+gr7RNFH0uewNYh2ABEFDbYNDHTpKs07Rpa2rR9+XbTd50agMVAsAGIKGSwKaY0KdObBBRXpXd2al/pozUUcX3nGEVg/vEdABYDwQYgoqUONi13Kq7EL0NqCmbLmn3v7LQwKy2N6vhSzBmdw4QNWEwEG4CIljbYFGiaoime7LcMlK4dG1r+VJiVzrHnK50DYLERbAAiWopg0zRLS5D+Yn8FlV+2tMjKJ182SSu9s1Pn9L2j02KwtA/A4iLYAES0sMGm0FJkKdIUXAoofbX9up8HVd87PPuWOC3m8u0AlhfBBiCihQw2Tcks0jRZ02NNw/IJW37hf987PBV22l667oxgA2Ih2ABEtBDBptDyy5uST8/0BgM/PSu9y9MmZqWlzL53dhJsQCwEG4CItjzYbPpVWsr09OYA/yG4fW8m0FQu/7Bc0fn5B95q4tZ3DRuA5USwAYho04ItDyuxWNOkrBRfnmIrDzHFVr5Nx5UmaaXnVvSVjgWwvAg2ABFtSrApljT5yq8hUywpmnRfwWb3S0rBZu8MtSVQC8DStWoAtgeCDUBEmxJsWu5USJWWKo2OyZcsvVKwiZY69dz2LtKh6AMQH8EGIKK5BpsmXAoo/wYChZhiStuHrhebNh3rCzbROTp/aEkVwPZAsAGIaG7BpjBTkOXBpmVPhZSiSkFmy5clfe/klKFgAwBDsAGIaM3B5sNLy5CKrWkTLk3aht4NqiDrm8IpBId+vycACMEGIKI1BZsCTQFljzX9muXdljpPU7bSPhmawvFGAgCzINgARDQYbIokhZimXn45UlMyf3G/Jmd2DZmO7ws47VeQ5R+S6+m5WPoEsFYEG4CIeoNN0aW40iRN/FKm9vkpmF1fZkueOl7nlpYwtX9oaZM3DgBYD4INQER1sCmwfIDpvuLLJmGKMT/1yoNNEZZP4bS/tLxpn51GmAGYN70WEWwAIqqDzd40oHCzJUlts6laHmyakPnHFmF5nPUtb2p7fiwArIddI0uwAYhoh641U0ApwizSFFN2vZm+apsPL52TL2ta8Pltel5/rRsArFdpOm+xptcmgg1ARDsUYv5NAAovvdlAL4oWcQo4LYPaZMzezelfOG3KphdMHaPnzY8BgPXQa09++YXo9cem9gQbgIh26EVOYWWTMN23a9IUXwo1O1jHaLvu2xsNbJ/oRVP79RyKPXsBBYC1sAl/vk3/eMy3G4INQESja9gUYIotvQj6iZviy38Gml4o7V+z2keUAdgo+odf/hokijb7R6XfLgQbgIh2KNRE0WbLl4owhZv969a/KCrY7LG+6rGdBwCrpdcPveb41xF77dHri8Isvz5W7B+NecwRbAAi2mEvknrR04uiXhz1r1qLOL0oapuWP/U1DzTbzqQNwGrpNUbRZfTY9uk1SK81+oehXmP8eUavVXnMEWwAIqqXRO1fqn7KpmVPvRjqvl4s9aLpl0o9ne9faAGgxP9jz1537B97Fm/5P/70j8nSdrHrZv02gg1ARKPfdKAXvXxpQS+S2qZYKy1JAMAsFFZa4vThpem8pmj+OJvu+22ibTo/3y55zBFsACIaBZuCTC+geuHTC6MCziZrtlzqTwSAIXotscssFFW6b/8I1P5SsOmcPMDEpm9+m9FzEGwAohsFmy076F+4tjSqbfkLJwDMQqGmf/zZpRT2GmP7+yJM18nm/0DU65GOLV16QbAB2A7qz2GzFzu9UBJoAFZLQdW3ZGn02qLXGHtsAZdfG6vJmz/O6PntulqPYAOwHezQC6aWPUs7AWAWCim9lthyZ4mmY/kSqB7noaf4Kk3eFHal7drm38xAsAGIaLQkCgBD7DKJfJuCSxMxLYEOXes66zVrpXd+Gh9mop8n/wcnwQYgIoINwEwUZaVpvCJMIaV9faElpWATTefscgwFmO7r2Py4WRFsACIi2ABMpSmaJmFDQWbXpPlpmdcXbDal07my3nekE2wAIiLYAIzYdWb+4n57E0Bp+TKnc/Nr0kxfsM0bwQYgIoINQM2uRVO0+SjTfbt2TPuHJmB9H9UhFn6lffNEsAGIiGADtil/nZhNz/KL+nO6Tq0vyETna3/p89L0PZiwAcDaEGzANqCQ8u/wzONJ8da3lOlZkOWfnebpeUqfl7ZZCDYAERFsQGAKK7ug379hQJMyv7Sp+6Igs+PtujU7xijGhuKu7/PSNgvBBiAigg0ISmGlSLNr0vz1Y5qo+SVR3bc3G+i+jtd9hVf+2WsWZEPLp0P7NhrBBiAigg0IwC9pKpY0QRPbVloC9RM2i7B8cqbgK73JQMeWrlNbBAQbgIgINiAAu7ZMUabIUqzZNn3Ng02x5R+Ljs3jzCZvfpvo+UvLpYuAYAMQEcEGLDFFk6ZiNgnTY0WWaL+WNRVnCiyFl0WWfcitX7rUOXoev03PXZqwLTKCDUBEBBuwJBRcFmW2TUuZCjLFloWWIk3bFWXarsfaruP8Eqd95po9l87XNrHlVEVdfg3boiPYAEREsAELSmHmlyP1WLGlAFNE2bKn9imudKxFl8JMX3WOjy7t1z5tt4Cz57f9ijyLw2WLNSHYAEREsAELRIFkEzTdV2zZPsWUIsvevalIs2DTdgs1BZcPLR2nuLPH2q9tum9hZvsiINgARESwAQvEplv2WGHmlydtudOfo+DSfgs9CzsFnL5qu+7bPj2HBZse63l1nD3fsiPYAEREsAFbSPGlgLIpl4LNJmTappiy8LJpmp1ngea36bnsOjWFnh5rn23T89nSqZ2n76XvoYjz25cVwQYgIoIN2GQKLZuYKaQsqkSRZdsVbgopCzN99RHnJ3Gic/JJmY5VhNkyqF8qzeUBuKwINgAREWzAJlAoKYgUVYoohZdCyrblx9ljRZlCS8f4SZstk9pxYlM1e2yTM23Tff99IiPYAEREsAEbRGGlwLJlSoWTtim0fFhpX990S8Gm6FKM+e16znyaZvGn7TpP93Weztd+iz1/TkQEG4CICDZggyiUbOnTb8+najYt0zVo+RsKFF7aZpM2BZemZbbU6Y8V+54+AHW8PyY6gg1ARAQbsE5+2mVTNT/9Umzl0WRTNbGoU2zlweanb7oOTcdpm57Tzhc7L//e2xHBBiAigg1YJwWTQsrCK59wWVwpqvRVUadtFl8KMT3OY03H6Ri/TdM4WyLVObqvY/wbF7Y7gg1ARAQbsAoKJYsxfdVjCyZNtkrLlBZn+qqY01e7rs2O0bl5dCngFGT+GD2Pj0FMItgARESwAQPyAFNkaXnTJl36qgCzNxHYdh9VemzLlAoue06/3GnTNP/9FHeavmmb7vvj0Y9gAxARwQYUKMoUSX7CJYoqfVU4WVxpm79GzSZqPtLsefSctl3H+QDz+yzg9Lz2Tk8fc+hHsAGIiGADHAWULVdaPBnFk4WXTbts2dLCSpGlENN2fdWxmpLZZE7n2PY82PIlUB+BmB3BBiAigg2oKM4USz6i9NVHm0WYvVtT2xR3ui9aDtU+TcrsHGP7FGE2OdP388EmCjsmaetDsAGIiGDDtmVTMUWShZcFlKLJpmh2vOJN2xRkNiXT+RZ7OtaWMu0cbdP3sVDTcYo3bddj4mz+CDYAERFs2JYUTIovxZOiSRGmCZj26bECzh7nbFqm+woxfdVj26ZzbTKnYxV1up9P72w75otgAxARwYZtT3GlyLKJmyZfeqyo0r58CqZ9NpmzSPPXrNnz6b6ew7Zb3GFjEWwAIiLYEI5NyPy2vlhSUCnQFFWi87RsqefQPj3Wfk3g9Fjn2PH2WF8VaRZmdozOsSmebcfGI9gARESwIRwFko8nu35M8WWRZfwbDcRiTRRhCi6dp4ma9tnz6asdr+MUZz7MdExpOoeNR7ABiIhgQziKKC1R+m0KJ1vu9NMxo8eKM4svHafjFV55dNlz6Xidp3N0PHG2GAg2ABERbFhKCjK/TGksvPJtPsJ03ZlNy2y/9olNzPQcijXbp+06T49Fz2OBpvvaZs+HrUWwAYiIYMPSsFBSTCmgtASZT7U0PbOlSAsvi7C+CZj26zw/ldP3EXtsgcgkbfERbAAiItiw0DTlUpgpqhRfiii7hkzb7b4oqhRUFlb5BM6iS89l2zyLPd3XefmkDsuBYAMQEcGGhWPTMf8OTYWaDy0dk0+79FiRpaVL2+6nchZkuu+naaLt9vwWiXo+fwyWA8EGICKCDQtHgaVYs2mXWKDZRM0HllGc6bh8KpdP4hR0ikB7bM9t5+u8fDqH5UGwAYiIYMPC8pMyUURpm+7nQecp0kof4WEUb346Z0ul+XFYTgQbgIgINiwkxZQiSmFly5f6qhjTfe3TMYovRZy2W4BpQtcXYBZnet6+4MNyI9gARESwYcPZUqPu66tCScuU+XElOldxZZM1W7q0JVE9VqD5aZqd4x/bdWw2mdP3J9hiItgARESwYcMprOy6MUVTHljTKPJ0vE3YFGN6Lpu8ldh1aPoq+XVsiItgAxARwYYN4ydbiiYLLAXYaiZstoSpd3kq/Pz0rI+eX993NWGIGAg2ABERbJgbu3ZMkaRgso/RUKjZfS1J2pSt9Bw2SdN9RZ6Ozadj2jY0XRMdP2sUIhaCDUBEBBvWLZ+cKajsmjU/IbOY88fadWR+Emfb+pYwdZ7Cr7QPINgARESwYWaKLYspCzGbllmgeRZWCjpbxvRTNi1vWpTp2FmvMdNxer7S9wQINgAREWyYmYWXYkuxpseKJ788qQizKZrRY3+eHmuJ1AJw1lDz9DxrOQ/xEWwAIiLYMEhTLEWVlioVWYouPbZt9jEZOk4BZUubtt3u24RNFHg6V9t0POGFeSLYAEREsKFIEWVLl7ZcqdDSY4WW32bH+UmbBZx91Tm2hKqvFnP+ewLzQLABiIhgQ4df0tRXUWBpIqZpmKLMx5e26RhFmX8eO1f3bRqXX+umbXYMMC8EG4CICLZtTJMxH0y6rxjzUWWRpiBTzNmETNt0vO7rHD2XnWPPpSVU3dc+RZueS+fb99TziT8PWC+CDUBEBNs2Y+Gl+1rWVHDZPk28FFb2WOFm0zH7HDXFVincFG1+yqZtOs+WQy0CtV0Ucdrul1GBeSDYAEREsG0Tii1704BCyqZmiibtV4TZRMxov6JOgZWHm/bZcxod68+3IPNRKIo3Qg0bhWADEBHBtk1YeOm+QssiSpMum5j5KZj26zg91nbFl7ZbgOl4/8YDBZuCTscbi0FgMxFsACIi2LYhhZdiypY8FW0KLws3hZdizAJObAnT3mQgdk2abbOos3MUcXpeewxsBoINQEQE2zaiSZgCSyGlKZniSmGm0NJ2sevbcrb8qeN1nM63ZU0LvzzYgK1AsAGIiGDbRhRbmobZY8WVwstCTOGl6ZotheYUZAo6P3kTCzhiDYuAYAMQEcG2jSioFFd2X5Gl+5qU2fVnFm3aly9napvCzm8DFg3BBiAigm2bsaVPXZOmMLNlTW2zQFPMaRKniZqmbzY501c9tucCFhHBBiAigm2bUaBZmGnp06ZsCjTRY7uOzd6IkC+BAouMYAMQEcG2jSnI/BKpJmqauhFoWGYEG4CICLZtTpGmrwo2xRuxhmVHsAGIiGDbhhRl9jEd9mYDIAqCDUBEBNs2pWvVFG1M1BANwQYgIoINQCgEG4CICDYAoRBsACIi2ACEQrABiIhgAxAKwQYgIoINQCgEG4CICDYAoRBsACIi2ACEQrABiIhgAxAKwQYgIoINQCgEG4CICDYAoRBsACIi2ACEQrABiIhgAxAKwQYgIoINQCgEG4CICDYAoRBsACIi2ACEQrABiIhgAxAKwQYgIoINQCgEG4CICDYAoRBsACIi2ACEQrABiIhgAxAKwQYgIoINQCgEG4CICDYAoRBsACIi2ACEQrABiIhgAxAKwQYgIoINQCgEG4CICDYAoRBsACIi2ACEQrABiIhgAxAKwQYgIoINQCgEG4CICDYAoRBsACIi2ACEQrABiIhgAxAKwQYgIoINQCgEG4CICDYAoRBsACIi2ACEQrABiIhgAxAKwQYgIoINQCgEG4CICDYAoRBsACIi2ACEQrABiIhgAxAKwQYgIoINQCgEG4CICDYAoRBsACIi2ACEQrABiIhgAxAKwQYgIoINQCgEG4CICDYAoRBsACIi2ACEQrABiIhgAxAKwQYgIoINQCgEG4CICDYAoRBsACIi2ACEQrABiIhgAxAKwQYgIoINQCgEG4CICDYAoRBsACIi2ACEQrABiIhgAxAKwQYgIoINQCgEG4CICDYAoRBsACIi2ACEQrABiIhgAxAKwQYgIoINQCgEG4CICDYAoRBsACIi2ACEQrABiIhgAxAKwQYgIoINQCgEG4CICDYAoRBsACIi2ACEQrABiIhgAxAKwQYgIoINQCgEG4CICDYAoRBsACIi2ACEQrABiIhgAxAKwQYgIoINQCgEG4CICDYAoRBsACIi2ACEQrABiIhgAxAKwQYgIoINQCgEG4CICDYAoRBsACIi2ACEQrABiIhgAxAKwQYgIoINQCgEG4CICDYAoRBsACIi2ACEQrABiIhgAxAKwQYgIoINQCgEG4CICDZsqZMnT6ZDhw6lw4cPF/cDq0WwAYiIYMOWOXLkSDp48GAdbadOnSoeA6wWwQYgIoINW0KB9sgjj6SzZ88W9wNrRbABiIhgw4ZSkGmSlm8/duxYcTuwXgQbgIgINmwoXZumSdqZM2c6248ePVqzoNMxWh5laRTrRbABiIhgw1zkS5sWYoqwxx57rI4zv18TNnuzge4r1PriDlgNgg1ARAQb1k1vGigtbyrIFG7Hjx+vo83vW1lZqeMsP68Ud8BqEGwAIiLYsC725gHJp2xGEzPtz5c7ta1v8ua3AatBsAGIiGDDTDRFy7dZrGmCpq+lY4wiLJ+mKc40UfOhp2OYsGE9CDYAERFsmMrCTMuYfrsmZxZpCq2hD7/VcXoOv02hpmvcRNGn59AxXMOG9SDYAEREsGGQxZomYUNBZtek9cWW4kz78ymcttsyqCZrxBrWi2ADEBHBhppCScGUX4dmv4nAgizf7ynqNCkr7ZNpUzhgHgg2ABERbNtY/iYAuxbNb/eBVpqQeQo+BV5pn1j0lfYB80KwAYiIYNumFFelaZdda1ZamtSEbCjIdE4efLmhCR0wDwQbgIgItm3IoqwvzBRzpY/WsOvZhq4zU9Dp/NI+YDMQbAAiItgCU5jZbxGwbRZd+tp3zZmmYNpXWv7Udj1nvt3o+Qg2bCWCDUBEBFtACi5NukSTMgWaxZf2WcANXXOmKCstmSrIFG35dmBREGwYctuXzqQfe9vx9NfeeCx9z5uOp7/+pmPpv/tPx9P3/ufj6b+X/3I8fV/rb+4+kf7W78jx9KQ3n0h/57IT6e++5UT6e62/v+dk+v7LT6QfeOvJ9OTKU952Mv1g5R+8vfFDV6ykf3hl5YqT6UfesZJ+tPJj71xJ/+hdlerr//DuU5WV9JNXnar91HtOpZ+uPPXqxtOvOZ1+5lo5lZ7x3tPpZ687nZ55/el0XuvZN5ypnE7PvfFMeu77zqSdNzXOf/+Z9LzK83/3bLqgdia94Oaz6edvOZte9HuNF1de8oFz6cLfP5teeuu59OqPnEt/9I3yn9mQEydOpEcffTR94xvfgKM/E/3ZlP7M1opgC0AB5qde+ZKmvZkgX8r00za/Xex6tPyas1muUwO2EsGGIT/61uPpu99wzAWbRduxUbT9DQVbFWt/c7ei7Xj621WsySjaKuNgO5l+QNFWeYqiraJo+6G3r1TBdjL9cEXR9iPSBptFWxNsp9JPVNH2E1et1MFWR1sVa0+rYu1p1yjaTtXRVgdb5ZmKtooF23OqWHvOjYq20+nnqmiT86toe977z7bRdiZdUMWagu2FVbBZtL34A1Ww/b6CrY22yv9aRVvpz2yIwuT06dOJW/emPxP92ZT+zNaKYFtSCidFmqZdCiixfYq1fNlS2/SmAb9Nhq4503OXwkzv9uTNA1hUBBuG/NXfPlYH23dXwVZHW+Wv/6fj4ylbFWt1sLUTNgs2xdqT3ny8MGVTrCnamljzUzZN2BRto2C78uR4ylb58Sra5CcUbW7CZlM2RZsPtme891QdbTZhe5bccLqONk3ZFGudKdvvnu0E2wtuPlNH22jKpmirKNo0ZXvZB8t/ZkM0TeJWvunPpvRntlYE25JRqCmyFGhastRSp6LKT9R0P48we6NBPmUbWuLU8zBJw7Ih2DDEgu2vvTFfFm0mbKJgG0VbuyRaR1sVa+MJ28nxlK2OthP1sqgo2CzafriKttGUrbMseqqONVsW1ZStXhataMLml0Wffm0TbYo1m7Kdd/2ZOthsWbSesrUTtjrY2mjTsqiizSZs9ZStDrZzbbA1EzZ5WRVtpT+zIQRb/41g24byaFJk+QlXfr1Z37VpCrb8jQR6Hm3X1MxvF4INy4hgwxAF23+bRZuWRTVh81O27/svJ9L31UuiTbBNRJsmbFWs/f3qa70s2saaBds/ePvKaMqmYBNN2RRsFm0/7qJNE7ZRsNUTttNZsLXXsbloe5aLtvo6NjdlO3+0JNpO2bJoayZsTbTZhE1Kf2ZDCLb+G8G2zSi+pv12AAWbXwJVfJWmaXqe0rJo33ZFH8GGZUOwYUgdbFWsiU3Yvqd944G/js2uZfPLorY0qgmbv45tvCzavY6tvCzavY7Nok3Bpinb6Do2tyyqa9nGy6KT17E1E7bmWja7js2mbLqW7flVuI2XRZsJm13LpgmbLYtqylb6MxtCsPXfCLZtxJYxS/HlaRKWX7NW+vgNPfZLp0aBV5q88W5QLCOCDUP8hK375oNxtFms+WDTu0X/dvZuUbuWbfRu0SrantxGmy2L1sH2/nPpq0fOpX98ZffdohZto2XResq2kv6Xzz2e0tfPjoLNrmPrvFtUwVZP2bJ3i7bRNhFs7btF/YRtfB3b+N2ipT+zIRsZbPsu2pF27Ci4aF97ROG276LqmPPTZV+uH6SLdlxU/b/tTfvcufsusuM25kawBaQpVj7J0mOFmr4qnLQM6vd7pWArXbOmKVrfGwxyCjbeWIBlRLBhyF95/benTNm6E7Ym2izYNGVz0eambLqO7RWfrkLL36pIe9XbT6ePtQ/Ht8fTu24uBFv1tfl4j7Ppruqouz5hUzYLtibabEm0NGUbLYtW6uvY6mhrg62esDXRpgmbWLDZlK30ZzZkoydsirZRY7XB9eXLzp+MuFGk6fbldNn5O9L52vDly9L5519WbaluPtiyeNuIG8EWjF1DloeUtlvE9V2TZkrBZtsVe4o37Z82qQMiINgw5K+8/tgo2Py7RcfXsbXLom2s5e8WnbiOrfX9VbTZsui/+8rj6cqbNGE7ld5x5PH0jvePl0X//VdT2v8xN2F755m0v/0Lfvrt8XT1B/0bDxo2ZfPLopqwNdeyTS6L1sHWTtjqKVvFPuKj9Gc2ZCuCrbrTnZzVgeYfd28KvDre/PkWcRt4I9iWWD610n2FmKJKMeWP9fy0rbS/L9j0/LYMqula3/lAJAQbhnxXO2GzaBtN2Npo09KovVtUU7bxh+h2l0VtyuavY9ObD77/8tPpjq+crpdFf/nhlL5aBVvfTeH2j951Jt159Dvpf7I3H9i7Rd11bPbmg6u/rWAbv/nAou1ZVazZx3t0rmPTlK0Otvbz2Npl0VG0VZpl0cWesHUmaXVwZYHmpmj18X2Ts02YqvkbwbaEFEqKpnySpvsKKYWV9ulaMn+ep7DrW87sCzZgOyLYMCQPtvJ1bOWP92iirRtsnevYFG0f/Yv2r+sq1j5zKv3gH1SPHz5dX8v2P973ePrYHc11bP/0s4+n/fvHy6I/3rmOrefjPeql0W6wDS6Ltkui/uM9/HVso2DThE3RtoBvOihP2HTXLYHmIabH9QSuWRrtBF8H17DB0RKkYiz/KA7xj/veqWmGPi9N5017JymwXRBsGPJdrz82uo7tr/72t7M3H5TfLdqdsDVTNsXa36mirfvmg5V0xeGqzz69kp5chdvDn66CzQVcftv/sZN1uK3m9vUHzoyuY5PusmjPu0VHU7bmOrYL2uvYXnjLmfGyaH0t22IGWyey2jAbLXNWt07UdW4Ktr4oG9o3nxvBtuAUaH4SppgaCjFjbxLIo84MTeE0wePaNKBBsGFIE2yVdsr23W84Xl/H9j1v1BsPJn9NlV8WbX6vaBNt4wnb+AN0X/6pJr5GwfaZU+kpCraHT9cf8dFM2JrfL/pPqvvNtWyn2t960PyaKvsQ3V/9ekp3fTxbFh298cD9qqrrz4yWRcdTttJ1bG2wjd58YO8WPeeWRct/ZkO2asI2XgbNr2erbqN9TNjgKLT8tWFamvTLk1qu9JE1dB2Zgiz/eA1v2hQOAMGGYX/5dd8eBZs+3qPWTti6bz44nr5XH/FRhVq9LNq+8cDefGDBVkdb5e+9ZSW9/fB30hWffryerDUTtpV6wqalUf1u0Vd9plkS9cE2+s0H+/8ife3+0811bFedSr/6tZTuvGulDjYp/m7R6xqja9nqKZv/EN3To2gb/W7RimLNX8dWv1u0nbKV/syGbFmw2YTssmw5tLqNp29M2LY9RZfCSYGla8v8cqQCzUeZ9ivCbIJmSuGm59T5+Xaj8BsKOgAEG4aNgs19vEf3OrbxtWzfWxkHWxNrFmz5Z7LZlO0Vn1KwjZdEf6GKtL6bD7b/oEDbP56yKdgmbt/+TvrF7DPZ/HVsNmV7zg3NZ7IVp2yV0bJo9bUOttGSaPnPbMjmBFs+KWtDS5O0fLpW3caRx4RtWyktNSq4tOypZcrSRM3HmB4rxBRuei6dY7GXL3/qPG1neRNYO4INQxRs3+WiTcHWiTZN2apQq98tqmj7z9mbD6pgs19Tpc9kG03Z2mizZVHdHv706XTlkZTu+GjzIbo2YdOvqfrHmrBV93+0irUfu/lcqvvsa2ea33pQRVszYWvfLdp584GWRqtoq2JNvwzeB1sTbePr2Mq/W7R540EzZTszmrDZmw9Kf2ZDNjLYFF6dsOpM2LQUuiOdf/752YTNT86YsG0rFlyKK0237J2d9kG2pWDzUzAdpwjzy6J2PVppWjbtQ3IBDCPYMOQvv+5YfR1bHW2/nb9bNPt4D03Y2uvYRsui7XVs/t2i9a+qctexabKm33zw5PdV//8x/UX65fY3HzTBpt8t2rxjdH91/8fecTq962hKX/3smfTu6ms6ei79z1mwiWKt+a0H+t2i4wlb6eM9ms9kGwebjH7rgV3H5j/eowo1u46t9Gc2ZKMnbJ2bBVv9LtDxUmkddvagM3Uj2LYVW8pUSGnpU1MwsXdsKtZ8YCno/JsONC0rxZnCzoee0XMzYQPWjmDDkL9UhVo9ZauirXmn6OR1bP63HtTXsVmwtRO2ZsrWxNroQ3QrmrA1S6PNr6n6d1/RdO1Eekr7a6rqYPvMufTV+q/zx9M7b15Jv1I9+OpnT1fh1ny8xz+9f8q7Rv/sbPc6tjzaKv7jPfSrqkbLonW0tcuiVbRZsNm1bIq20p/ZkE0Ptp6lTIu2+rcgjCZuk1HW/S0Jk8up87wRbHOmaZdfwjSKLkWZpmm23y93ap/u23KnTdD01WLO2DG2BGoTttL3BbA+BBuG/KXfUrA1EzZ9JptfFm0mbOMp2+g6tnxZtJ2w6To2WxZtgk0foDv+EN0feOvJ9OSKBZvo3aKasGlZ9B/qd4tWRm88qH8RfPPL4HUtmz6PTeo3Hlw9XhptpmztZ7JVxm880IStmbI9p/pqbz6YCLYq1sZLo35ZtPxnNmRTg23JbgTbHGiCZbGk+4opBZSfeGm/aKpmoaVjdLyO85M0HafnsMd5jOl87bcpnfYr4mw/gPkh2DBkFGxaFtV1bG7KZp/JZr9b1F/H1kTbifbNB92P9yi9+aD+EF0ti7bR1sTaSh1s+hDdH76y+XiPH5Eq2BRt+niP8Ud8KNqa33pg0fbUq0+Plkbzj/dQtNl1bKOP96h0rmOzd4rasmh9HdsSTdiW7EawzYGCy7+zUyzEtN1PyBRWCjFbGlV4aQlUQabHdpxNzex5NI2zfUbPoX0+5gDMF8GGIQq2JtqaZdH83aLNZ7LZdWztlK2KNXvzQf2ZbO2yqH2Irr+OzZZEm19T1cRaPWV764nRhK2ZsjUf71FP2doJWz1lq4PNfk3VeMrmf1XV0+op2/jdorYkOr6WrYq2+o0HZzrXsTXRZlO29t2i1Ve7jk1Kf2ZDCLb+G8G2RhZdum8TMbuvKFNsKdZ0jE3UtLxpAafzFWPabl/1HDpG90WRZtezaZ/izPYB2BwEG4b8N+2EbRRsVayNlkWr+1oWHb1bdHQt2/g6NrFfBl9P2apY8+8W1bLoKNraa9mefPn4OjbRhO2H2qXResLWLovWU7Z3nWp+VVUdbfarqlY67xa1z2SzCZveLWqfyVYvi7pr2crXsTWTNruOzS+Llv7MhhBs/TeCbRUUUxZX/t2bNh1TiNnEzI7z/DRMEafz9Tw6V9v1WLFn+2y7jtfz6THv+AQ2F8GGIT/4lmOjZdEm2mb/3aLjd4v6aMveLVpH23hZtA62esLWsAlbvSxq17G1sTaasinY3t3+1gM3YbN3i46uY6ujbfJ3i9oH6I6DLX+3aH4dW7Ms+s/3rT7YHn300XT69Ok2UbjZTX8m+rMp/ZmtVbhgUzBpGqYY828S0H1t11ft83ElCiw7z8LOtivKbMqmcxRhum/LoHrOfNom2m/f128HsHEINgzZ+9Dp9JTLqmirYs1P2SzY7M0Hijb/IbqKNdNM2Rqjd4tW/JsPFG3f76KtDrZ2wlYHW2t0HVul++aDZlnUos2CbbQsWsVad8rWTNiaYGumbD7a6iVRWxa1aHNTtn/24bPp7kfKf2ZDTpw4UYeJpkkY05+J/mxKf2ZrFSLYFEaKKEWTwkr3tZTpp1ualim8LKoUWv48m7TpPL+UaVFmj0URp++j+3pOH3gAthbBBiCipQ42xZcFlqZYFmG2TxGWn2N0rCi4/KRN5/jHou9hoadYU9jpXG0TTdH88QC2DsEGIKKlCzYFmSJLwaQpl4WU5NMu7Vdg2WNP5yv0FGMWeTpW2/Nj9ZwKOR2r59R5xs7LzwGwNQg2ABEtdLBZSOXbFFCKpHyylU/VNHXTY0VWvmxpYaZpmfaXlkM9HZ9P3gAsHoINQEQLG2wKMwspizQFlQ+v0jRM23SOhVoptPRY++yxxZ+O1XbdNxZwFol2DoDFRLABiGihJ2yKJYso/4YBo32aomm/IsyWShVadmzpmjSbptlj7bewU5TpqwJN3z8/F8BiI9gARLQwwaZg0lcFkkWY2IRN2/MlUp2jsNIxdv2a+GVR2+fPU6xpu+4r7Ox5/DEAlhPBBiCiLQk2CzB7rPsWWZpqKaY06VJI2TKkn6TZORZaej4LPvH37XnyxzrH3lnqfxYAy41gAxDRpgabIklBZpMz265g0jKm7iui9DV/A4Ee6zwFliJN5+ixLW36JVMfaOKvfdN5/ro0Yg2IhWADENFCX8MGAKtFsAGIiGADEArBBiAigg1AKAQbgIgINgChEGwAIiLYAIRCsAGIiGADEArBBiAigg1AKAQbgHjOpf8fun7A/vcFPfsAAAAASUVORK5CYII=;" vertex="1" parent="1">
          <mxGeometry x="-270" width="340" height="307.1" as="geometry" />
        </mxCell>
        <mxCell id="Hp60AGxop_6WqwKCzi6o-14" style="edgeStyle=orthogonalEdgeStyle;rounded=0;orthogonalLoop=1;jettySize=auto;html=1;" edge="1" parent="1" source="x-UZEwV3KDi1-HlXAOjM-26" target="Hp60AGxop_6WqwKCzi6o-12">
          <mxGeometry relative="1" as="geometry" />
        </mxCell>
        <mxCell id="Hp60AGxop_6WqwKCzi6o-16" value="" style="shape=image;verticalLabelPosition=bottom;labelBackgroundColor=default;verticalAlign=top;aspect=fixed;imageAspect=0;image=data:image/png,iVBORw0KGgoAAAANSUhEUgAAAmwAAAIwCAYAAAA72TepAAAAAXNSR0IArs4c6QAAAARnQU1BAACxjwv8YQUAAAAJcEhZcwAADsMAAA7DAcdvqGQAAFrzSURBVHhe7d0LsKR3ed/52cTJOs564yTkYoNjx3a8vgDGiItHIDAgbmaTym425QrrIlXJrFK7q01tXBVnHcuFbIOBJGPECJC4CEnogrBkLAY0AouRwItkCxBCAsbCIMCxkHYYZoa5nLlh6b/v733fp/t5//1/3+5zTp9zup/z7apPTvd76XM0xD3fef5v99lx7ty5BAAAgMVFsAEAACw4gg0AAGDBEWwAAAALjmADAABYcAQbAADAgiPYAAAAFhzBBgAAMGfHjp8obpehfX0INgAAgDk6eXIl/fpvvzl94cCXJvY99OWH0yWv/5107NjxiX1DCDYAAIA5+/LDX0+/9rrdnWhTrP3HatuffOkrnWNnQbABAABsAB9t64k1IdgAAAA2iEXbemJNCDYAAIANosmagi1fHl0tgg0AAGADWKxpsla6pm01CDYAAIA5K12ztp5oI9gAzMlDac+FF6d9bttDey5MT7p4X31/38VPShfueWi0r0vnXpj2PKT7+9LFT3pSelKfC/ekh6pz9Hyl/RdffPHomPFzD33vgof2pAvtOdufv4//bwQA0cd6vPYNlxWvWVO06SM/+FgPAFtnn4+lJpQu3tfsmz3YKnUwdeNPus/hn7/7verz25+jFFR9sTfSCb5hw/9dALarEydPFrfL0L4+BBuAuVLA1OHkp1RFTZBNxlMbaoo/F231cYXJWTHYTE/4ddjPuaYpWfN9CTYAG41gA7Ah8snT8CRK4eMmbKaOtjbkJoKqiSUfexfvm9w2lj2/hVppmjZzxLXLtyyJAthgBBuAuRhPysoTrdUGm3++i9v73fObOOufsCmmeqZrPgSLCvFYMpoiTpniAcA6EWwA5qiNpFHITDGaTBUmY4WpVX092mjflGCrf4ZZQ6qdlK3i2jWpo7L6WfR1YjkWAOaIYAMwR5NTLR8zpSnbeJLWM9XSNKy45DgZeRfvmRKK2fOMv/fkz1z+np7+W9ufWXG4ytgDgNUg2ADMUR5s3cmXD7buuzd1nAXbZIh1dY/rnbC1y56lyddoUjeD0vmSR53/bwOAeSPYAMyRD7Y2vNzkyUdNN3B8sGWmTNgUVJ0Aa4/V89cTt1knX/o+E8cWQlDqGMyXW93ErbMdANaPYAMwP6OQUbx0J1Dj/W1YdeJmHGwzTb+qsNqjCVf7+MI9+7ph5eKrf/LV/Ix955QjsT3Onzexj2gDMH8EG4D5qGOlijX7Wjqm11ombJ6bhE1EU7PPP4dFYSe6dJ6bsNXRlh3TnDclyOrvz/IogPki2ADMxb6LXcis4l2i44laT+StJtj0a6mKzzOOtjrECmEmk5E1nsLl5w3rmTACwBoRbAAAAAuOYAMAAFhwBBsAAMCCI9gAAAAWHMEGAACw4Ag2AACABUewAQAALDiCDQAAYMERbAAAAAuOYAMAAFhwBBsAAMCCI9gAAAAWHMEGAACw4HY8/F8fTQAAAFhcTNgAhKIXttJ2AFhmBBuAUAg2ABERbABCIdgARESwAQiFYAMQEcEGIBSCDUBEBBuAUAg2ABERbABCIdgARESwAQiFYAMQEcEGIBSCDUBEBBuAUAg2ABERbABCIdgARESwAQiFYAMQ0bqDTbfPffFLALBuupVeZ1aDYAMQ0bqDzV5kuXHjxm29N72elF5nVoNgAxARwcaNG7eFuRFsAFBGsHHjxm1hbgQbAJQRbNy4cVuYG8EGAGUEGzdu3BbmRrABQNnyB9uj+9KvXLIvfaN9mNJj6dZLLkq/csVV2fah2/3p8tdclT7VPuLGjdvW3Ag2ACjb1GB74okn0t7bPpp+9bWvT//yon9bf9VjbV/zzQfbfVelX3xNFWt7H2u3X5Uur+JN235xFGSKM9s2DRHHjdtm3hYr2B5N+/dcki65ZBZ70v5H/Xk3pQfdcz26f0+65KYH6/sP3nRJ2rO/72fUufZcD6abit+rtWd/ejQ7X889sf3BmybOHX//5nvc9KA7Pzt2pPD9AGyeTQs2RdlvvmF3etPvXJ4e/trX05kzZ+qveqzta4m2T13h4+o30q17r2piTbfO5E1Tt6H4YsLGjdsi3JZzwqbo8cFWUSSNAqcJPx9FswVb5dH9ac8l3fgT/xx1DJYCq1adq5+ljcX8Z2l0o62o898DYCtsWrBpkqY4K920XfvXdCtM2OTyvc32T+39jXZbG2TumFlcfp9O4saN22bcwgRbRVFVR1AdXaWYMk2QTU632lCrJ2TjaKuPy+LJT/BqPvRcsHWPK8VbD4IN2HKbFmxa/tRErXTTdu1f0y0LtqkTNn9MddOUbhRldcz9Rrr10eZhZx83btw2/LZwwTZTqJSDzeQTtfxxVzZhM3W0tSHnw8wZP69+nnHgjYJtYlpHsAHLZNOCTdesaRm0dNN27V/TrQ2zW69olkRLU7JGtuRZmrSNAo8bN25bcYsQbONJmY+jsdUGm3++m9r74/Ob6BrF3ITqufY3wWZLp+NAI9iAZbLkE7bmHaGKrYlJWGfCNnRr3oRg52uq5idw3Lhx27zbQgbbRASV5FOxdso1dTm0lS1TlveNja5b65m2ddiETffrn8d+VoINWCZLfQ3brZf8Rrr1vnGYfWN0vdqkyQiz2Gsmb903MIy3c+PGbfNuESZs423dCZsmZRZHpSnbeJKWP1fLh9dqZOeNr2Mj2IBlsmnBNvQu0X/7738tHfzmofbIVd6ySZqirRtnmqCNr0trbqWP9igdQ7Rx47aZt+UMtpI82Lpx5INt8o0A3QlYZ9rWMf24+vvloacpW/3fRLABy2TTgk23vs9h++KffCnt+j9+OR146E/bI1dxKyx9jpY1tW8ixOzmQ07TtuZ+PaXjWjZu3LbktszB1g0vH2xtULnn8cHWnbb5YMvk4TVSCi+3LTuPCRuwnDY12IZuirb/7f9cQ7SVrlVzbygovcvTlk7H+8bBVt/sfMKNG7dNvS17sI3CS+fVwaZwq2ItD616v03CfKCNg60Oq9ExPeqfbZZg218/bs7rhiTBBiyHhQk23b556Ftp777Zr2UbXbN2xf3dd33qcXvrXJtWba8f2/56AtfuK8RZ51hu3Lht+G0hgy27Fq0sCySdM/O53jjYJvbV4dU/YZuIuco42GadzPXofQ4Am2Whgo0bN27b+7ZwwTYQQxPaoHnwJhdcq3iX6Hii1hN5qwovt22twabz3M84U9gB2DAEGzdu3BbmtnjBBgCLgWDjxo3bwtwINgAoI9i4ceO2MDeCDQDKCDZu3LgtzI1gA4CydQebvcgCwHrpVnqdWQ2CDUBE6w42AFgkBBuAiAg2AKEQbAAiItgAhEKwAYiIYAMQCsEGICKCDUAoBBuAiAg2AKEQbAAiItgAhEKwAYiIYAMQCsEGICKCDUAoBBuAiAg2AKEQbAAiItgAhEKwAYiIYAMQCsEGICKCDUAoBBuAiAg2AKEQbAAiItgAhEKwAYho3cH2b/Y+kX7y8jQXeq7S9wCAWRFsACJad7CVwms9St8DAGZFsAGIiGADEArBBiAigg1AKAQbgIiWONgOpN07d6bdB7rb9+7akXbt7W7LHdi9M+3cfcBt03PtSDt2dHWe58DutHPn7nSgfrw37dqxK+3tnD/5s3TNcswk/aw7Ot93+n8fsJ0RbAAimnuwHT2dirfXfKB7XJ/S9yhRmCm66qDJQivXjbP+YBuHkMLIx5XFVrW9jicLNvd4FFV91hBsisTOz5EHHIAcwQYgorkHW9/tU490j+tT+h45xdqOXXt79xUnUHt3FWNOdu7e2w02HTuKIh9zCrXsfB1Xh1W2zX/vms5dTbA13yuPTft5JrcDEIINQESbFmylm6Zx+fml79FRxZTFyoED1deBEGtMRtK0CVsn+qoY21UdOzTZGj+fj7JC3PWYDMzm5+mLUnvuyfMAEGwANsrRo0fT5z//+XTXXXel22+/vab72qZ9pXPmZUuDTbf8/NL3KLLlwt02DVPktNeVjaKuPNUaDLb6ef31aTIOpHq652LLpnPj75ef65+j/3nzbX1xONYe1xt1wPY072D7lT94ovaqG1J65XUpvaLysvem9NJrGy+p/Otbn0grp8vnA1h+Z8+eTQ888ED68Ic/nD70oQ8VaZ+O0bGl51iv5Qy2dgmyDp2ZJ2xt4BT3j4OttNxab+sLqHoCV9E5+rk6x+l7tt+/NwR3VufuHH3P0vcvnyvTJnHA9jPvYFOoyS9c38TayysvrYLtJdc0XnR1Sj9fefM9jxfPB7DcFGD33HNPMdJKdOxGRNvyBVsba6WlzllNWxKtlz8tgiwI2xDrTtjsZ2ime7v9eaXnmYi+Nuj29gWZND9b9+cF0GfewaZQk1dWXt5O1hRqL25ZsL3gPSk9/90pnd/aWXnuO1N6TuVZ70jpX936RK30PWbT94/OPn2vKZXi69EajF6PK9k/HIv/+PT/iO1sb18vOz+/zt/d/KM0394arU5k/6jtvMa3P2N3JQOYnaZmpTAbonNKz7UeSxdse3fp/9jt/+hnfAErvJAMBZt/vHdX9SLgXtzG5+qY8QuPhVz3BWS8fzISxf47BqIse2Gd/NkBePMONi2D+qXQC9tgU6jJC6tQq2PtqpSep1B7V8PH2nlXpvTMVul7rEfnH4YzaMKoG3N6XSkFjb2u9eqNvilhNhSLes3r/Pd0X2vr19bs/Pz1tfTfU/+3DH1foEDXpfll0Ntuuy194hOf6MSZ3HnnnfX1bPZY58z7mrYlvYat58Vg4F+NQy88E+8SrXReALJga46zF5HqXB1XCKvxi07fi5fbXvzZS+eNY3K8DYAJHWzZJEkmg63v9aZ57eiLu1LkdLSTqlni0P9M9f3sNTfnY0vHd3+OacGW7Z94DKyd3kzgw0yxdubMmc4Sqd50cPr06XTvvfd2jtW5pedcq6UPNr3INMHV/h+o/o/ZXlAK/xIrB8/ktuZ582Dzx+ln0IuNvm+zXS88ky947b7Si1zhxdfr/AzelPOA7WzewaZQ82800JsMbBlUFGwXtLGmpdCfq2JNFGvPbmPtZ69I6Rmt0vdYFb0euSDrBFv92lB4HcrOaYxft7yJc9vnLP5j2PZ1Xt+Gg3HyNdLTMflrm7a559P37Pws9lq8CqXXY6BAMeYjTBRrira77757FGv33XffxHHaV3rOtZp7sPV9cG7ptqaP9ag1Lwjji/Wz/4MWi6zO5Kp9gZr4P9b2hWR3++Ij/gXBnqMTSuMXpdELZr0/e2EZenGoX0TL4dV5Ea7UEzv72Uo/I4DavINNoVbHWsWuXVOwaaomF1R8rCnULNY0XXtmFWkKtp95e6P0PVbNva6NXyt6Qql+nSm8fhSjKpu09Z5rJp/D/0Ozft1qf87uP0ALr9nS+X722jgt2DLVcxT/oQusgV/m9Cza+mJNdG7pOddq7sG2XqXvMWnyhakUNN3/o23/FVaMpzbY+v7l17447p0Y1VfyFw97XL/w5C9I7c/glL5n/QI8w3HN9XyT24HtbKOCzZZCbapmwWZLoYo1Wwb1S6EWa097W6P0PdYj/8fdug0GUfsa1ru//UexvXa1P1fxZ6z/Qdv9B+s46vR92jdy2XOVTPwc2fefwGsmVqcv2GyypneDatJWOoZgA4AB8w42hZrYZM1iTcugthSaX7PmY+0Z7WRtvcFW+kfpVKNImhYypjzxH3/vycAqxmIVY7tnndJZdLXH+WBrvpfuzzhh0z69s7Qysb/9h3c5NIGy0pKoXwZVrNnyaOm40nOuFcEGIJR5B5umarYUml+z1lkKrSLNlkFtKVTXrFmsPbVV+h7rMduELVtWLClMvErT/j6jVYD6ecbbRysdLpjGk7Tmvs7VioEucykHm/u5BoJttOpQfa/R963pOQZWUYAe+ZsO9G7QfBnUX9Pmj134Nx2sV+l7AMCsCLaStQVbUXFS1UzwFERN5BWeR+e1P6cPNk/nTgRb/v36gs09v4z/XJqfrfT9gGnyj/X4yEc+MvFuUFGs3XHHHaPHC/mxHv9m7xPF8FoLPVfpewDArOYdbPbxHYo1WwrVdWsKNYs1LYf6NxnUseaWQp/61pR+qlX6Huux8cGWTadcQPUuidaaUGqOHQed9nWCzYXWZLB1z6sVgy2bwrWaeOyJtfq/t33uvvv5OdiWwnxwLgAsko0ONos1+7w1m64p1uy6NfsYj6dXwaZY++mK/cO09D3WY/ZgGy9T9utGjwVPJ16yiVcdbf6YNnjGF/i339v9jD7Y/M9v389+ll167jzOJoItX+50/60uFiemfgQbZhTmV1OZU6dO1eO/lZWV4n4A2AzzDraLb3ui9oIq1DRdq2Otoqla58NxKxZqpVj7Fzc/USt9j/WYPdhWN2GrQ6wQZjI5sbJo0vdxYaS4K8VPu93Yfv23jJ+7PDXLg20Uf6Pn7PvvbH7G+pipf15AlwJMUzO/PJrTPh2zEbEmcwm2I0eOpMcee4xgA7Dl5h1sAGDUOXozgd4Bqo/tEN3Xtnlfs5Zbd7CdPHmyjrWNKkoAWA2CDUBEMwebljyPHTs2sf3QoUPp+PHjE9sBYCsQbAAiminYND3TFE3yfQcPHqxjTsco3Ag4AFuJYAMQ0USw5Uub+jA4Rdnhw4fTI488MnGNmgJNkzcdo2vZtIar43S8Pw4ANgPBBiCiHX/2jUMJAKIg2ABERLABCIVgAxARwQYgFIINQEQEG4BQCDYAERFsAEIh2ABERLABCIVgAxDRwgXbgT/9Wtp/1yfT+2/+/XTNde+r/e4tt6Y7P353te/rxXMAwBBsACJamGD72p//f+n2Oz6e3nvD+9PnHvxCOnJk/Du5dP/+Bz5f7/voxz5RHXuw+BwAQLABiGghgk2x9oG9+9LtH/1YOrmykvpuJ06eTLfd/gfp1g/dnr7+yDeLz7VZ/u/bzqVX3ZDSK69L6RWVl703pZdem9JLKv/ylu+kh//8W8XzVuOaX9qRXn1dtv2616Qdv3RTd5vziUufnc679N7xtup4Pdb2Hee9Ln3CHbsWE89fmfw5b0qv3vGadM3o8b3ptec9O7327vEx9jyl56vd/bp03o4daccUE38+257+7Lt/1tsNwQYgooUINk3WFGuz3hRtd997X/G5Noti7Reub2Lt5ZWXVsH2kmtSetHVKf185XX7TxXPW61ODCnWitGlv6QLQaNj22AbPr+rjrtOcHX3rTrY8sisY2y8vximOmbKz6qfZX7BlkdmSz979udaDMxK8+c2jqXmcfdcM/65s//tJmJ82v5cz39Hn/q/bxXHLwGCDUBEWx5sX/zSV+ulzqHJWn7TpO36G29OD33lz4rPuRkUa6+svNwma1WsvdgF2wvek9Lz353S+ZWdlee+M6XnVJ71jpR+6eZzxeccWcd0aSKo8liaZkrUDUVIl0WApmvNfYWZfjZ9LZ9TsZ91Eyds4/+mnmCbIXLHYTVlutV5Pv3Z+ABc7eOCLIZnUf/3r+b/jyw4gg1ARFsebB+78/+tr09b7e2zn3uwfiNC6TnX4tJLL00fuu0jxX0lfin0wjbYFGsvrEKtjrWrUnqeYu1d3Vg778qUnlkpPefIDNOl8VSq+Us8D5lBvc+t6JhlOa07xakDrO85q0CpA6P9b7qmjaPOhKl07gx/BgqN9QZb/bMrVnpCZ9aYaf4Mqlge/PPL/nwVb/n39D/HtP0l9Tmz/G/ozfq/+3Ig2ABEtOXBpneD6k0Fq70dPnwkvf+WW4vPuRaXXHJJ7Y1vfFP67IMHisd4+XVrNllTsF3Qxpqmaz9XBZti7dltrP3sFSk9o1J6zpEZYmUcbPn27C9ePdes0xP9ZT/DsbNO2RRqdcjUj6uf67rmv+u1o22TRtOjOkzKx3jzmLDVekJopmCzc+uv/eEz8Vy9QdY+x7T9fnvL/rwHp3AFOm+15ywqgg1ARFsebFe/98b6B1nt7dy576Rrrrux+JxrYcEmv/7rv56uuvra4nGmjrX2ujVbCtVk7YJKKdY0XXtmFWoKtp95+wzBloVJSTlWbkqv9lGg57L4UwAMhOBMf2mXgsF/j5Jq/6vd83Zjs2fCNoN5TNhG6v+uyWAbB2drIt6aCWf9c5T+bExxnyZb3T/z5vvZcdP259pJWRvGq/kznXWSuAwINgARbXmw6XPW9IOs9qZgu/b69xWfcy3yYHv3VVcXjzN+KdQma34pVLGWL4VarD3tbfOdsA1NvM67tIqlOkRcWGTPZbohVdIEwXkzLcG66Mj+W7rfZ3K/0X9XHivDP9869ARbVxNQPmzqgLLHA8HWOa6jfc7Wq69r/ozHzzFtv+OCfNV/VjNOV5cBwQYgoi0PNn0o7lqXRH/39z5YfM61sFh7wxvflO773BeLx3iKNZusWazZUmjpurV6KbSKtZmCLTPz9KMYegq16i/4S4enazLtL/lmubV9Ph8MA4HZjcnmvDpeXIR4o0Cr46d8TFdPvKzWTMFW8cuU+cSyN9gGIis37efo3d+E3eh/vynT1AkEGwAstC0PNr1xYK1vOrjrE/N708FrX3tp+uDefcV9JbYU2nvdWhVqfilU161ZrD11SrBZOHUmTJ2/gBVN3b+0mzDStmaSZkFjzzNL2Oj7+olWWff5+/V/v24YVqExERZZfLSmBeW6rCbY6p93yp+Di5/6z3/GeKqPHQinvv11BGfbZ/vfszHt+y4Tgg1ARFsebPp1U/pYD31Ux6y34ydOpBved0v606/+efE5N4P/+A7FmpZCLdY0XevEmpusPfWtKf1UpfScNRcO+kt08i/cdlqj65RcoI2XPtvjFBZ1NDXxMwoGPX9fPMw0ZdH3y2Js6DlrLm6q558WbM1/902zheHQ963/LKeHaq0YbPema67zf/7Nn2VvBBW/n/3vM0M4jf43K+wb2F/HVjE2y+Fbspq4W3QEG4CItjzYRL9uSh+GO+tNx/7xp+8vPtdm8cFmsaalUJuudZZCK0+vgk2x9tOVn7y8P9j0l7v9BVsMNh9HncDSX86vSa/VX96jiBn/hW2RVI5A0zzH8JRpymTJ0fdpYqIbGfU0qHB8bSDAuqE3g5kCtFUMNouh8c83GDXFYBuKpvzPcjIYh/fbn+XQ/2bN9x+OMR0zEIpLhmADENFCBJt+N6h+3ZRCTNOzvpv26ZgP77uj+Dyb6aJbz6UXVKGm6Voda5XOdWuVvlj7ZzdO+eBcUweA/wu7UfzLvz12/BdzHl/NX9yDE5xKHSiDkaOIWN9f7tPCK4+kqXp+3lUH3pKpY21owjjShl/Pn9P0/82XC8EGIKKFCDbR7wb95B9/pv4NBvfd/0D61rcOVz/gd2p6g8Fnq23a90dbPFnbDuoQCPQXOAbUy6xDE7rlQ7ABiGhhgs38yZf/LO2/65P1h+Lqc9b00R16N6jeYPClh/9r8RwAMAQbgIgWLtgAYD0INgAREWwAQiHYAEREsAEIhWADEBHBBiAUgg1ARAQbgFAINgAREWwAQiHYAES0o7QRwNY5c+ZMOnr0aDp79mxnu7YdOXKk3v7II4+klZWVzn7v4MGD9fGlfaLnOXxYn3VY3r/MCDYAERFswAI4depU5/Hx48frKPPbfcApthRd9jin8x977LHiPlHs6flL+5YdwQYgIoIN2GKahJWmXSdPnqyjShO3vn35FM7MMoXrO3fZEWwAIiLYgC1k4dUXZoq5Q4cOTWwXnaPzS/tk2hQuKoINQEQEG7DBFGIKJ4WXliptu5Y7FV36quVLv89oCqZ9pTCz58y3G03XhoIuKoINQEQEG7CBLMo0KTt27Fh936ZeijG7Rk379UYBf67ReaUlU3vu0mRuOyPYAES0cMH2zW8eSnffc2+6+fduTddef1Ptlg98MN3zR59K3zz0reI5wKJQPCmw7PowxZlflvRTNds2tF30nNpXuuasbzK3nRFsACJamGA7ffp0+sNP3pOuu/H96XMPfqH6S278kQS6f/8Dn6/3ffLuP2aigIWikNLSoyZkCisfXlqyVMD54/uWMoc+ikNhVoo5beP/HroINgARLUSwKdY+tO+j6faPfiydXFlJfbcT1V+Kt93+B7XStGEzXXrXE+lVN6T0yutSekXlZe9N6aXXpvSSyr++9Ym0crp83mwOpN07d6QdOwbs3J0OrOb4kV1pb+kcPd/eXe44z84Z27trR9q5+0Bn23akpUoFmmJLky79/0s9tv0KMz9hk75p2tBHceh5SsGGSQQbgIgWItg0WVOszXpTsD3w+S8Un2uzKNZ+4fom1l5eeWkVbC+5JqUXXZ3Sz1fefM/jxfNmo5jamXYfKO2rHNiddnaCrWRv2lUIrTF9j3a/PZ+Cbdfe7LjJ5zmwe2ch6ryh77vc8mjSZM1PuCzG7LGma6UIKy1lWuyVPoqDYJsdwQYgoi0PtoMHv1kvdQ5N1vKbJm03vO/m9K3ChdibRbH2ysrLbbJWxdqLXbC94D0pPf/dKZ1f2Vl57jtTek7lWe9I6f+67Ynic44tULBl36uJtZ3Vth1p1153XE3fM+7kre/z0jxFlV/utIDLY0tTt9Jz9X0UhyZ4BNtsCDYAEW15sOmaNF2fttrbZz/3YP1GhNJzrsXll1+eHnrooeK+Er8UemEbbJq6/cePp/SW+1K6rPKrdzVLpD7WzrsypWdWSs85li1Xlswl2LLnGwVbd5+FWR1rLui0LGqP6/uBJ2uapCm8ZOiaMU3U8uvTSsuipeOk9FEcmrz1LZViEsEGIKItDza9G1RvKljt7fDhI+nmD3yw+Jxrcckll9RuvPHG4oQjl1+3pljbU0Xa/75vPHW76LYm3l5Uxdyz21j72StSekal9JzzNa8l0T6lqFz+YNMUK59k+SlZaSnTK4WYP9+26ZhZ392pYNvqazaXCcEGIKItD7Zrrntf/XW1t3PnvpOuvb45dx4s2OS3fuu30ic/+cnicaaOtYothf7ax5tYu+A9KT2vXQr9uXeltOvDKf2HO5vp2jOrUFOw/czbh4Nt+jVijeGlxzUGW+H7aAl094E80EpLts2S6OiYmeNvMdg1ZPk7NbXdYmvo89Kkb3Km8/Tc+seA9us5iLCNQbABiGjLg02fs6avq70p2N57Q3PuPPhg+83f/M30h3/4h8XjjF8K1TVrmqTpzQfPv6oJNsWalkK1T8ujNl1TrD3tbdODbdp1YNOPWeuEbXe13cfY0PNM+x6LSwHmL+5XPCmiNEFTWPljvdK0zOsLNtE52q8lT2Jt4xBsACLa8mDTh+KudUn0lt+f3wTHYu2GG26YemG5KNbsTQYvfE9K73ywoVjb2caarluz7fVSaBVrawu2Koyya9bmE2xuGuaWRP1zd79PaRm0IPtZF4miSVEmfulbEzA9tinb0C9NV9jlUzgzFGzYHAQbgIi2PNj0xoG1vungj/54fm86eMtb3pIOHBgKoC5bCtUEzQebLYU+5x3NdWu2XdetWaw9dbXBlr1Ts3jMhGnB5vZPXMPW7tP2geco/wyTcbmV/CTLYiy/qN/22f2+d2qaoc9LszcnlPZhcxBsACLa8mDTr5vSx3roozpmvR0/cSLdeNMt6UjPlGMz+I/vuOCqcZjZUqhiTdet2fZRrL01pZ+qlJ7T5CGkx830ahxPGxts1bb2erbJj+5o9cVcIS63iiLMX2+m0Bq6/sxYdPmI8yz8SlM4vYO0b7kUm4NgAxDRlgeb6KM99GG4s9507Be++CfF59osnc9bq4Kt/ry1KtZsumYf4WHvCn16FWyKtZ+u/OTlw8E2UkeRX2JUZM267Dgl2Hyc5cHWft9du8rRNvgRHv55N5lCyUeU7vvlbS1jaslS9xVWCri+pc++SZyZNoXD1iHYAES0EMGmvzztV05petZ30z4d89E77iw+z2b6f+54Ir2gCjVN10ofjntepS/WLtrb/8G542nalChro0pTtiagVqEKKp2jELNz62ldO1Xrxlh73ZoFXbW/HHBm4AN/N4D+/45CTEuUmp755UjFmQWaPVZo2QRN15rpa+maRXs3Z77dKPSGgg5bh2ADENFCBJtomelzD36+/g0G993/QPrWt/SX6HdqeoPBZ6tt2vf5Lw4tAyIy/f+RfJlSsaWwsqVIH1l5sNm1ZzrGnkfnlKZptl3P67dj8RFsACJamGAzh6pQu/uee+sPxdXnrOmjO/RuUL3B4DBLUNua4ktTNMWWLXcqtGxCVgo2Pz1TfCnCfMSJpmmlKZvibtYPt8XiINgARLRwwQb0samXTcns+jObhGm/Dy89zt/NqfPyOMvDzuh8JmzLh2ADEBHBhoWiSMqXPTVFU3gpqizSFFk2KdOETJMwO85P0BRzek57rPvaZkugCjKdky+JYnkRbAAiItiwpWx50x4ryhRU+aRMYaXpmMWXTdgUWgo0+7gOHadz7bFiLn83p87R9zB9H4KL5USwAYiIYMOWsomX36aI08RMoaV9tiyp0LJQ01RMFFs2JfOTNB2n47VPz+H3ib6HtuXTPCw/gg1ARAQbNp1Cyk+1FFQKJ8WVpmWKL03IFG0Wa4orBZz26asFmM4TPZ9/Tj2PTen0/XQecbY9EGwAIiLYsCk0FbP4UkzZMqUiSsGmoBJFVz4NE0WX2GM9n03gLOx0vu1T8Plr2fS82lZ6bsRCsAGIiGDDhlEcKZQUUv76M5t+WXBZdNl5ijg9VmBZ2Bl7Pm1XmOk57Xo1fdX30X4fa8Yij0lbbAQbgIgINsyVjy2Fk+4rznyQKZy0TRMzHW8xp8farvMUZoou7fPPX5qS6XhN2HR+HnjYfgg2ABERbJgLizBFlmLLrkuzfTYFK1GU6Xh91bG23aLNH6vw03bd1/Mr0izw9Nh/X2xPBBuAiAg2rJnCyJY1FU0+trTdX3NmUzB77CnUFGb59Ezn5NM0PYe+n55f+/VV39cmcX3fA9sHwQYgIoINM8nDSWzCpUjKly7zqZomYLZM6kNOdK6eX7TfJmv5cxqb5JX2AQQbgIgINkylMFNsaZqlqLKpmp+o6bE/x7b569n0uBR+2m6TMX0vBZu2iaLNKNR0jMWdfw7AEGwAIiLYMCGPIcWURZrCSROy/Dox7VNo2TKmP97CLl/yFD3WcfbY4lATNN3Xfp2vxz4QgT4EG4CICDZMsIBSmNl0zEJM2zU1y8NL5+h47VOs6b6db8fYPn+etvnJmY7PjwFWg2ADEBHBts3ZFMse676mYrqviZYe6xgFmU3VFGJ6bNeR6RgLNjvWns/ftzcM2GNRCOr72HMq4Px+YLUINgAREWzblMJKwaVg8pGk+LKJl03HFFO2TdFlS5+i+zpH9+0YTchs+TIPNB2j59N9/Qw2TdNzsOSJeSDYAEREsG0zdj2aAsuuE/P7tc2uF7NgU2SJJm8WajZ501d7Xm3XNp1r8ZYHm48/YCMQbAAiIti2CUWUgksBZRMu8dMwUUwp1HSc9tkyprYpyHSMgk6TNTvHaJvFnUVdHmwKOv/9gXkj2ABERLAFpjiyZU/Fl4LKpmaicPKPRZElOtbCStGmr3oe3bdpmp2j57bzFGj6qu16Du2z44DNQLABiIhgC0zBpWDzkWXxpX3+cU4hp/Cy5VFt0+TMIk77bbvCzK6D0319FQVj3/MDG4VgAxARwbakVhNDOtYCyyZuNgmz5U3/XLqv/aL9Ol/bdV90X+GmgNOx+sq7O7EoCDYAERFsS0rhpFCyxxZfecQptrQsqfhSqCm0FG82KdPxdm2bfcitnWPPpefV82u/nadj9FjPpVizqAO2GsEGICKCbUkpvuxaMVFcWZj52FJI+aVM7fNTMkWXhZjkH/Gh76MJnO7ruQkzLDqCDUBEBNuC81HmtymkStsVXworsTAzijXtV4Bpv0Wf8ccq3Gy/Ik3HW/QBi4xgAxARwbaANB1TbCmYJJ9q2URM97XP4sovdfoI0zE2fdNxOl7fQ4+1T8ugOlePbRqn7f772sQOWHQEG4CICLYFoThSKFk42TJkfpy22eTLL4H6Y3XfP9ZzW4hpu4WYXyoVRZlizr/TE1g2BBuAiAi2LabplsJJ4WWhZvsUV9pmjxVaijVts0mZxVc+lRM7z9jz2TmKNX3v/DhgmRFsACIi2LaIXUdmy5uKKAWYD6j8saJMEzj7/DOdY1M5BZqe05Yu9dx+yib6XrYcqq86j2kaoiHYAEREsG0RRZfCyaZdosd+Aqag8kuW/jibyuXLoUYh5mPMwk739fw6z8IPiIRgAxARwbaFFEyajPlwUojZFExBZtv12B9XmqB5CjR/vp5z6HggCoINQEQE2wby07M+iihFm0LNL3HaPj22aZqfmGlCli9nKursOjZbJmWKhu2GYAMQEcE2BwolXR+m+4osxZRiqbScWaJQU5TpXN23pU591fbS81jo+cjTYwWbfh47Jj8PiI5gAxARwTYHtnypYOoLrGkUV5qY6Tn0XArAaRM6O7bvOjZgOyLYAEREsK2STcF0X8uNmmyJvQPTtiuibOrWR89j79ZUfCnY7Fo1PS6d4+n4fFkU2O4INgAREWyrZEuVCiVN0mz5UUuRCi+beNm1Y4oyCzwdq0BTjOmrtvdNx3QMUzNg9Qg2ABERbAUWWGJLlVrq9PstyBRtiiubtNm5NmWz8BILvVlCTMfp/NI+AP0INgAREWwZRZJiyZYqp12TpvjS5ExfdbzOVaTpvPUElwVeaR+AfgQbgIgItpYmY/ZuS4WSgk0hpm2KLy156jgLKVvK9MucouNtymbHabuf2s1Kz1/aDqAfwQYgom0fbLZ0adMxBZhCS5GmbfYxGXacjzTd1zbdV6jpTQbaZlM20f7S9wWwMQg2ABFt62DzEWahpUiz0PLb7HHpeURhp9DTsTZl0/F6XDoewMYg2ABEFD7YNA3zjxVSfolS+xVVmqgp4PRYkWZTNsWXhVsebNqm/bpvoaZz/HH6XvnPAGDjEGwAIgofbAovH0yalCm0/DHab7Gl8LLlTn21mJN8eVNTNVsy1ffRNp2npVFtUwAq2PLQA7BxCDYAEYULNoWSQkuBpceKLD3WfYWTwsq/AUChpiizCVoebjpW2xRhpXN1rM7NI1Ahp306xm8HsLEINgARhQk2hZoCSRMtxZItRSrCFF+2FKqpV+l8m4YpvOw8xZ7FnLYp2nyA6Rh7o4H2++cDsDUINgARhZqwKZzsviJL4ab7CjFNy+yxjtN+TczsHAWXHmu7Is3eZKDttk1xJvY9tF/b7TGArUewAYgo5DVsCikFl0JNjxVctjSqbYos3c+nYjZN0zRO+/XYL2ta1NnxOs6CD8BiINgARBQu2Oz6M0WWaKnTrj+zSVnfdWXa7oPOrldTqCn47Dny8wAsDoINQEThgk1h5YNMEzBFmyJMXxVhfdGmfYoyCzW/Xcfn2wEsHoINQEThgk1hpSmbQk3TMLvmTBMzxZzuW7TZGwb8+byzE1huBBuAiMIFm03JFGMKLy1xaknTtuurIk3b9CYEbfNTNe3LIw7A8iDYAEQU8k0H/s0EmrJpuqb7mp7psQLNRxmBBsRBsAGIKGSwebpuTaGm+zZRY8kTiItgAxDRtgg2u45NkzT7LDYAMRFsACIKG2yKM03WmKgB2wvBBiCisMGmNxEo1OzNBAC2B4INQEThl0QBbC8EG4CICDYAoRBsACIi2ACEQrABiIhgAxAKwQYgIoINQCgEG4CICDYAYejjfAg2ABERbACWmn4VnX793MGDB+vPXiTYAEREsAFYOv73BSvSFGzaps9eJNgARESwAVho+vVy/gOwdf+xxx6rlz9tm37lnCZs+kqwAYiIYAOwkCzSjhw5Uk/QbLuiTFM1eyw6VgF39OhRgg1ASAQbgIWi8FKk6fcAa5lTEzZNz2yfbffn2PVrLIkCiIpgA7AwfHhpWmaTNVsC1X7ts+MVbj7eDh06RLABCIlgA7CQFGgKNd1XvGnqpljT8qe+Kuw0bdMEzs7RMQQbgIgINgALxweZws3izZZKtc+HmtE2gg1ARAQbgIWiaZqWNhVpWu60WFOo2TKplkb9O0c9gg1ARAQbgIWiKZkmaPbYwk2hpgmbtmkCp2jL33wgBBuAiAg2AAtFkzNN0/yyqL25QPftOO3XY0Wcos62E2wAIiLYACwchZqFmH+3qLYr1LRd2xRxdl2bRRvBBiAigg3AQlOI6Zo23belUB9o4q9nI9gARESwAVh4thSqSNN9hVt+jCHYAEREsAFYaBZpum+fwZYf4xFsACIi2AAsJMWZPs5DpkWaR7ABiIhgA7CwSh/bMQ3BBiAigg1AKAQbgIgINgChEGwAIiLYAIRCsAGIiGADEArBBiAigg1AKAQbgIgINgChEGwAIiLYAIRCsAGIiGADEArBBiAigg1AKAQbgIgINgChEGwAIiLYAIRCsAGIiGADEArBBiAigg1AKAQbgIgINgChEGwAIiLYAIRCsAGIiGADEArBBiAigg1AKAQbgIgINgChEGwAIiLYAIRCsAGIiGADEArBBiAigg1AKAQbgIgINgChEGwAIiLYAIRCsAGIiGADEArBBiAigg1AKAQbgIgINgChEGwAIiLYAIRCsAGIiGADEArBBiAigg1AKAQbgIgINgChEGwAIiLYAIRCsAGIiGADEArBBiAigg1AKAQbgIgINgChEGwAIiLYAIRCsAGIiGADEArBBiAigg1AKAQbgIgINgChEGwAIiLYAIRCsAGIiGADEArBBiAigg1AKAQbgIgINgChEGwAIiLYAIRCsAGIiGADEArBBiAigg1AKAQbgIgINgChEGwAIiLYAIRCsAGIiGADEArBBiAigg1AKAQbgIgINgChEGwAIiLYAIRCsAGIiGADEArBBiAigg1AKAQbgIgINgChEGwAIiLYAIRCsAGIiGADEArBBiAigg1AKAQbgIgINgChEGwAIiLYAIRCsAGIiGADEArBBiAigg1AKAQbgIgItk1y6tSptLKyUtwHYH4INgAREWwbTKH22GOP1Y4cOVI8BsD8EGwAIiLYNtDZs2fTI488kk6ePFncD2D+CDYAERFsc6JJWr7t+PHj6eDBgxPbAWwcgg1ARATbHOjaNE3S8u1Hjx5Nx44dq++fOXOmDjiuYwM2FsEGICKCbZ00WVOslZY+FWuHDx+ut2v/oUOH6q/a5o8DMD8EG4CICLYZKczyZU9/jZreUJCHmCZqerOBQk3HapsFHte1ARuDYAMQEcE2AwszLXHm+yzibFnUwky0DKpttixqSnEHYD4INgAREWyOjy2/TW8c0KRM8ZXv97RfUzW/TdO1PM5sqdRvAzAfBBuAiAi2loWZpmJ+u6ZqmojZlG3oTQM6Nn9XaL4EqudX/LEkCmwMgg1ARARbS1FWWr70UzdNxYY+/NbiLI8+e9OBKS2tApgPgg1ARARbRRGmyZhCStOv0jFi4VVaOjX2PPl2naOgGzoXwPoRbAAi2lbBpuVMXVOWT8B03ZlCyt4kYG8kKNH+oeVMe2doaR+AjUewAYgodLApvPIlTpuS9UWZJmRDy57ap+gr7RNFH0uewNYh2ABEFDbYNDHTpKs07Rpa2rR9+XbTd50agMVAsAGIKGSwKaY0KdObBBRXpXd2al/pozUUcX3nGEVg/vEdABYDwQYgoqUONi13Kq7EL0NqCmbLmn3v7LQwKy2N6vhSzBmdw4QNWEwEG4CIljbYFGiaoime7LcMlK4dG1r+VJiVzrHnK50DYLERbAAiWopg0zRLS5D+Yn8FlV+2tMjKJ182SSu9s1Pn9L2j02KwtA/A4iLYAES0sMGm0FJkKdIUXAoofbX9up8HVd87PPuWOC3m8u0AlhfBBiCihQw2Tcks0jRZ02NNw/IJW37hf987PBV22l667oxgA2Ih2ABEtBDBptDyy5uST8/0BgM/PSu9y9MmZqWlzL53dhJsQCwEG4CItjzYbPpVWsr09OYA/yG4fW8m0FQu/7Bc0fn5B95q4tZ3DRuA5USwAYho04ItDyuxWNOkrBRfnmIrDzHFVr5Nx5UmaaXnVvSVjgWwvAg2ABFtSrApljT5yq8hUywpmnRfwWb3S0rBZu8MtSVQC8DStWoAtgeCDUBEmxJsWu5USJWWKo2OyZcsvVKwiZY69dz2LtKh6AMQH8EGIKK5BpsmXAoo/wYChZhiStuHrhebNh3rCzbROTp/aEkVwPZAsAGIaG7BpjBTkOXBpmVPhZSiSkFmy5clfe/klKFgAwBDsAGIaM3B5sNLy5CKrWkTLk3aht4NqiDrm8IpBId+vycACMEGIKI1BZsCTQFljzX9muXdljpPU7bSPhmawvFGAgCzINgARDQYbIokhZimXn45UlMyf3G/Jmd2DZmO7ws47VeQ5R+S6+m5WPoEsFYEG4CIeoNN0aW40iRN/FKm9vkpmF1fZkueOl7nlpYwtX9oaZM3DgBYD4INQER1sCmwfIDpvuLLJmGKMT/1yoNNEZZP4bS/tLxpn51GmAGYN70WEWwAIqqDzd40oHCzJUlts6laHmyakPnHFmF5nPUtb2p7fiwArIddI0uwAYhoh641U0ApwizSFFN2vZm+apsPL52TL2ta8Pltel5/rRsArFdpOm+xptcmgg1ARDsUYv5NAAovvdlAL4oWcQo4LYPaZMzezelfOG3KphdMHaPnzY8BgPXQa09++YXo9cem9gQbgIh26EVOYWWTMN23a9IUXwo1O1jHaLvu2xsNbJ/oRVP79RyKPXsBBYC1sAl/vk3/eMy3G4INQESja9gUYIotvQj6iZviy38Gml4o7V+z2keUAdgo+odf/hokijb7R6XfLgQbgIh2KNRE0WbLl4owhZv969a/KCrY7LG+6rGdBwCrpdcPveb41xF77dHri8Isvz5W7B+NecwRbAAi2mEvknrR04uiXhz1r1qLOL0oapuWP/U1DzTbzqQNwGrpNUbRZfTY9uk1SK81+oehXmP8eUavVXnMEWwAIqqXRO1fqn7KpmVPvRjqvl4s9aLpl0o9ne9faAGgxP9jz1537B97Fm/5P/70j8nSdrHrZv02gg1ARKPfdKAXvXxpQS+S2qZYKy1JAMAsFFZa4vThpem8pmj+OJvu+22ibTo/3y55zBFsACIaBZuCTC+geuHTC6MCziZrtlzqTwSAIXotscssFFW6b/8I1P5SsOmcPMDEpm9+m9FzEGwAohsFmy076F+4tjSqbfkLJwDMQqGmf/zZpRT2GmP7+yJM18nm/0DU65GOLV16QbAB2A7qz2GzFzu9UBJoAFZLQdW3ZGn02qLXGHtsAZdfG6vJmz/O6PntulqPYAOwHezQC6aWPUs7AWAWCim9lthyZ4mmY/kSqB7noaf4Kk3eFHal7drm38xAsAGIaLQkCgBD7DKJfJuCSxMxLYEOXes66zVrpXd+Gh9mop8n/wcnwQYgIoINwEwUZaVpvCJMIaV9faElpWATTefscgwFmO7r2Py4WRFsACIi2ABMpSmaJmFDQWbXpPlpmdcXbDal07my3nekE2wAIiLYAIzYdWb+4n57E0Bp+TKnc/Nr0kxfsM0bwQYgIoINQM2uRVO0+SjTfbt2TPuHJmB9H9UhFn6lffNEsAGIiGADtil/nZhNz/KL+nO6Tq0vyETna3/p89L0PZiwAcDaEGzANqCQ8u/wzONJ8da3lOlZkOWfnebpeUqfl7ZZCDYAERFsQGAKK7ug379hQJMyv7Sp+6Igs+PtujU7xijGhuKu7/PSNgvBBiAigg0ISmGlSLNr0vz1Y5qo+SVR3bc3G+i+jtd9hVf+2WsWZEPLp0P7NhrBBiAigg0IwC9pKpY0QRPbVloC9RM2i7B8cqbgK73JQMeWrlNbBAQbgIgINiAAu7ZMUabIUqzZNn3Ng02x5R+Ljs3jzCZvfpvo+UvLpYuAYAMQEcEGLDFFk6ZiNgnTY0WWaL+WNRVnCiyFl0WWfcitX7rUOXoev03PXZqwLTKCDUBEBBuwJBRcFmW2TUuZCjLFloWWIk3bFWXarsfaruP8Eqd95po9l87XNrHlVEVdfg3boiPYAEREsAELSmHmlyP1WLGlAFNE2bKn9imudKxFl8JMX3WOjy7t1z5tt4Cz57f9ijyLw2WLNSHYAEREsAELRIFkEzTdV2zZPsWUIsvevalIs2DTdgs1BZcPLR2nuLPH2q9tum9hZvsiINgARESwAQvEplv2WGHmlydtudOfo+DSfgs9CzsFnL5qu+7bPj2HBZse63l1nD3fsiPYAEREsAFbSPGlgLIpl4LNJmTappiy8LJpmp1ngea36bnsOjWFnh5rn23T89nSqZ2n76XvoYjz25cVwQYgIoIN2GQKLZuYKaQsqkSRZdsVbgopCzN99RHnJ3Gic/JJmY5VhNkyqF8qzeUBuKwINgAREWzAJlAoKYgUVYoohZdCyrblx9ljRZlCS8f4SZstk9pxYlM1e2yTM23Tff99IiPYAEREsAEbRGGlwLJlSoWTtim0fFhpX990S8Gm6FKM+e16znyaZvGn7TpP93Weztd+iz1/TkQEG4CICDZggyiUbOnTb8+najYt0zVo+RsKFF7aZpM2BZemZbbU6Y8V+54+AHW8PyY6gg1ARAQbsE5+2mVTNT/9Umzl0WRTNbGoU2zlweanb7oOTcdpm57Tzhc7L//e2xHBBiAigg1YJwWTQsrCK59wWVwpqvRVUadtFl8KMT3OY03H6Ri/TdM4WyLVObqvY/wbF7Y7gg1ARAQbsAoKJYsxfdVjCyZNtkrLlBZn+qqY01e7rs2O0bl5dCngFGT+GD2Pj0FMItgARESwAQPyAFNkaXnTJl36qgCzNxHYdh9VemzLlAoue06/3GnTNP/9FHeavmmb7vvj0Y9gAxARwQYUKMoUSX7CJYoqfVU4WVxpm79GzSZqPtLsefSctl3H+QDz+yzg9Lz2Tk8fc+hHsAGIiGADHAWULVdaPBnFk4WXTbts2dLCSpGlENN2fdWxmpLZZE7n2PY82PIlUB+BmB3BBiAigg2oKM4USz6i9NVHm0WYvVtT2xR3ui9aDtU+TcrsHGP7FGE2OdP388EmCjsmaetDsAGIiGDDtmVTMUWShZcFlKLJpmh2vOJN2xRkNiXT+RZ7OtaWMu0cbdP3sVDTcYo3bddj4mz+CDYAERFs2JYUTIovxZOiSRGmCZj26bECzh7nbFqm+woxfdVj26ZzbTKnYxV1up9P72w75otgAxARwYZtT3GlyLKJmyZfeqyo0r58CqZ9NpmzSPPXrNnz6b6ew7Zb3GFjEWwAIiLYEI5NyPy2vlhSUCnQFFWi87RsqefQPj3Wfk3g9Fjn2PH2WF8VaRZmdozOsSmebcfGI9gARESwIRwFko8nu35M8WWRZfwbDcRiTRRhCi6dp4ma9tnz6asdr+MUZz7MdExpOoeNR7ABiIhgQziKKC1R+m0KJ1vu9NMxo8eKM4svHafjFV55dNlz6Xidp3N0PHG2GAg2ABERbFhKCjK/TGksvPJtPsJ03ZlNy2y/9olNzPQcijXbp+06T49Fz2OBpvvaZs+HrUWwAYiIYMPSsFBSTCmgtASZT7U0PbOlSAsvi7C+CZj26zw/ldP3EXtsgcgkbfERbAAiItiw0DTlUpgpqhRfiii7hkzb7b4oqhRUFlb5BM6iS89l2zyLPd3XefmkDsuBYAMQEcGGhWPTMf8OTYWaDy0dk0+79FiRpaVL2+6nchZkuu+naaLt9vwWiXo+fwyWA8EGICKCDQtHgaVYs2mXWKDZRM0HllGc6bh8KpdP4hR0ikB7bM9t5+u8fDqH5UGwAYiIYMPC8pMyUURpm+7nQecp0kof4WEUb346Z0ul+XFYTgQbgIgINiwkxZQiSmFly5f6qhjTfe3TMYovRZy2W4BpQtcXYBZnet6+4MNyI9gARESwYcPZUqPu66tCScuU+XElOldxZZM1W7q0JVE9VqD5aZqd4x/bdWw2mdP3J9hiItgARESwYcMprOy6MUVTHljTKPJ0vE3YFGN6Lpu8ldh1aPoq+XVsiItgAxARwYYN4ydbiiYLLAXYaiZstoSpd3kq/Pz0rI+eX993NWGIGAg2ABERbJgbu3ZMkaRgso/RUKjZfS1J2pSt9Bw2SdN9RZ6Ozadj2jY0XRMdP2sUIhaCDUBEBBvWLZ+cKajsmjU/IbOY88fadWR+Emfb+pYwdZ7Cr7QPINgARESwYWaKLYspCzGbllmgeRZWCjpbxvRTNi1vWpTp2FmvMdNxer7S9wQINgAREWyYmYWXYkuxpseKJ788qQizKZrRY3+eHmuJ1AJw1lDz9DxrOQ/xEWwAIiLYMEhTLEWVlioVWYouPbZt9jEZOk4BZUubtt3u24RNFHg6V9t0POGFeSLYAEREsKFIEWVLl7ZcqdDSY4WW32bH+UmbBZx91Tm2hKqvFnP+ewLzQLABiIhgQ4df0tRXUWBpIqZpmKLMx5e26RhFmX8eO1f3bRqXX+umbXYMMC8EG4CICLZtTJMxH0y6rxjzUWWRpiBTzNmETNt0vO7rHD2XnWPPpSVU3dc+RZueS+fb99TziT8PWC+CDUBEBNs2Y+Gl+1rWVHDZPk28FFb2WOFm0zH7HDXFVincFG1+yqZtOs+WQy0CtV0Ucdrul1GBeSDYAEREsG0Tii1704BCyqZmiibtV4TZRMxov6JOgZWHm/bZcxod68+3IPNRKIo3Qg0bhWADEBHBtk1YeOm+QssiSpMum5j5KZj26zg91nbFl7ZbgOl4/8YDBZuCTscbi0FgMxFsACIi2LYhhZdiypY8FW0KLws3hZdizAJObAnT3mQgdk2abbOos3MUcXpeewxsBoINQEQE2zaiSZgCSyGlKZniSmGm0NJ2sevbcrb8qeN1nM63ZU0LvzzYgK1AsAGIiGDbRhRbmobZY8WVwstCTOGl6ZotheYUZAo6P3kTCzhiDYuAYAMQEcG2jSioFFd2X5Gl+5qU2fVnFm3aly9napvCzm8DFg3BBiAigm2bsaVPXZOmMLNlTW2zQFPMaRKniZqmbzY501c9tucCFhHBBiAigm2bUaBZmGnp06ZsCjTRY7uOzd6IkC+BAouMYAMQEcG2jSnI/BKpJmqauhFoWGYEG4CICLZtTpGmrwo2xRuxhmVHsAGIiGDbhhRl9jEd9mYDIAqCDUBEBNs2pWvVFG1M1BANwQYgIoINQCgEG4CICDYAoRBsACIi2ACEQrABiIhgAxAKwQYgIoINQCgEG4CICDYAoRBsACIi2ACEQrABiIhgAxAKwQYgIoINQCgEG4CICDYAoRBsACIi2ACEQrABiIhgAxAKwQYgIoINQCgEG4CICDYAoRBsACIi2ACEQrABiIhgAxAKwQYgIoINQCgEG4CICDYAoRBsACIi2ACEQrABiIhgAxAKwQYgIoINQCgEG4CICDYAoRBsACIi2ACEQrABiIhgAxAKwQYgIoINQCgEG4CICDYAoRBsACIi2ACEQrABiIhgAxAKwQYgIoINQCgEG4CICDYAoRBsACIi2ACEQrABiIhgAxAKwQYgIoINQCgEG4CICDYAoRBsACIi2ACEQrABiIhgAxAKwQYgIoINQCgEG4CICDYAoRBsACIi2ACEQrABiIhgAxAKwQYgIoINQCgEG4CICDYAoRBsACIi2ACEQrABiIhgAxAKwQYgIoINQCgEG4CICDYAoRBsACIi2ACEQrABiIhgAxAKwQYgIoINQCgEG4CICDYAoRBsACIi2ACEQrABiIhgAxAKwQYgIoINQCgEG4CICDYAoRBsACIi2ACEQrABiIhgAxAKwQYgIoINQCgEG4CICDYAoRBsACIi2ACEQrABiIhgAxAKwQYgIoINQCgEG4CICDYAoRBsACIi2ACEQrABiIhgAxAKwQYgIoINQCgEG4CICDYAoRBsACIi2ACEQrABiIhgAxAKwQYgIoINQCgEG4CICDYAoRBsACIi2ACEQrABiIhgAxAKwQYgIoINQCgEG4CICDYAoRBsACIi2ACEQrABiIhgAxAKwQYgIoINQCgEG4CICDYAoRBsACIi2ACEQrABiIhgAxAKwQYgIoINQCgEG4CICDYAoRBsACIi2ACEQrABiIhgAxAKwQYgIoINQCgEG4CICDZsqZMnT6ZDhw6lw4cPF/cDq0WwAYiIYMOWOXLkSDp48GAdbadOnSoeA6wWwQYgIoINW0KB9sgjj6SzZ88W9wNrRbABiIhgw4ZSkGmSlm8/duxYcTuwXgQbgIgINmwoXZumSdqZM2c6248ePVqzoNMxWh5laRTrRbABiIhgw1zkS5sWYoqwxx57rI4zv18TNnuzge4r1PriDlgNgg1ARAQb1k1vGigtbyrIFG7Hjx+vo83vW1lZqeMsP68Ud8BqEGwAIiLYsC725gHJp2xGEzPtz5c7ta1v8ua3AatBsAGIiGDDTDRFy7dZrGmCpq+lY4wiLJ+mKc40UfOhp2OYsGE9CDYAERFsmMrCTMuYfrsmZxZpCq2hD7/VcXoOv02hpmvcRNGn59AxXMOG9SDYAEREsGGQxZomYUNBZtek9cWW4kz78ymcttsyqCZrxBrWi2ADEBHBhppCScGUX4dmv4nAgizf7ynqNCkr7ZNpUzhgHgg2ABERbNtY/iYAuxbNb/eBVpqQeQo+BV5pn1j0lfYB80KwAYiIYNumFFelaZdda1ZamtSEbCjIdE4efLmhCR0wDwQbgIgItm3IoqwvzBRzpY/WsOvZhq4zU9Dp/NI+YDMQbAAiItgCU5jZbxGwbRZd+tp3zZmmYNpXWv7Udj1nvt3o+Qg2bCWCDUBEBFtACi5NukSTMgWaxZf2WcANXXOmKCstmSrIFG35dmBREGwYctuXzqQfe9vx9NfeeCx9z5uOp7/+pmPpv/tPx9P3/ufj6b+X/3I8fV/rb+4+kf7W78jx9KQ3n0h/57IT6e++5UT6e62/v+dk+v7LT6QfeOvJ9OTKU952Mv1g5R+8vfFDV6ykf3hl5YqT6UfesZJ+tPJj71xJ/+hdlerr//DuU5WV9JNXnar91HtOpZ+uPPXqxtOvOZ1+5lo5lZ7x3tPpZ687nZ55/el0XuvZN5ypnE7PvfFMeu77zqSdNzXOf/+Z9LzK83/3bLqgdia94Oaz6edvOZte9HuNF1de8oFz6cLfP5teeuu59OqPnEt/9I3yn9mQEydOpEcffTR94xvfgKM/E/3ZlP7M1opgC0AB5qde+ZKmvZkgX8r00za/Xex6tPyas1muUwO2EsGGIT/61uPpu99wzAWbRduxUbT9DQVbFWt/c7ei7Xj621WsySjaKuNgO5l+QNFWeYqiraJo+6G3r1TBdjL9cEXR9iPSBptFWxNsp9JPVNH2E1et1MFWR1sVa0+rYu1p1yjaTtXRVgdb5ZmKtooF23OqWHvOjYq20+nnqmiT86toe977z7bRdiZdUMWagu2FVbBZtL34A1Ww/b6CrY22yv9aRVvpz2yIwuT06dOJW/emPxP92ZT+zNaKYFtSCidFmqZdCiixfYq1fNlS2/SmAb9Nhq4503OXwkzv9uTNA1hUBBuG/NXfPlYH23dXwVZHW+Wv/6fj4ylbFWt1sLUTNgs2xdqT3ny8MGVTrCnamljzUzZN2BRto2C78uR4ylb58Sra5CcUbW7CZlM2RZsPtme891QdbTZhe5bccLqONk3ZFGudKdvvnu0E2wtuPlNH22jKpmirKNo0ZXvZB8t/ZkM0TeJWvunPpvRntlYE25JRqCmyFGhastRSp6LKT9R0P48we6NBPmUbWuLU8zBJw7Ih2DDEgu2vvTFfFm0mbKJgG0VbuyRaR1sVa+MJ28nxlK2OthP1sqgo2CzafriKttGUrbMseqqONVsW1ZStXhataMLml0Wffm0TbYo1m7Kdd/2ZOthsWbSesrUTtjrY2mjTsqiizSZs9ZStDrZzbbA1EzZ5WRVtpT+zIQRb/41g24byaFJk+QlXfr1Z37VpCrb8jQR6Hm3X1MxvF4INy4hgwxAF23+bRZuWRTVh81O27/svJ9L31UuiTbBNRJsmbFWs/f3qa70s2saaBds/ePvKaMqmYBNN2RRsFm0/7qJNE7ZRsNUTttNZsLXXsbloe5aLtvo6NjdlO3+0JNpO2bJoayZsTbTZhE1Kf2ZDCLb+G8G2zSi+pv12AAWbXwJVfJWmaXqe0rJo33ZFH8GGZUOwYUgdbFWsiU3Yvqd944G/js2uZfPLorY0qgmbv45tvCzavY6tvCzavY7Nok3Bpinb6Do2tyyqa9nGy6KT17E1E7bmWja7js2mbLqW7flVuI2XRZsJm13LpgmbLYtqylb6MxtCsPXfCLZtxJYxS/HlaRKWX7NW+vgNPfZLp0aBV5q88W5QLCOCDUP8hK375oNxtFms+WDTu0X/dvZuUbuWbfRu0SrantxGmy2L1sH2/nPpq0fOpX98ZffdohZto2XResq2kv6Xzz2e0tfPjoLNrmPrvFtUwVZP2bJ3i7bRNhFs7btF/YRtfB3b+N2ipT+zIRsZbPsu2pF27Ci4aF97ROG276LqmPPTZV+uH6SLdlxU/b/tTfvcufsusuM25kawBaQpVj7J0mOFmr4qnLQM6vd7pWArXbOmKVrfGwxyCjbeWIBlRLBhyF95/benTNm6E7Ym2izYNGVz0eambLqO7RWfrkLL36pIe9XbT6ePtQ/Ht8fTu24uBFv1tfl4j7Ppruqouz5hUzYLtibabEm0NGUbLYtW6uvY6mhrg62esDXRpgmbWLDZlK30ZzZkoydsirZRY7XB9eXLzp+MuFGk6fbldNn5O9L52vDly9L5519WbaluPtiyeNuIG8EWjF1DloeUtlvE9V2TZkrBZtsVe4o37Z82qQMiINgw5K+8/tgo2Py7RcfXsbXLom2s5e8WnbiOrfX9VbTZsui/+8rj6cqbNGE7ld5x5PH0jvePl0X//VdT2v8xN2F755m0v/0Lfvrt8XT1B/0bDxo2ZfPLopqwNdeyTS6L1sHWTtjqKVvFPuKj9Gc2ZCuCrbrTnZzVgeYfd28KvDre/PkWcRt4I9iWWD610n2FmKJKMeWP9fy0rbS/L9j0/LYMqula3/lAJAQbhnxXO2GzaBtN2Npo09KovVtUU7bxh+h2l0VtyuavY9ObD77/8tPpjq+crpdFf/nhlL5aBVvfTeH2j951Jt159Dvpf7I3H9i7Rd11bPbmg6u/rWAbv/nAou1ZVazZx3t0rmPTlK0Otvbz2Npl0VG0VZpl0cWesHUmaXVwZYHmpmj18X2Ts02YqvkbwbaEFEqKpnySpvsKKYWV9ulaMn+ep7DrW87sCzZgOyLYMCQPtvJ1bOWP92iirRtsnevYFG0f/Yv2r+sq1j5zKv3gH1SPHz5dX8v2P973ePrYHc11bP/0s4+n/fvHy6I/3rmOrefjPeql0W6wDS6Ltkui/uM9/HVso2DThE3RtoBvOihP2HTXLYHmIabH9QSuWRrtBF8H17DB0RKkYiz/KA7xj/veqWmGPi9N5017JymwXRBsGPJdrz82uo7tr/72t7M3H5TfLdqdsDVTNsXa36mirfvmg5V0xeGqzz69kp5chdvDn66CzQVcftv/sZN1uK3m9vUHzoyuY5PusmjPu0VHU7bmOrYL2uvYXnjLmfGyaH0t22IGWyey2jAbLXNWt07UdW4Ktr4oG9o3nxvBtuAUaH4SppgaCjFjbxLIo84MTeE0wePaNKBBsGFIE2yVdsr23W84Xl/H9j1v1BsPJn9NlV8WbX6vaBNt4wnb+AN0X/6pJr5GwfaZU+kpCraHT9cf8dFM2JrfL/pPqvvNtWyn2t960PyaKvsQ3V/9ekp3fTxbFh298cD9qqrrz4yWRcdTttJ1bG2wjd58YO8WPeeWRct/ZkO2asI2XgbNr2erbqN9TNjgKLT8tWFamvTLk1qu9JE1dB2Zgiz/eA1v2hQOAMGGYX/5dd8eBZs+3qPWTti6bz44nr5XH/FRhVq9LNq+8cDefGDBVkdb5e+9ZSW9/fB30hWffryerDUTtpV6wqalUf1u0Vd9plkS9cE2+s0H+/8ife3+0811bFedSr/6tZTuvGulDjYp/m7R6xqja9nqKZv/EN3To2gb/W7RimLNX8dWv1u0nbKV/syGbFmw2YTssmw5tLqNp29M2LY9RZfCSYGla8v8cqQCzUeZ9ivCbIJmSuGm59T5+Xaj8BsKOgAEG4aNgs19vEf3OrbxtWzfWxkHWxNrFmz5Z7LZlO0Vn1KwjZdEf6GKtL6bD7b/oEDbP56yKdgmbt/+TvrF7DPZ/HVsNmV7zg3NZ7IVp2yV0bJo9bUOttGSaPnPbMjmBFs+KWtDS5O0fLpW3caRx4RtWyktNSq4tOypZcrSRM3HmB4rxBRuei6dY7GXL3/qPG1neRNYO4INQxRs3+WiTcHWiTZN2apQq98tqmj7z9mbD6pgs19Tpc9kG03Z2mizZVHdHv706XTlkZTu+GjzIbo2YdOvqfrHmrBV93+0irUfu/lcqvvsa2ea33pQRVszYWvfLdp584GWRqtoq2JNvwzeB1sTbePr2Mq/W7R540EzZTszmrDZmw9Kf2ZDNjLYFF6dsOpM2LQUuiOdf/752YTNT86YsG0rFlyKK0237J2d9kG2pWDzUzAdpwjzy6J2PVppWjbtQ3IBDCPYMOQvv+5YfR1bHW2/nb9bNPt4D03Y2uvYRsui7XVs/t2i9a+qctexabKm33zw5PdV//8x/UX65fY3HzTBpt8t2rxjdH91/8fecTq962hKX/3smfTu6ms6ei79z1mwiWKt+a0H+t2i4wlb6eM9ms9kGwebjH7rgV3H5j/eowo1u46t9Gc2ZKMnbJ2bBVv9LtDxUmkddvagM3Uj2LYVW8pUSGnpU1MwsXdsKtZ8YCno/JsONC0rxZnCzoee0XMzYQPWjmDDkL9UhVo9ZauirXmn6OR1bP63HtTXsVmwtRO2ZsrWxNroQ3QrmrA1S6PNr6n6d1/RdO1Eekr7a6rqYPvMufTV+q/zx9M7b15Jv1I9+OpnT1fh1ny8xz+9f8q7Rv/sbPc6tjzaKv7jPfSrqkbLonW0tcuiVbRZsNm1bIq20p/ZkE0Ptp6lTIu2+rcgjCZuk1HW/S0Jk8up87wRbHOmaZdfwjSKLkWZpmm23y93ap/u23KnTdD01WLO2DG2BGoTttL3BbA+BBuG/KXfUrA1EzZ9JptfFm0mbOMp2+g6tnxZtJ2w6To2WxZtgk0foDv+EN0feOvJ9OSKBZvo3aKasGlZ9B/qd4tWRm88qH8RfPPL4HUtmz6PTeo3Hlw9XhptpmztZ7JVxm880IStmbI9p/pqbz6YCLYq1sZLo35ZtPxnNmRTg23JbgTbHGiCZbGk+4opBZSfeGm/aKpmoaVjdLyO85M0HafnsMd5jOl87bcpnfYr4mw/gPkh2DBkFGxaFtV1bG7KZp/JZr9b1F/H1kTbifbNB92P9yi9+aD+EF0ti7bR1sTaSh1s+hDdH76y+XiPH5Eq2BRt+niP8Ud8KNqa33pg0fbUq0+Plkbzj/dQtNl1bKOP96h0rmOzd4rasmh9HdsSTdiW7EawzYGCy7+zUyzEtN1PyBRWCjFbGlV4aQlUQabHdpxNzex5NI2zfUbPoX0+5gDMF8GGIQq2JtqaZdH83aLNZ7LZdWztlK2KNXvzQf2ZbO2yqH2Irr+OzZZEm19T1cRaPWV764nRhK2ZsjUf71FP2doJWz1lq4PNfk3VeMrmf1XV0+op2/jdorYkOr6WrYq2+o0HZzrXsTXRZlO29t2i1Ve7jk1Kf2ZDCLb+G8G2RhZdum8TMbuvKFNsKdZ0jE3UtLxpAafzFWPabl/1HDpG90WRZtezaZ/izPYB2BwEG4b8N+2EbRRsVayNlkWr+1oWHb1bdHQt2/g6NrFfBl9P2apY8+8W1bLoKNraa9mefPn4OjbRhO2H2qXResLWLovWU7Z3nWp+VVUdbfarqlY67xa1z2SzCZveLWqfyVYvi7pr2crXsTWTNruOzS+Llv7MhhBs/TeCbRUUUxZX/t2bNh1TiNnEzI7z/DRMEafz9Tw6V9v1WLFn+2y7jtfz6THv+AQ2F8GGIT/4lmOjZdEm2mb/3aLjd4v6aMveLVpH23hZtA62esLWsAlbvSxq17G1sTaasinY3t3+1gM3YbN3i46uY6ujbfJ3i9oH6I6DLX+3aH4dW7Ms+s/3rT7YHn300XT69Ok2UbjZTX8m+rMp/ZmtVbhgUzBpGqYY828S0H1t11ft83ElCiw7z8LOtivKbMqmcxRhum/LoHrOfNom2m/f128HsHEINgzZ+9Dp9JTLqmirYs1P2SzY7M0Hijb/IbqKNdNM2Rqjd4tW/JsPFG3f76KtDrZ2wlYHW2t0HVul++aDZlnUos2CbbQsWsVad8rWTNiaYGumbD7a6iVRWxa1aHNTtn/24bPp7kfKf2ZDTpw4UYeJpkkY05+J/mxKf2ZrFSLYFEaKKEWTwkr3tZTpp1ualim8LKoUWv48m7TpPL+UaVFmj0URp++j+3pOH3gAthbBBiCipQ42xZcFlqZYFmG2TxGWn2N0rCi4/KRN5/jHou9hoadYU9jpXG0TTdH88QC2DsEGIKKlCzYFmSJLwaQpl4WU5NMu7Vdg2WNP5yv0FGMWeTpW2/Nj9ZwKOR2r59R5xs7LzwGwNQg2ABEtdLBZSOXbFFCKpHyylU/VNHXTY0VWvmxpYaZpmfaXlkM9HZ9P3gAsHoINQEQLG2wKMwspizQFlQ+v0jRM23SOhVoptPRY++yxxZ+O1XbdNxZwFol2DoDFRLABiGihJ2yKJYso/4YBo32aomm/IsyWShVadmzpmjSbptlj7bewU5TpqwJN3z8/F8BiI9gARLQwwaZg0lcFkkWY2IRN2/MlUp2jsNIxdv2a+GVR2+fPU6xpu+4r7Ox5/DEAlhPBBiCiLQk2CzB7rPsWWZpqKaY06VJI2TKkn6TZORZaej4LPvH37XnyxzrH3lnqfxYAy41gAxDRpgabIklBZpMz265g0jKm7iui9DV/A4Ee6zwFliJN5+ixLW36JVMfaOKvfdN5/ro0Yg2IhWADENFCX8MGAKtFsAGIiGADEArBBiAigg1AKAQbgIgINgChEGwAIiLYAIRCsAGIiGADEArBBiAigg1AKAQbgHjOpf8fun7A/vcFPfsAAAAASUVORK5CYII=;" vertex="1" parent="1">
          <mxGeometry x="-270" y="310" width="340" height="307.09" as="geometry" />
        </mxCell>
        <mxCell id="Hp60AGxop_6WqwKCzi6o-17" style="edgeStyle=orthogonalEdgeStyle;rounded=0;orthogonalLoop=1;jettySize=auto;html=1;entryX=1;entryY=0.5;entryDx=0;entryDy=0;" edge="1" parent="1" source="x-UZEwV3KDi1-HlXAOjM-10" target="Hp60AGxop_6WqwKCzi6o-16">
          <mxGeometry relative="1" as="geometry" />
        </mxCell>
        <mxCell id="Hp60AGxop_6WqwKCzi6o-20" style="edgeStyle=orthogonalEdgeStyle;rounded=0;orthogonalLoop=1;jettySize=auto;html=1;entryX=1;entryY=0.5;entryDx=0;entryDy=0;" edge="1" parent="1">
          <mxGeometry relative="1" as="geometry">
            <mxPoint x="237" y="350" as="sourcePoint" />
            <mxPoint x="72" y="463.5450000000001" as="targetPoint" />
            <Array as="points">
              <mxPoint x="142" y="350" />
              <mxPoint x="142" y="464" />
            </Array>
          </mxGeometry>
        </mxCell>
        <mxCell id="Hp60AGxop_6WqwKCzi6o-21" value="企业微信组件" style="text;html=1;strokeColor=none;fillColor=none;align=center;verticalAlign=middle;whiteSpace=wrap;rounded=0;" vertex="1" parent="1">
          <mxGeometry x="80" y="277.1" width="80" height="30" as="geometry" />
        </mxCell>
      </root>
    </mxGraphModel>
  </diagram>
  <diagram id="u-PxxDbpQcnC8XoLrh4K" name="自助查询">
    <mxGraphModel dx="2329" dy="612" grid="1" gridSize="10" guides="1" tooltips="1" connect="1" arrows="1" fold="1" page="1" pageScale="1" pageWidth="827" pageHeight="1169" math="0" shadow="0">
      <root>
        <mxCell id="0" />
        <mxCell id="1" parent="0" />
        <mxCell id="EwAFlvkXxYl7o3pyVqEa-1" value="" style="swimlane;startSize=0;" parent="1" vertex="1">
          <mxGeometry x="60" y="50" width="740" height="520" as="geometry" />
        </mxCell>
        <mxCell id="EwAFlvkXxYl7o3pyVqEa-2" value="自助查询页面" style="text;html=1;strokeColor=none;fillColor=none;align=center;verticalAlign=middle;whiteSpace=wrap;rounded=0;" parent="EwAFlvkXxYl7o3pyVqEa-1" vertex="1">
          <mxGeometry x="30" y="4" width="80" height="30" as="geometry" />
        </mxCell>
        <mxCell id="EwAFlvkXxYl7o3pyVqEa-4" value="" style="rounded=0;whiteSpace=wrap;html=1;" parent="EwAFlvkXxYl7o3pyVqEa-1" vertex="1">
          <mxGeometry x="100" y="54" width="90" height="30" as="geometry" />
        </mxCell>
        <mxCell id="EwAFlvkXxYl7o3pyVqEa-5" value="部门编码：" style="text;html=1;strokeColor=none;fillColor=none;align=center;verticalAlign=middle;whiteSpace=wrap;rounded=0;" parent="EwAFlvkXxYl7o3pyVqEa-1" vertex="1">
          <mxGeometry x="30" y="54" width="70" height="30" as="geometry" />
        </mxCell>
        <mxCell id="EwAFlvkXxYl7o3pyVqEa-6" value="" style="rounded=0;whiteSpace=wrap;html=1;" parent="EwAFlvkXxYl7o3pyVqEa-1" vertex="1">
          <mxGeometry x="270" y="54" width="84" height="30" as="geometry" />
        </mxCell>
        <mxCell id="EwAFlvkXxYl7o3pyVqEa-7" value="系统简码：" style="text;html=1;strokeColor=none;fillColor=none;align=center;verticalAlign=middle;whiteSpace=wrap;rounded=0;" parent="EwAFlvkXxYl7o3pyVqEa-1" vertex="1">
          <mxGeometry x="210" y="54" width="70" height="30" as="geometry" />
        </mxCell>
        <mxCell id="EwAFlvkXxYl7o3pyVqEa-8" value="" style="rounded=0;whiteSpace=wrap;html=1;" parent="EwAFlvkXxYl7o3pyVqEa-1" vertex="1">
          <mxGeometry x="100" y="105" width="90" height="30" as="geometry" />
        </mxCell>
        <mxCell id="EwAFlvkXxYl7o3pyVqEa-9" value="开始时间：" style="text;html=1;strokeColor=none;fillColor=none;align=center;verticalAlign=middle;whiteSpace=wrap;rounded=0;" parent="EwAFlvkXxYl7o3pyVqEa-1" vertex="1">
          <mxGeometry x="30" y="105" width="70" height="30" as="geometry" />
        </mxCell>
        <mxCell id="EwAFlvkXxYl7o3pyVqEa-10" value="" style="rounded=0;whiteSpace=wrap;html=1;" parent="EwAFlvkXxYl7o3pyVqEa-1" vertex="1">
          <mxGeometry x="270" y="105" width="84" height="30" as="geometry" />
        </mxCell>
        <mxCell id="EwAFlvkXxYl7o3pyVqEa-11" value="结束时间：" style="text;html=1;strokeColor=none;fillColor=none;align=center;verticalAlign=middle;whiteSpace=wrap;rounded=0;" parent="EwAFlvkXxYl7o3pyVqEa-1" vertex="1">
          <mxGeometry x="210" y="105" width="70" height="30" as="geometry" />
        </mxCell>
        <mxCell id="EwAFlvkXxYl7o3pyVqEa-12" value="" style="rounded=0;whiteSpace=wrap;html=1;" parent="EwAFlvkXxYl7o3pyVqEa-1" vertex="1">
          <mxGeometry x="450" y="54" width="90" height="30" as="geometry" />
        </mxCell>
        <mxCell id="EwAFlvkXxYl7o3pyVqEa-13" value="供应商编码：" style="text;html=1;strokeColor=none;fillColor=none;align=center;verticalAlign=middle;whiteSpace=wrap;rounded=0;" parent="EwAFlvkXxYl7o3pyVqEa-1" vertex="1">
          <mxGeometry x="370" y="54" width="80" height="30" as="geometry" />
        </mxCell>
        <mxCell id="EwAFlvkXxYl7o3pyVqEa-14" value="查询" style="rounded=1;whiteSpace=wrap;html=1;" parent="EwAFlvkXxYl7o3pyVqEa-1" vertex="1">
          <mxGeometry x="582" y="105" width="60" height="30" as="geometry" />
        </mxCell>
        <mxCell id="EwAFlvkXxYl7o3pyVqEa-15" value="重置" style="rounded=1;whiteSpace=wrap;html=1;" parent="EwAFlvkXxYl7o3pyVqEa-1" vertex="1">
          <mxGeometry x="660" y="105" width="60" height="30" as="geometry" />
        </mxCell>
        <mxCell id="EwAFlvkXxYl7o3pyVqEa-32" value="" style="shape=table;html=1;whiteSpace=wrap;startSize=0;container=1;collapsible=0;childLayout=tableLayout;" parent="EwAFlvkXxYl7o3pyVqEa-1" vertex="1">
          <mxGeometry x="23" y="239" width="230" height="120" as="geometry" />
        </mxCell>
        <mxCell id="EwAFlvkXxYl7o3pyVqEa-33" value="" style="shape=tableRow;horizontal=0;startSize=0;swimlaneHead=0;swimlaneBody=0;top=0;left=0;bottom=0;right=0;collapsible=0;dropTarget=0;fillColor=none;points=[[0,0.5],[1,0.5]];portConstraint=eastwest;" parent="EwAFlvkXxYl7o3pyVqEa-32" vertex="1">
          <mxGeometry width="230" height="40" as="geometry" />
        </mxCell>
        <mxCell id="EwAFlvkXxYl7o3pyVqEa-34" value="序号" style="shape=partialRectangle;html=1;whiteSpace=wrap;connectable=0;fillColor=none;top=0;left=0;bottom=0;right=0;overflow=hidden;" parent="EwAFlvkXxYl7o3pyVqEa-33" vertex="1">
          <mxGeometry width="77" height="40" as="geometry">
            <mxRectangle width="77" height="40" as="alternateBounds" />
          </mxGeometry>
        </mxCell>
        <mxCell id="EwAFlvkXxYl7o3pyVqEa-35" value="部门编码" style="shape=partialRectangle;html=1;whiteSpace=wrap;connectable=0;fillColor=none;top=0;left=0;bottom=0;right=0;overflow=hidden;" parent="EwAFlvkXxYl7o3pyVqEa-33" vertex="1">
          <mxGeometry x="77" width="76" height="40" as="geometry">
            <mxRectangle width="76" height="40" as="alternateBounds" />
          </mxGeometry>
        </mxCell>
        <mxCell id="EwAFlvkXxYl7o3pyVqEa-36" value="部门名称" style="shape=partialRectangle;html=1;whiteSpace=wrap;connectable=0;fillColor=none;top=0;left=0;bottom=0;right=0;overflow=hidden;" parent="EwAFlvkXxYl7o3pyVqEa-33" vertex="1">
          <mxGeometry x="153" width="77" height="40" as="geometry">
            <mxRectangle width="77" height="40" as="alternateBounds" />
          </mxGeometry>
        </mxCell>
        <mxCell id="EwAFlvkXxYl7o3pyVqEa-37" value="" style="shape=tableRow;horizontal=0;startSize=0;swimlaneHead=0;swimlaneBody=0;top=0;left=0;bottom=0;right=0;collapsible=0;dropTarget=0;fillColor=none;points=[[0,0.5],[1,0.5]];portConstraint=eastwest;" parent="EwAFlvkXxYl7o3pyVqEa-32" vertex="1">
          <mxGeometry y="40" width="230" height="40" as="geometry" />
        </mxCell>
        <mxCell id="EwAFlvkXxYl7o3pyVqEa-38" value="" style="shape=partialRectangle;html=1;whiteSpace=wrap;connectable=0;fillColor=none;top=0;left=0;bottom=0;right=0;overflow=hidden;" parent="EwAFlvkXxYl7o3pyVqEa-37" vertex="1">
          <mxGeometry width="77" height="40" as="geometry">
            <mxRectangle width="77" height="40" as="alternateBounds" />
          </mxGeometry>
        </mxCell>
        <mxCell id="EwAFlvkXxYl7o3pyVqEa-39" value="" style="shape=partialRectangle;html=1;whiteSpace=wrap;connectable=0;fillColor=none;top=0;left=0;bottom=0;right=0;overflow=hidden;" parent="EwAFlvkXxYl7o3pyVqEa-37" vertex="1">
          <mxGeometry x="77" width="76" height="40" as="geometry">
            <mxRectangle width="76" height="40" as="alternateBounds" />
          </mxGeometry>
        </mxCell>
        <mxCell id="EwAFlvkXxYl7o3pyVqEa-40" value="" style="shape=partialRectangle;html=1;whiteSpace=wrap;connectable=0;fillColor=none;top=0;left=0;bottom=0;right=0;overflow=hidden;" parent="EwAFlvkXxYl7o3pyVqEa-37" vertex="1">
          <mxGeometry x="153" width="77" height="40" as="geometry">
            <mxRectangle width="77" height="40" as="alternateBounds" />
          </mxGeometry>
        </mxCell>
        <mxCell id="EwAFlvkXxYl7o3pyVqEa-41" value="" style="shape=tableRow;horizontal=0;startSize=0;swimlaneHead=0;swimlaneBody=0;top=0;left=0;bottom=0;right=0;collapsible=0;dropTarget=0;fillColor=none;points=[[0,0.5],[1,0.5]];portConstraint=eastwest;" parent="EwAFlvkXxYl7o3pyVqEa-32" vertex="1">
          <mxGeometry y="80" width="230" height="40" as="geometry" />
        </mxCell>
        <mxCell id="EwAFlvkXxYl7o3pyVqEa-42" value="" style="shape=partialRectangle;html=1;whiteSpace=wrap;connectable=0;fillColor=none;top=0;left=0;bottom=0;right=0;overflow=hidden;" parent="EwAFlvkXxYl7o3pyVqEa-41" vertex="1">
          <mxGeometry width="77" height="40" as="geometry">
            <mxRectangle width="77" height="40" as="alternateBounds" />
          </mxGeometry>
        </mxCell>
        <mxCell id="EwAFlvkXxYl7o3pyVqEa-43" value="" style="shape=partialRectangle;html=1;whiteSpace=wrap;connectable=0;fillColor=none;top=0;left=0;bottom=0;right=0;overflow=hidden;" parent="EwAFlvkXxYl7o3pyVqEa-41" vertex="1">
          <mxGeometry x="77" width="76" height="40" as="geometry">
            <mxRectangle width="76" height="40" as="alternateBounds" />
          </mxGeometry>
        </mxCell>
        <mxCell id="EwAFlvkXxYl7o3pyVqEa-44" value="" style="shape=partialRectangle;html=1;whiteSpace=wrap;connectable=0;fillColor=none;top=0;left=0;bottom=0;right=0;overflow=hidden;pointerEvents=1;" parent="EwAFlvkXxYl7o3pyVqEa-41" vertex="1">
          <mxGeometry x="153" width="77" height="40" as="geometry">
            <mxRectangle width="77" height="40" as="alternateBounds" />
          </mxGeometry>
        </mxCell>
        <mxCell id="EwAFlvkXxYl7o3pyVqEa-45" value="" style="shape=table;html=1;whiteSpace=wrap;startSize=0;container=1;collapsible=0;childLayout=tableLayout;" parent="EwAFlvkXxYl7o3pyVqEa-1" vertex="1">
          <mxGeometry x="253" y="239" width="247" height="120" as="geometry" />
        </mxCell>
        <mxCell id="EwAFlvkXxYl7o3pyVqEa-46" value="" style="shape=tableRow;horizontal=0;startSize=0;swimlaneHead=0;swimlaneBody=0;top=0;left=0;bottom=0;right=0;collapsible=0;dropTarget=0;fillColor=none;points=[[0,0.5],[1,0.5]];portConstraint=eastwest;" parent="EwAFlvkXxYl7o3pyVqEa-45" vertex="1">
          <mxGeometry width="247" height="40" as="geometry" />
        </mxCell>
        <mxCell id="EwAFlvkXxYl7o3pyVqEa-47" value="供应商编码" style="shape=partialRectangle;html=1;whiteSpace=wrap;connectable=0;fillColor=none;top=0;left=0;bottom=0;right=0;overflow=hidden;" parent="EwAFlvkXxYl7o3pyVqEa-46" vertex="1">
          <mxGeometry width="86" height="40" as="geometry">
            <mxRectangle width="86" height="40" as="alternateBounds" />
          </mxGeometry>
        </mxCell>
        <mxCell id="EwAFlvkXxYl7o3pyVqEa-48" value="供应商名称" style="shape=partialRectangle;html=1;whiteSpace=wrap;connectable=0;fillColor=none;top=0;left=0;bottom=0;right=0;overflow=hidden;" parent="EwAFlvkXxYl7o3pyVqEa-46" vertex="1">
          <mxGeometry x="86" width="78" height="40" as="geometry">
            <mxRectangle width="78" height="40" as="alternateBounds" />
          </mxGeometry>
        </mxCell>
        <mxCell id="EwAFlvkXxYl7o3pyVqEa-49" value="接口编码" style="shape=partialRectangle;html=1;whiteSpace=wrap;connectable=0;fillColor=none;top=0;left=0;bottom=0;right=0;overflow=hidden;" parent="EwAFlvkXxYl7o3pyVqEa-46" vertex="1">
          <mxGeometry x="164" width="83" height="40" as="geometry">
            <mxRectangle width="83" height="40" as="alternateBounds" />
          </mxGeometry>
        </mxCell>
        <mxCell id="EwAFlvkXxYl7o3pyVqEa-50" value="" style="shape=tableRow;horizontal=0;startSize=0;swimlaneHead=0;swimlaneBody=0;top=0;left=0;bottom=0;right=0;collapsible=0;dropTarget=0;fillColor=none;points=[[0,0.5],[1,0.5]];portConstraint=eastwest;" parent="EwAFlvkXxYl7o3pyVqEa-45" vertex="1">
          <mxGeometry y="40" width="247" height="40" as="geometry" />
        </mxCell>
        <mxCell id="EwAFlvkXxYl7o3pyVqEa-51" value="" style="shape=partialRectangle;html=1;whiteSpace=wrap;connectable=0;fillColor=none;top=0;left=0;bottom=0;right=0;overflow=hidden;" parent="EwAFlvkXxYl7o3pyVqEa-50" vertex="1">
          <mxGeometry width="86" height="40" as="geometry">
            <mxRectangle width="86" height="40" as="alternateBounds" />
          </mxGeometry>
        </mxCell>
        <mxCell id="EwAFlvkXxYl7o3pyVqEa-52" value="" style="shape=partialRectangle;html=1;whiteSpace=wrap;connectable=0;fillColor=none;top=0;left=0;bottom=0;right=0;overflow=hidden;" parent="EwAFlvkXxYl7o3pyVqEa-50" vertex="1">
          <mxGeometry x="86" width="78" height="40" as="geometry">
            <mxRectangle width="78" height="40" as="alternateBounds" />
          </mxGeometry>
        </mxCell>
        <mxCell id="EwAFlvkXxYl7o3pyVqEa-53" value="" style="shape=partialRectangle;html=1;whiteSpace=wrap;connectable=0;fillColor=none;top=0;left=0;bottom=0;right=0;overflow=hidden;" parent="EwAFlvkXxYl7o3pyVqEa-50" vertex="1">
          <mxGeometry x="164" width="83" height="40" as="geometry">
            <mxRectangle width="83" height="40" as="alternateBounds" />
          </mxGeometry>
        </mxCell>
        <mxCell id="EwAFlvkXxYl7o3pyVqEa-54" value="" style="shape=tableRow;horizontal=0;startSize=0;swimlaneHead=0;swimlaneBody=0;top=0;left=0;bottom=0;right=0;collapsible=0;dropTarget=0;fillColor=none;points=[[0,0.5],[1,0.5]];portConstraint=eastwest;" parent="EwAFlvkXxYl7o3pyVqEa-45" vertex="1">
          <mxGeometry y="80" width="247" height="40" as="geometry" />
        </mxCell>
        <mxCell id="EwAFlvkXxYl7o3pyVqEa-55" value="" style="shape=partialRectangle;html=1;whiteSpace=wrap;connectable=0;fillColor=none;top=0;left=0;bottom=0;right=0;overflow=hidden;" parent="EwAFlvkXxYl7o3pyVqEa-54" vertex="1">
          <mxGeometry width="86" height="40" as="geometry">
            <mxRectangle width="86" height="40" as="alternateBounds" />
          </mxGeometry>
        </mxCell>
        <mxCell id="EwAFlvkXxYl7o3pyVqEa-56" value="" style="shape=partialRectangle;html=1;whiteSpace=wrap;connectable=0;fillColor=none;top=0;left=0;bottom=0;right=0;overflow=hidden;" parent="EwAFlvkXxYl7o3pyVqEa-54" vertex="1">
          <mxGeometry x="86" width="78" height="40" as="geometry">
            <mxRectangle width="78" height="40" as="alternateBounds" />
          </mxGeometry>
        </mxCell>
        <mxCell id="EwAFlvkXxYl7o3pyVqEa-57" value="" style="shape=partialRectangle;html=1;whiteSpace=wrap;connectable=0;fillColor=none;top=0;left=0;bottom=0;right=0;overflow=hidden;pointerEvents=1;" parent="EwAFlvkXxYl7o3pyVqEa-54" vertex="1">
          <mxGeometry x="164" width="83" height="40" as="geometry">
            <mxRectangle width="83" height="40" as="alternateBounds" />
          </mxGeometry>
        </mxCell>
        <mxCell id="EwAFlvkXxYl7o3pyVqEa-58" value="" style="shape=table;html=1;whiteSpace=wrap;startSize=0;container=1;collapsible=0;childLayout=tableLayout;" parent="EwAFlvkXxYl7o3pyVqEa-1" vertex="1">
          <mxGeometry x="500" y="239" width="220" height="120" as="geometry" />
        </mxCell>
        <mxCell id="EwAFlvkXxYl7o3pyVqEa-59" value="" style="shape=tableRow;horizontal=0;startSize=0;swimlaneHead=0;swimlaneBody=0;top=0;left=0;bottom=0;right=0;collapsible=0;dropTarget=0;fillColor=none;points=[[0,0.5],[1,0.5]];portConstraint=eastwest;" parent="EwAFlvkXxYl7o3pyVqEa-58" vertex="1">
          <mxGeometry width="220" height="40" as="geometry" />
        </mxCell>
        <mxCell id="EwAFlvkXxYl7o3pyVqEa-60" value="接口名称" style="shape=partialRectangle;html=1;whiteSpace=wrap;connectable=0;fillColor=none;top=0;left=0;bottom=0;right=0;overflow=hidden;" parent="EwAFlvkXxYl7o3pyVqEa-59" vertex="1">
          <mxGeometry width="73" height="40" as="geometry">
            <mxRectangle width="73" height="40" as="alternateBounds" />
          </mxGeometry>
        </mxCell>
        <mxCell id="EwAFlvkXxYl7o3pyVqEa-61" value="调用量" style="shape=partialRectangle;html=1;whiteSpace=wrap;connectable=0;fillColor=none;top=0;left=0;bottom=0;right=0;overflow=hidden;" parent="EwAFlvkXxYl7o3pyVqEa-59" vertex="1">
          <mxGeometry x="73" width="74" height="40" as="geometry">
            <mxRectangle width="74" height="40" as="alternateBounds" />
          </mxGeometry>
        </mxCell>
        <mxCell id="EwAFlvkXxYl7o3pyVqEa-62" value="费用" style="shape=partialRectangle;html=1;whiteSpace=wrap;connectable=0;fillColor=none;top=0;left=0;bottom=0;right=0;overflow=hidden;" parent="EwAFlvkXxYl7o3pyVqEa-59" vertex="1">
          <mxGeometry x="147" width="73" height="40" as="geometry">
            <mxRectangle width="73" height="40" as="alternateBounds" />
          </mxGeometry>
        </mxCell>
        <mxCell id="EwAFlvkXxYl7o3pyVqEa-63" value="" style="shape=tableRow;horizontal=0;startSize=0;swimlaneHead=0;swimlaneBody=0;top=0;left=0;bottom=0;right=0;collapsible=0;dropTarget=0;fillColor=none;points=[[0,0.5],[1,0.5]];portConstraint=eastwest;" parent="EwAFlvkXxYl7o3pyVqEa-58" vertex="1">
          <mxGeometry y="40" width="220" height="40" as="geometry" />
        </mxCell>
        <mxCell id="EwAFlvkXxYl7o3pyVqEa-64" value="" style="shape=partialRectangle;html=1;whiteSpace=wrap;connectable=0;fillColor=none;top=0;left=0;bottom=0;right=0;overflow=hidden;" parent="EwAFlvkXxYl7o3pyVqEa-63" vertex="1">
          <mxGeometry width="73" height="40" as="geometry">
            <mxRectangle width="73" height="40" as="alternateBounds" />
          </mxGeometry>
        </mxCell>
        <mxCell id="EwAFlvkXxYl7o3pyVqEa-65" value="" style="shape=partialRectangle;html=1;whiteSpace=wrap;connectable=0;fillColor=none;top=0;left=0;bottom=0;right=0;overflow=hidden;" parent="EwAFlvkXxYl7o3pyVqEa-63" vertex="1">
          <mxGeometry x="73" width="74" height="40" as="geometry">
            <mxRectangle width="74" height="40" as="alternateBounds" />
          </mxGeometry>
        </mxCell>
        <mxCell id="EwAFlvkXxYl7o3pyVqEa-66" value="" style="shape=partialRectangle;html=1;whiteSpace=wrap;connectable=0;fillColor=none;top=0;left=0;bottom=0;right=0;overflow=hidden;" parent="EwAFlvkXxYl7o3pyVqEa-63" vertex="1">
          <mxGeometry x="147" width="73" height="40" as="geometry">
            <mxRectangle width="73" height="40" as="alternateBounds" />
          </mxGeometry>
        </mxCell>
        <mxCell id="EwAFlvkXxYl7o3pyVqEa-67" value="" style="shape=tableRow;horizontal=0;startSize=0;swimlaneHead=0;swimlaneBody=0;top=0;left=0;bottom=0;right=0;collapsible=0;dropTarget=0;fillColor=none;points=[[0,0.5],[1,0.5]];portConstraint=eastwest;" parent="EwAFlvkXxYl7o3pyVqEa-58" vertex="1">
          <mxGeometry y="80" width="220" height="40" as="geometry" />
        </mxCell>
        <mxCell id="EwAFlvkXxYl7o3pyVqEa-68" value="" style="shape=partialRectangle;html=1;whiteSpace=wrap;connectable=0;fillColor=none;top=0;left=0;bottom=0;right=0;overflow=hidden;" parent="EwAFlvkXxYl7o3pyVqEa-67" vertex="1">
          <mxGeometry width="73" height="40" as="geometry">
            <mxRectangle width="73" height="40" as="alternateBounds" />
          </mxGeometry>
        </mxCell>
        <mxCell id="EwAFlvkXxYl7o3pyVqEa-69" value="" style="shape=partialRectangle;html=1;whiteSpace=wrap;connectable=0;fillColor=none;top=0;left=0;bottom=0;right=0;overflow=hidden;" parent="EwAFlvkXxYl7o3pyVqEa-67" vertex="1">
          <mxGeometry x="73" width="74" height="40" as="geometry">
            <mxRectangle width="74" height="40" as="alternateBounds" />
          </mxGeometry>
        </mxCell>
        <mxCell id="EwAFlvkXxYl7o3pyVqEa-70" value="" style="shape=partialRectangle;html=1;whiteSpace=wrap;connectable=0;fillColor=none;top=0;left=0;bottom=0;right=0;overflow=hidden;pointerEvents=1;" parent="EwAFlvkXxYl7o3pyVqEa-67" vertex="1">
          <mxGeometry x="147" width="73" height="40" as="geometry">
            <mxRectangle width="73" height="40" as="alternateBounds" />
          </mxGeometry>
        </mxCell>
        <mxCell id="EwAFlvkXxYl7o3pyVqEa-86" value="" style="shape=table;html=1;whiteSpace=wrap;startSize=0;container=1;collapsible=0;childLayout=tableLayout;" parent="EwAFlvkXxYl7o3pyVqEa-1" vertex="1">
          <mxGeometry x="23" y="359" width="230" height="120" as="geometry" />
        </mxCell>
        <mxCell id="EwAFlvkXxYl7o3pyVqEa-87" value="" style="shape=tableRow;horizontal=0;startSize=0;swimlaneHead=0;swimlaneBody=0;top=0;left=0;bottom=0;right=0;collapsible=0;dropTarget=0;fillColor=none;points=[[0,0.5],[1,0.5]];portConstraint=eastwest;" parent="EwAFlvkXxYl7o3pyVqEa-86" vertex="1">
          <mxGeometry width="230" height="40" as="geometry" />
        </mxCell>
        <mxCell id="EwAFlvkXxYl7o3pyVqEa-88" value="" style="shape=partialRectangle;html=1;whiteSpace=wrap;connectable=0;fillColor=none;top=0;left=0;bottom=0;right=0;overflow=hidden;" parent="EwAFlvkXxYl7o3pyVqEa-87" vertex="1">
          <mxGeometry width="77" height="40" as="geometry">
            <mxRectangle width="77" height="40" as="alternateBounds" />
          </mxGeometry>
        </mxCell>
        <mxCell id="EwAFlvkXxYl7o3pyVqEa-89" value="" style="shape=partialRectangle;html=1;whiteSpace=wrap;connectable=0;fillColor=none;top=0;left=0;bottom=0;right=0;overflow=hidden;" parent="EwAFlvkXxYl7o3pyVqEa-87" vertex="1">
          <mxGeometry x="77" width="76" height="40" as="geometry">
            <mxRectangle width="76" height="40" as="alternateBounds" />
          </mxGeometry>
        </mxCell>
        <mxCell id="EwAFlvkXxYl7o3pyVqEa-90" value="" style="shape=partialRectangle;html=1;whiteSpace=wrap;connectable=0;fillColor=none;top=0;left=0;bottom=0;right=0;overflow=hidden;" parent="EwAFlvkXxYl7o3pyVqEa-87" vertex="1">
          <mxGeometry x="153" width="77" height="40" as="geometry">
            <mxRectangle width="77" height="40" as="alternateBounds" />
          </mxGeometry>
        </mxCell>
        <mxCell id="EwAFlvkXxYl7o3pyVqEa-91" value="" style="shape=tableRow;horizontal=0;startSize=0;swimlaneHead=0;swimlaneBody=0;top=0;left=0;bottom=0;right=0;collapsible=0;dropTarget=0;fillColor=none;points=[[0,0.5],[1,0.5]];portConstraint=eastwest;" parent="EwAFlvkXxYl7o3pyVqEa-86" vertex="1">
          <mxGeometry y="40" width="230" height="40" as="geometry" />
        </mxCell>
        <mxCell id="EwAFlvkXxYl7o3pyVqEa-92" value="" style="shape=partialRectangle;html=1;whiteSpace=wrap;connectable=0;fillColor=none;top=0;left=0;bottom=0;right=0;overflow=hidden;" parent="EwAFlvkXxYl7o3pyVqEa-91" vertex="1">
          <mxGeometry width="77" height="40" as="geometry">
            <mxRectangle width="77" height="40" as="alternateBounds" />
          </mxGeometry>
        </mxCell>
        <mxCell id="EwAFlvkXxYl7o3pyVqEa-93" value="" style="shape=partialRectangle;html=1;whiteSpace=wrap;connectable=0;fillColor=none;top=0;left=0;bottom=0;right=0;overflow=hidden;" parent="EwAFlvkXxYl7o3pyVqEa-91" vertex="1">
          <mxGeometry x="77" width="76" height="40" as="geometry">
            <mxRectangle width="76" height="40" as="alternateBounds" />
          </mxGeometry>
        </mxCell>
        <mxCell id="EwAFlvkXxYl7o3pyVqEa-94" value="" style="shape=partialRectangle;html=1;whiteSpace=wrap;connectable=0;fillColor=none;top=0;left=0;bottom=0;right=0;overflow=hidden;" parent="EwAFlvkXxYl7o3pyVqEa-91" vertex="1">
          <mxGeometry x="153" width="77" height="40" as="geometry">
            <mxRectangle width="77" height="40" as="alternateBounds" />
          </mxGeometry>
        </mxCell>
        <mxCell id="EwAFlvkXxYl7o3pyVqEa-95" value="" style="shape=tableRow;horizontal=0;startSize=0;swimlaneHead=0;swimlaneBody=0;top=0;left=0;bottom=0;right=0;collapsible=0;dropTarget=0;fillColor=none;points=[[0,0.5],[1,0.5]];portConstraint=eastwest;" parent="EwAFlvkXxYl7o3pyVqEa-86" vertex="1">
          <mxGeometry y="80" width="230" height="40" as="geometry" />
        </mxCell>
        <mxCell id="EwAFlvkXxYl7o3pyVqEa-96" value="" style="shape=partialRectangle;html=1;whiteSpace=wrap;connectable=0;fillColor=none;top=0;left=0;bottom=0;right=0;overflow=hidden;" parent="EwAFlvkXxYl7o3pyVqEa-95" vertex="1">
          <mxGeometry width="77" height="40" as="geometry">
            <mxRectangle width="77" height="40" as="alternateBounds" />
          </mxGeometry>
        </mxCell>
        <mxCell id="EwAFlvkXxYl7o3pyVqEa-97" value="" style="shape=partialRectangle;html=1;whiteSpace=wrap;connectable=0;fillColor=none;top=0;left=0;bottom=0;right=0;overflow=hidden;" parent="EwAFlvkXxYl7o3pyVqEa-95" vertex="1">
          <mxGeometry x="77" width="76" height="40" as="geometry">
            <mxRectangle width="76" height="40" as="alternateBounds" />
          </mxGeometry>
        </mxCell>
        <mxCell id="EwAFlvkXxYl7o3pyVqEa-98" value="" style="shape=partialRectangle;html=1;whiteSpace=wrap;connectable=0;fillColor=none;top=0;left=0;bottom=0;right=0;overflow=hidden;pointerEvents=1;" parent="EwAFlvkXxYl7o3pyVqEa-95" vertex="1">
          <mxGeometry x="153" width="77" height="40" as="geometry">
            <mxRectangle width="77" height="40" as="alternateBounds" />
          </mxGeometry>
        </mxCell>
        <mxCell id="EwAFlvkXxYl7o3pyVqEa-112" value="" style="shape=table;html=1;whiteSpace=wrap;startSize=0;container=1;collapsible=0;childLayout=tableLayout;" parent="EwAFlvkXxYl7o3pyVqEa-1" vertex="1">
          <mxGeometry x="253" y="359" width="247" height="120" as="geometry" />
        </mxCell>
        <mxCell id="EwAFlvkXxYl7o3pyVqEa-113" value="" style="shape=tableRow;horizontal=0;startSize=0;swimlaneHead=0;swimlaneBody=0;top=0;left=0;bottom=0;right=0;collapsible=0;dropTarget=0;fillColor=none;points=[[0,0.5],[1,0.5]];portConstraint=eastwest;" parent="EwAFlvkXxYl7o3pyVqEa-112" vertex="1">
          <mxGeometry width="247" height="40" as="geometry" />
        </mxCell>
        <mxCell id="EwAFlvkXxYl7o3pyVqEa-114" value="" style="shape=partialRectangle;html=1;whiteSpace=wrap;connectable=0;fillColor=none;top=0;left=0;bottom=0;right=0;overflow=hidden;" parent="EwAFlvkXxYl7o3pyVqEa-113" vertex="1">
          <mxGeometry width="86" height="40" as="geometry">
            <mxRectangle width="86" height="40" as="alternateBounds" />
          </mxGeometry>
        </mxCell>
        <mxCell id="EwAFlvkXxYl7o3pyVqEa-115" value="" style="shape=partialRectangle;html=1;whiteSpace=wrap;connectable=0;fillColor=none;top=0;left=0;bottom=0;right=0;overflow=hidden;" parent="EwAFlvkXxYl7o3pyVqEa-113" vertex="1">
          <mxGeometry x="86" width="78" height="40" as="geometry">
            <mxRectangle width="78" height="40" as="alternateBounds" />
          </mxGeometry>
        </mxCell>
        <mxCell id="EwAFlvkXxYl7o3pyVqEa-116" value="" style="shape=partialRectangle;html=1;whiteSpace=wrap;connectable=0;fillColor=none;top=0;left=0;bottom=0;right=0;overflow=hidden;" parent="EwAFlvkXxYl7o3pyVqEa-113" vertex="1">
          <mxGeometry x="164" width="83" height="40" as="geometry">
            <mxRectangle width="83" height="40" as="alternateBounds" />
          </mxGeometry>
        </mxCell>
        <mxCell id="EwAFlvkXxYl7o3pyVqEa-117" value="" style="shape=tableRow;horizontal=0;startSize=0;swimlaneHead=0;swimlaneBody=0;top=0;left=0;bottom=0;right=0;collapsible=0;dropTarget=0;fillColor=none;points=[[0,0.5],[1,0.5]];portConstraint=eastwest;" parent="EwAFlvkXxYl7o3pyVqEa-112" vertex="1">
          <mxGeometry y="40" width="247" height="40" as="geometry" />
        </mxCell>
        <mxCell id="EwAFlvkXxYl7o3pyVqEa-118" value="" style="shape=partialRectangle;html=1;whiteSpace=wrap;connectable=0;fillColor=none;top=0;left=0;bottom=0;right=0;overflow=hidden;" parent="EwAFlvkXxYl7o3pyVqEa-117" vertex="1">
          <mxGeometry width="86" height="40" as="geometry">
            <mxRectangle width="86" height="40" as="alternateBounds" />
          </mxGeometry>
        </mxCell>
        <mxCell id="EwAFlvkXxYl7o3pyVqEa-119" value="" style="shape=partialRectangle;html=1;whiteSpace=wrap;connectable=0;fillColor=none;top=0;left=0;bottom=0;right=0;overflow=hidden;" parent="EwAFlvkXxYl7o3pyVqEa-117" vertex="1">
          <mxGeometry x="86" width="78" height="40" as="geometry">
            <mxRectangle width="78" height="40" as="alternateBounds" />
          </mxGeometry>
        </mxCell>
        <mxCell id="EwAFlvkXxYl7o3pyVqEa-120" value="" style="shape=partialRectangle;html=1;whiteSpace=wrap;connectable=0;fillColor=none;top=0;left=0;bottom=0;right=0;overflow=hidden;" parent="EwAFlvkXxYl7o3pyVqEa-117" vertex="1">
          <mxGeometry x="164" width="83" height="40" as="geometry">
            <mxRectangle width="83" height="40" as="alternateBounds" />
          </mxGeometry>
        </mxCell>
        <mxCell id="EwAFlvkXxYl7o3pyVqEa-121" value="" style="shape=tableRow;horizontal=0;startSize=0;swimlaneHead=0;swimlaneBody=0;top=0;left=0;bottom=0;right=0;collapsible=0;dropTarget=0;fillColor=none;points=[[0,0.5],[1,0.5]];portConstraint=eastwest;" parent="EwAFlvkXxYl7o3pyVqEa-112" vertex="1">
          <mxGeometry y="80" width="247" height="40" as="geometry" />
        </mxCell>
        <mxCell id="EwAFlvkXxYl7o3pyVqEa-122" value="" style="shape=partialRectangle;html=1;whiteSpace=wrap;connectable=0;fillColor=none;top=0;left=0;bottom=0;right=0;overflow=hidden;" parent="EwAFlvkXxYl7o3pyVqEa-121" vertex="1">
          <mxGeometry width="86" height="40" as="geometry">
            <mxRectangle width="86" height="40" as="alternateBounds" />
          </mxGeometry>
        </mxCell>
        <mxCell id="EwAFlvkXxYl7o3pyVqEa-123" value="" style="shape=partialRectangle;html=1;whiteSpace=wrap;connectable=0;fillColor=none;top=0;left=0;bottom=0;right=0;overflow=hidden;" parent="EwAFlvkXxYl7o3pyVqEa-121" vertex="1">
          <mxGeometry x="86" width="78" height="40" as="geometry">
            <mxRectangle width="78" height="40" as="alternateBounds" />
          </mxGeometry>
        </mxCell>
        <mxCell id="EwAFlvkXxYl7o3pyVqEa-124" value="" style="shape=partialRectangle;html=1;whiteSpace=wrap;connectable=0;fillColor=none;top=0;left=0;bottom=0;right=0;overflow=hidden;pointerEvents=1;" parent="EwAFlvkXxYl7o3pyVqEa-121" vertex="1">
          <mxGeometry x="164" width="83" height="40" as="geometry">
            <mxRectangle width="83" height="40" as="alternateBounds" />
          </mxGeometry>
        </mxCell>
        <mxCell id="EwAFlvkXxYl7o3pyVqEa-125" value="" style="shape=table;html=1;whiteSpace=wrap;startSize=0;container=1;collapsible=0;childLayout=tableLayout;" parent="EwAFlvkXxYl7o3pyVqEa-1" vertex="1">
          <mxGeometry x="500" y="359" width="220" height="120" as="geometry" />
        </mxCell>
        <mxCell id="EwAFlvkXxYl7o3pyVqEa-126" value="" style="shape=tableRow;horizontal=0;startSize=0;swimlaneHead=0;swimlaneBody=0;top=0;left=0;bottom=0;right=0;collapsible=0;dropTarget=0;fillColor=none;points=[[0,0.5],[1,0.5]];portConstraint=eastwest;" parent="EwAFlvkXxYl7o3pyVqEa-125" vertex="1">
          <mxGeometry width="220" height="40" as="geometry" />
        </mxCell>
        <mxCell id="EwAFlvkXxYl7o3pyVqEa-127" value="" style="shape=partialRectangle;html=1;whiteSpace=wrap;connectable=0;fillColor=none;top=0;left=0;bottom=0;right=0;overflow=hidden;" parent="EwAFlvkXxYl7o3pyVqEa-126" vertex="1">
          <mxGeometry width="73" height="40" as="geometry">
            <mxRectangle width="73" height="40" as="alternateBounds" />
          </mxGeometry>
        </mxCell>
        <mxCell id="EwAFlvkXxYl7o3pyVqEa-128" value="" style="shape=partialRectangle;html=1;whiteSpace=wrap;connectable=0;fillColor=none;top=0;left=0;bottom=0;right=0;overflow=hidden;" parent="EwAFlvkXxYl7o3pyVqEa-126" vertex="1">
          <mxGeometry x="73" width="74" height="40" as="geometry">
            <mxRectangle width="74" height="40" as="alternateBounds" />
          </mxGeometry>
        </mxCell>
        <mxCell id="EwAFlvkXxYl7o3pyVqEa-129" value="" style="shape=partialRectangle;html=1;whiteSpace=wrap;connectable=0;fillColor=none;top=0;left=0;bottom=0;right=0;overflow=hidden;" parent="EwAFlvkXxYl7o3pyVqEa-126" vertex="1">
          <mxGeometry x="147" width="73" height="40" as="geometry">
            <mxRectangle width="73" height="40" as="alternateBounds" />
          </mxGeometry>
        </mxCell>
        <mxCell id="EwAFlvkXxYl7o3pyVqEa-130" value="" style="shape=tableRow;horizontal=0;startSize=0;swimlaneHead=0;swimlaneBody=0;top=0;left=0;bottom=0;right=0;collapsible=0;dropTarget=0;fillColor=none;points=[[0,0.5],[1,0.5]];portConstraint=eastwest;" parent="EwAFlvkXxYl7o3pyVqEa-125" vertex="1">
          <mxGeometry y="40" width="220" height="40" as="geometry" />
        </mxCell>
        <mxCell id="EwAFlvkXxYl7o3pyVqEa-131" value="" style="shape=partialRectangle;html=1;whiteSpace=wrap;connectable=0;fillColor=none;top=0;left=0;bottom=0;right=0;overflow=hidden;" parent="EwAFlvkXxYl7o3pyVqEa-130" vertex="1">
          <mxGeometry width="73" height="40" as="geometry">
            <mxRectangle width="73" height="40" as="alternateBounds" />
          </mxGeometry>
        </mxCell>
        <mxCell id="EwAFlvkXxYl7o3pyVqEa-132" value="" style="shape=partialRectangle;html=1;whiteSpace=wrap;connectable=0;fillColor=none;top=0;left=0;bottom=0;right=0;overflow=hidden;" parent="EwAFlvkXxYl7o3pyVqEa-130" vertex="1">
          <mxGeometry x="73" width="74" height="40" as="geometry">
            <mxRectangle width="74" height="40" as="alternateBounds" />
          </mxGeometry>
        </mxCell>
        <mxCell id="EwAFlvkXxYl7o3pyVqEa-133" value="" style="shape=partialRectangle;html=1;whiteSpace=wrap;connectable=0;fillColor=none;top=0;left=0;bottom=0;right=0;overflow=hidden;" parent="EwAFlvkXxYl7o3pyVqEa-130" vertex="1">
          <mxGeometry x="147" width="73" height="40" as="geometry">
            <mxRectangle width="73" height="40" as="alternateBounds" />
          </mxGeometry>
        </mxCell>
        <mxCell id="EwAFlvkXxYl7o3pyVqEa-134" value="" style="shape=tableRow;horizontal=0;startSize=0;swimlaneHead=0;swimlaneBody=0;top=0;left=0;bottom=0;right=0;collapsible=0;dropTarget=0;fillColor=none;points=[[0,0.5],[1,0.5]];portConstraint=eastwest;" parent="EwAFlvkXxYl7o3pyVqEa-125" vertex="1">
          <mxGeometry y="80" width="220" height="40" as="geometry" />
        </mxCell>
        <mxCell id="EwAFlvkXxYl7o3pyVqEa-135" value="" style="shape=partialRectangle;html=1;whiteSpace=wrap;connectable=0;fillColor=none;top=0;left=0;bottom=0;right=0;overflow=hidden;" parent="EwAFlvkXxYl7o3pyVqEa-134" vertex="1">
          <mxGeometry width="73" height="40" as="geometry">
            <mxRectangle width="73" height="40" as="alternateBounds" />
          </mxGeometry>
        </mxCell>
        <mxCell id="EwAFlvkXxYl7o3pyVqEa-136" value="" style="shape=partialRectangle;html=1;whiteSpace=wrap;connectable=0;fillColor=none;top=0;left=0;bottom=0;right=0;overflow=hidden;" parent="EwAFlvkXxYl7o3pyVqEa-134" vertex="1">
          <mxGeometry x="73" width="74" height="40" as="geometry">
            <mxRectangle width="74" height="40" as="alternateBounds" />
          </mxGeometry>
        </mxCell>
        <mxCell id="EwAFlvkXxYl7o3pyVqEa-137" value="" style="shape=partialRectangle;html=1;whiteSpace=wrap;connectable=0;fillColor=none;top=0;left=0;bottom=0;right=0;overflow=hidden;pointerEvents=1;" parent="EwAFlvkXxYl7o3pyVqEa-134" vertex="1">
          <mxGeometry x="147" width="73" height="40" as="geometry">
            <mxRectangle width="73" height="40" as="alternateBounds" />
          </mxGeometry>
        </mxCell>
        <mxCell id="EwAFlvkXxYl7o3pyVqEa-138" value="共X条" style="text;strokeColor=none;fillColor=none;align=left;verticalAlign=middle;spacingLeft=4;spacingRight=4;overflow=hidden;points=[[0,0.5],[1,0.5]];portConstraint=eastwest;rotatable=0;" parent="EwAFlvkXxYl7o3pyVqEa-1" vertex="1">
          <mxGeometry x="180" y="490" width="50" height="30" as="geometry" />
        </mxCell>
        <mxCell id="EwAFlvkXxYl7o3pyVqEa-139" value="X条/页" style="rounded=0;whiteSpace=wrap;html=1;" parent="EwAFlvkXxYl7o3pyVqEa-1" vertex="1">
          <mxGeometry x="240" y="495" width="76" height="20" as="geometry" />
        </mxCell>
        <mxCell id="EwAFlvkXxYl7o3pyVqEa-141" value="前一页" style="text;strokeColor=none;fillColor=none;align=left;verticalAlign=middle;spacingLeft=4;spacingRight=4;overflow=hidden;points=[[0,0.5],[1,0.5]];portConstraint=eastwest;rotatable=0;" parent="EwAFlvkXxYl7o3pyVqEa-1" vertex="1">
          <mxGeometry x="340" y="490" width="50" height="30" as="geometry" />
        </mxCell>
        <mxCell id="EwAFlvkXxYl7o3pyVqEa-142" value="后一页" style="text;strokeColor=none;fillColor=none;align=left;verticalAlign=middle;spacingLeft=4;spacingRight=4;overflow=hidden;points=[[0,0.5],[1,0.5]];portConstraint=eastwest;rotatable=0;" parent="EwAFlvkXxYl7o3pyVqEa-1" vertex="1">
          <mxGeometry x="400" y="490" width="50" height="30" as="geometry" />
        </mxCell>
        <mxCell id="EwAFlvkXxYl7o3pyVqEa-144" value="前往X页" style="rounded=0;whiteSpace=wrap;html=1;" parent="EwAFlvkXxYl7o3pyVqEa-1" vertex="1">
          <mxGeometry x="464" y="495" width="76" height="20" as="geometry" />
        </mxCell>
        <mxCell id="EwAFlvkXxYl7o3pyVqEa-145" value="下载" style="rounded=1;whiteSpace=wrap;html=1;" parent="EwAFlvkXxYl7o3pyVqEa-1" vertex="1">
          <mxGeometry x="660" y="185" width="60" height="30" as="geometry" />
        </mxCell>
        <mxCell id="EwAFlvkXxYl7o3pyVqEa-147" value="" style="rounded=0;whiteSpace=wrap;html=1;" parent="EwAFlvkXxYl7o3pyVqEa-1" vertex="1">
          <mxGeometry x="630" y="54" width="90" height="30" as="geometry" />
        </mxCell>
        <mxCell id="EwAFlvkXxYl7o3pyVqEa-148" value="接口编码：" style="text;html=1;strokeColor=none;fillColor=none;align=center;verticalAlign=middle;whiteSpace=wrap;rounded=0;" parent="EwAFlvkXxYl7o3pyVqEa-1" vertex="1">
          <mxGeometry x="550" y="54" width="80" height="30" as="geometry" />
        </mxCell>
        <mxCell id="EwAFlvkXxYl7o3pyVqEa-149" value="总调用量：" style="text;html=1;strokeColor=none;fillColor=none;align=center;verticalAlign=middle;whiteSpace=wrap;rounded=0;" parent="EwAFlvkXxYl7o3pyVqEa-1" vertex="1">
          <mxGeometry x="25" y="190" width="85" height="30" as="geometry" />
        </mxCell>
        <mxCell id="EwAFlvkXxYl7o3pyVqEa-152" value="次" style="text;html=1;strokeColor=none;fillColor=none;align=center;verticalAlign=middle;whiteSpace=wrap;rounded=0;" parent="EwAFlvkXxYl7o3pyVqEa-1" vertex="1">
          <mxGeometry x="130" y="190" width="60" height="30" as="geometry" />
        </mxCell>
        <mxCell id="EwAFlvkXxYl7o3pyVqEa-153" value="总费用：" style="text;html=1;strokeColor=none;fillColor=none;align=center;verticalAlign=middle;whiteSpace=wrap;rounded=0;" parent="EwAFlvkXxYl7o3pyVqEa-1" vertex="1">
          <mxGeometry x="202" y="190" width="85" height="30" as="geometry" />
        </mxCell>
        <mxCell id="EwAFlvkXxYl7o3pyVqEa-155" value="元" style="text;html=1;strokeColor=none;fillColor=none;align=center;verticalAlign=middle;whiteSpace=wrap;rounded=0;" parent="EwAFlvkXxYl7o3pyVqEa-1" vertex="1">
          <mxGeometry x="287" y="190" width="60" height="30" as="geometry" />
        </mxCell>
        <mxCell id="6wrDezF2xjn0FdesIQgl-1" value="XXX" style="text;html=1;strokeColor=none;fillColor=none;align=center;verticalAlign=middle;whiteSpace=wrap;rounded=0;" vertex="1" parent="EwAFlvkXxYl7o3pyVqEa-1">
          <mxGeometry x="100" y="190" width="60" height="30" as="geometry" />
        </mxCell>
        <mxCell id="6wrDezF2xjn0FdesIQgl-2" value="XXX" style="text;html=1;strokeColor=none;fillColor=none;align=center;verticalAlign=middle;whiteSpace=wrap;rounded=0;" vertex="1" parent="EwAFlvkXxYl7o3pyVqEa-1">
          <mxGeometry x="253" y="190" width="60" height="30" as="geometry" />
        </mxCell>
        <mxCell id="EwAFlvkXxYl7o3pyVqEa-3" value="" style="endArrow=none;html=1;rounded=0;exitX=0;exitY=0.25;exitDx=0;exitDy=0;" parent="1" edge="1">
          <mxGeometry width="50" height="50" relative="1" as="geometry">
            <mxPoint x="60" y="219" as="sourcePoint" />
            <mxPoint x="800" y="215" as="targetPoint" />
          </mxGeometry>
        </mxCell>
        <mxCell id="6wrDezF2xjn0FdesIQgl-3" value="根据部门编码统计查询" style="text;html=1;strokeColor=none;fillColor=none;align=center;verticalAlign=middle;whiteSpace=wrap;rounded=0;" vertex="1" parent="1">
          <mxGeometry x="-60" y="104" width="80" height="30" as="geometry" />
        </mxCell>
        <mxCell id="6wrDezF2xjn0FdesIQgl-4" style="edgeStyle=orthogonalEdgeStyle;rounded=0;orthogonalLoop=1;jettySize=auto;html=1;" edge="1" parent="1" source="EwAFlvkXxYl7o3pyVqEa-5" target="6wrDezF2xjn0FdesIQgl-3">
          <mxGeometry relative="1" as="geometry" />
        </mxCell>
        <mxCell id="6wrDezF2xjn0FdesIQgl-5" value="根据系统简码统计查询" style="text;html=1;strokeColor=none;fillColor=none;align=center;verticalAlign=middle;whiteSpace=wrap;rounded=0;" vertex="1" parent="1">
          <mxGeometry x="332" width="80" height="30" as="geometry" />
        </mxCell>
        <mxCell id="6wrDezF2xjn0FdesIQgl-6" value="根据供应商编码统计查询" style="text;html=1;strokeColor=none;fillColor=none;align=center;verticalAlign=middle;whiteSpace=wrap;rounded=0;" vertex="1" parent="1">
          <mxGeometry x="515" width="80" height="30" as="geometry" />
        </mxCell>
        <mxCell id="6wrDezF2xjn0FdesIQgl-7" value="根据接口编码统计查询" style="text;html=1;strokeColor=none;fillColor=none;align=center;verticalAlign=middle;whiteSpace=wrap;rounded=0;" vertex="1" parent="1">
          <mxGeometry x="695" width="80" height="30" as="geometry" />
        </mxCell>
        <mxCell id="6wrDezF2xjn0FdesIQgl-8" value="天为基本单位，可根据任意时间段筛选查询" style="text;html=1;strokeColor=none;fillColor=none;align=center;verticalAlign=middle;whiteSpace=wrap;rounded=0;" vertex="1" parent="1">
          <mxGeometry x="-110" y="155" width="130" height="30" as="geometry" />
        </mxCell>
        <mxCell id="6wrDezF2xjn0FdesIQgl-9" style="edgeStyle=orthogonalEdgeStyle;rounded=0;orthogonalLoop=1;jettySize=auto;html=1;" edge="1" parent="1" source="EwAFlvkXxYl7o3pyVqEa-9" target="6wrDezF2xjn0FdesIQgl-8">
          <mxGeometry relative="1" as="geometry" />
        </mxCell>
        <mxCell id="6wrDezF2xjn0FdesIQgl-10" value="" style="edgeStyle=orthogonalEdgeStyle;rounded=0;orthogonalLoop=1;jettySize=auto;html=1;" edge="1" parent="1" source="EwAFlvkXxYl7o3pyVqEa-6" target="6wrDezF2xjn0FdesIQgl-5">
          <mxGeometry relative="1" as="geometry" />
        </mxCell>
        <mxCell id="6wrDezF2xjn0FdesIQgl-11" value="" style="edgeStyle=orthogonalEdgeStyle;rounded=0;orthogonalLoop=1;jettySize=auto;html=1;" edge="1" parent="1" source="EwAFlvkXxYl7o3pyVqEa-12" target="6wrDezF2xjn0FdesIQgl-6">
          <mxGeometry relative="1" as="geometry" />
        </mxCell>
        <mxCell id="6wrDezF2xjn0FdesIQgl-12" value="" style="edgeStyle=orthogonalEdgeStyle;rounded=0;orthogonalLoop=1;jettySize=auto;html=1;" edge="1" parent="1" source="EwAFlvkXxYl7o3pyVqEa-147" target="6wrDezF2xjn0FdesIQgl-7">
          <mxGeometry relative="1" as="geometry" />
        </mxCell>
        <mxCell id="6wrDezF2xjn0FdesIQgl-13" value="查询条件下的统计数据" style="text;html=1;strokeColor=none;fillColor=none;align=center;verticalAlign=middle;whiteSpace=wrap;rounded=0;" vertex="1" parent="1">
          <mxGeometry x="-50" y="240" width="80" height="30" as="geometry" />
        </mxCell>
        <mxCell id="6wrDezF2xjn0FdesIQgl-14" style="edgeStyle=orthogonalEdgeStyle;rounded=0;orthogonalLoop=1;jettySize=auto;html=1;" edge="1" parent="1" source="EwAFlvkXxYl7o3pyVqEa-149" target="6wrDezF2xjn0FdesIQgl-13">
          <mxGeometry relative="1" as="geometry" />
        </mxCell>
        <mxCell id="6wrDezF2xjn0FdesIQgl-15" value="下载查询后表格" style="text;html=1;strokeColor=none;fillColor=none;align=center;verticalAlign=middle;whiteSpace=wrap;rounded=0;" vertex="1" parent="1">
          <mxGeometry x="860" y="235" width="80" height="30" as="geometry" />
        </mxCell>
        <mxCell id="6wrDezF2xjn0FdesIQgl-16" value="" style="edgeStyle=orthogonalEdgeStyle;rounded=0;orthogonalLoop=1;jettySize=auto;html=1;" edge="1" parent="1" source="EwAFlvkXxYl7o3pyVqEa-145" target="6wrDezF2xjn0FdesIQgl-15">
          <mxGeometry relative="1" as="geometry" />
        </mxCell>
      </root>
    </mxGraphModel>
  </diagram>
</mxfile>
